<svg width="64" height="64" viewBox="0 0 64 64" fill="none" xmlns="http://www.w3.org/2000/svg">
<rect width="64" height="64" rx="16" fill="#00C0DA"/>
<g filter="url(#filter0_d_19_711)">
<rect x="12" y="12" width="40" height="40" rx="20" fill="white"/>
</g>
<g clip-path="url(#clip0_19_711)">
<path d="M42.5 29.0833V32.5833C42.5 35.4825 37.7983 37.8333 32 37.8333C26.2017 37.8333 21.5 35.4825 21.5 32.5833V29.0833C21.5 31.9825 26.2017 34.3333 32 34.3333C37.7983 34.3333 42.5 31.9825 42.5 29.0833ZM21.5 34.9167C21.5 37.8158 26.2017 40.1667 32 40.1667C37.7983 40.1667 42.5 37.8158 42.5 34.9167V38.4167C42.5 41.3158 37.7983 43.6667 32 43.6667C26.2017 43.6667 21.5 41.3158 21.5 38.4167V34.9167ZM32 32C26.2017 32 21.5 29.6492 21.5 26.75C21.5 23.8508 26.2017 21.5 32 21.5C37.7983 21.5 42.5 23.8508 42.5 26.75C42.5 29.6492 37.7983 32 32 32Z" fill="url(#paint0_linear_19_711)"/>
</g>
<defs>
<filter id="filter0_d_19_711" x="8" y="9" width="48" height="48" filterUnits="userSpaceOnUse" color-interpolation-filters="sRGB">
<feFlood flood-opacity="0" result="BackgroundImageFix"/>
<feColorMatrix in="SourceAlpha" type="matrix" values="0 0 0 0 0 0 0 0 0 0 0 0 0 0 0 0 0 0 127 0" result="hardAlpha"/>
<feOffset dy="1"/>
<feGaussianBlur stdDeviation="2"/>
<feComposite in2="hardAlpha" operator="out"/>
<feColorMatrix type="matrix" values="0 0 0 0 1 0 0 0 0 1 0 0 0 0 1 0 0 0 0.3 0"/>
<feBlend mode="normal" in2="BackgroundImageFix" result="effect1_dropShadow_19_711"/>
<feBlend mode="normal" in="SourceGraphic" in2="effect1_dropShadow_19_711" result="shape"/>
</filter>
<linearGradient id="paint0_linear_19_711" x1="26" y1="22" x2="40" y2="44" gradientUnits="userSpaceOnUse">
<stop stop-color="#00CCE8"/>
<stop offset="1" stop-color="#00E8A2"/>
</linearGradient>
<clipPath id="clip0_19_711">
<rect width="28" height="28" fill="white" transform="translate(18 18)"/>
</clipPath>
</defs>
</svg>
