<svg width="24" height="24" viewBox="0 0 24 24" fill="none" xmlns="http://www.w3.org/2000/svg">
<g clip-path="url(#clip0_1_600)">
<path fill-rule="evenodd" clip-rule="evenodd" d="M15.0831 17.7969C14.8161 17.862 14.5475 17.9197 14.2773 17.97C12.8114 18.2459 11.3063 18.2403 9.84252 17.9534C9.58615 17.9034 9.22324 17.8152 8.75545 17.6903L7.22224 19.683C3.43832 19.5615 2 17.0261 2 17.0261C2 11.3977 4.46546 6.83466 4.46546 6.83466C6.93091 4.94853 9.27651 5.00014 9.27651 5.00014L9.9474 5.87412C10.0092 5.86545 10.0715 5.8599 10.1338 5.85747C11.4127 5.68795 12.7087 5.69356 13.986 5.87412L14.7218 5.00014C14.7218 5.00014 17.0691 4.94853 19.5329 6.83633C19.5329 6.83633 22 11.3977 22 17.0261C22 17.0261 20.5434 19.5598 16.7594 19.683L15.0831 17.7969ZM8.69356 11.8369C7.69307 11.8369 6.90232 12.586 6.90232 13.5016C6.90232 14.4172 7.70971 15.1664 8.69356 15.1664C9.6924 15.1664 10.4831 14.4172 10.4831 13.5016C10.4998 12.586 9.69406 11.8369 8.69356 11.8369ZM15.0994 11.8369C14.1006 11.8369 13.3098 12.586 13.3098 13.5016C13.3098 14.4172 14.1172 15.1664 15.0994 15.1664C16.0999 15.1664 16.8907 14.4172 16.8907 13.5016C16.8907 12.586 16.0999 11.8369 15.0994 11.8369Z" fill="#3C455D"/>
</g>
<defs>
<clipPath id="clip0_1_600">
<rect width="24" height="24" fill="white"/>
</clipPath>
</defs>
</svg>
