<svg width="28" height="28" viewBox="0 0 28 28" fill="none" xmlns="http://www.w3.org/2000/svg">
<g clip-path="url(#clip0_280_44)">
<path fill-rule="evenodd" clip-rule="evenodd" d="M17.597 20.7631C17.2855 20.839 16.9721 20.9064 16.6569 20.965C14.9467 21.287 13.1908 21.2804 11.483 20.9456C11.1839 20.8874 10.7605 20.7844 10.2147 20.6388L8.42599 22.9636C4.01142 22.8218 2.33337 19.8638 2.33337 19.8638C2.33337 13.2973 5.20974 7.97382 5.20974 7.97382C8.08611 5.77333 10.8226 5.83354 10.8226 5.83354L11.6053 6.85318C11.6775 6.84307 11.7501 6.83659 11.8229 6.83376C13.3148 6.63599 14.8268 6.64252 16.3171 6.85318L17.1755 5.83354C17.1755 5.83354 19.914 5.77333 22.7884 7.97576C22.7884 7.97576 25.6667 13.2973 25.6667 19.8638C25.6667 19.8638 23.9673 22.8198 19.5527 22.9636L17.597 20.7631ZM10.1425 13.8098C8.97528 13.8098 8.05275 14.6838 8.05275 15.7519C8.05275 16.8201 8.99471 17.6941 10.1425 17.6941C11.3078 17.6941 12.2304 16.8201 12.2304 15.7519C12.2498 14.6838 11.3098 13.8098 10.1425 13.8098ZM17.616 13.8098C16.4507 13.8098 15.5282 14.6838 15.5282 15.7519C15.5282 16.8201 16.4701 17.6941 17.616 17.6941C18.7833 17.6941 19.7058 16.8201 19.7058 15.7519C19.7058 14.6838 18.7833 13.8098 17.616 13.8098Z" fill="#6688FF"/>
</g>
<defs>
<clipPath id="clip0_280_44">
<rect width="28" height="28" fill="white"/>
</clipPath>
</defs>
</svg>
