<svg width="24" height="24" viewBox="0 0 24 24" fill="none" xmlns="http://www.w3.org/2000/svg">
<path fill-rule="evenodd" clip-rule="evenodd" d="M13.6228 19.7399C13.0966 19.8365 12.5542 19.8869 12.0001 19.8869C7.06474 19.8869 3.06384 15.886 3.06384 10.9507C3.06384 6.0153 7.06474 2.0144 12.0001 2.0144C16.9354 2.0144 20.9363 6.0153 20.9363 10.9507C20.9363 13.948 19.4606 16.6007 17.1962 18.2218L14.312 21.9195C14.2207 22.0365 14.0341 21.9907 14.0074 21.8447L13.6228 19.7399ZM9.3375 7.88363C8.97081 7.88363 8.62735 8.06321 8.41812 8.36435L6.63897 10.9249L6.62574 10.9318L6.62997 10.9379L6.62574 10.944L6.63897 10.9508L8.41844 13.5115C8.62768 13.8126 8.9711 13.9921 9.33777 13.9921L10.7393 13.9921L9.1522 10.9379L10.7393 7.88363H9.3375ZM13.9095 14.0177C13.3236 14.0177 12.8487 13.5428 12.8487 12.957C12.8487 12.3711 13.3236 11.8962 13.9095 11.8962H16.3137C16.8995 11.8962 17.3744 12.3711 17.3744 12.957C17.3744 13.5428 16.8995 14.0177 16.3137 14.0177H13.9095Z" fill="#3C455D"/>
</svg>
