<svg width="28" height="28" viewBox="0 0 28 28" fill="none" xmlns="http://www.w3.org/2000/svg">
<path fill-rule="evenodd" clip-rule="evenodd" d="M15.8933 23.0299C15.2793 23.1425 14.6466 23.2013 14.0001 23.2013C8.24217 23.2013 3.57446 18.5336 3.57446 12.7757C3.57446 7.01781 8.24217 2.3501 14.0001 2.3501C19.758 2.3501 24.4257 7.01781 24.4257 12.7757C24.4257 16.2726 22.7041 19.3674 20.0622 21.2587L16.6973 25.5728C16.5908 25.7092 16.3731 25.6558 16.342 25.4855L15.8933 23.0299ZM10.8937 9.19753C10.4659 9.19753 10.0652 9.40704 9.82112 9.75837L7.74544 12.7457L7.73001 12.7537L7.73494 12.7608L7.73001 12.7679L7.74545 12.7759L9.82149 15.7633C10.0656 16.1146 10.4663 16.3241 10.894 16.3241L12.5291 16.3241L10.6775 12.7608L12.5291 9.19753H10.8937ZM16.2277 16.3539C15.5442 16.3539 14.9902 15.7999 14.9902 15.1164C14.9902 14.433 15.5442 13.8789 16.2277 13.8789H19.0327C19.7161 13.8789 20.2702 14.433 20.2702 15.1164C20.2702 15.7999 19.7161 16.3539 19.0327 16.3539H16.2277Z" fill="#00D2C3"/>
</svg>
