<svg width="20" height="20" viewBox="0 0 20 20" fill="none" xmlns="http://www.w3.org/2000/svg">
<g clip-path="url(#clip0_63_7)">
<path d="M9.99996 1.66663C5.39579 1.66663 1.66663 5.39579 1.66663 9.99996C1.66568 11.7494 2.21564 13.4546 3.23847 14.8739C4.26131 16.2931 5.70508 17.3542 7.36496 17.9066C7.78163 17.9791 7.93746 17.7291 7.93746 17.51C7.93746 17.3125 7.92663 16.6566 7.92663 15.9583C5.83329 16.3441 5.29163 15.4483 5.12496 14.9791C5.03079 14.7391 4.62496 14 4.27079 13.8016C3.97913 13.6458 3.56246 13.26 4.25996 13.25C4.91663 13.2391 5.38496 13.8541 5.54163 14.1041C6.29163 15.3641 7.48996 15.01 7.96829 14.7916C8.04163 14.25 8.25996 13.8858 8.49996 13.6775C6.64579 13.4691 4.70829 12.75 4.70829 9.56246C4.70829 8.65579 5.03079 7.90663 5.56246 7.32246C5.47913 7.11413 5.18746 6.25996 5.64579 5.11413C5.64579 5.11413 6.34329 4.89579 7.93746 5.96913C8.61585 5.78084 9.31677 5.68608 10.0208 5.68746C10.7291 5.68746 11.4375 5.78079 12.1041 5.96829C13.6975 4.88496 14.3958 5.11496 14.3958 5.11496C14.8541 6.26079 14.5625 7.11496 14.4791 7.32329C15.01 7.90663 15.3333 8.64579 15.3333 9.56246C15.3333 12.7608 13.3858 13.4691 11.5316 13.6775C11.8333 13.9375 12.0941 14.4375 12.0941 15.2191C12.0941 16.3333 12.0833 17.2291 12.0833 17.5108C12.0833 17.7291 12.24 17.9891 12.6566 17.9058C14.3108 17.3473 15.7482 16.2841 16.7665 14.8659C17.7849 13.4477 18.3328 11.7459 18.3333 9.99996C18.3333 5.39579 14.6041 1.66663 9.99996 1.66663Z" fill="#3C455D"/>
</g>
<defs>
<clipPath id="clip0_63_7">
<rect width="20" height="20" fill="white"/>
</clipPath>
</defs>
</svg>
