<svg width="48" height="48" viewBox="0 0 48 48" fill="none" xmlns="http://www.w3.org/2000/svg">
<rect x="0.5" y="0.5" width="47" height="47" rx="11.5" fill="white" stroke="#EDF1FD"/>
<g clip-path="url(#clip0_19_800)">
<path d="M24 37.3334C16.636 37.3334 10.6666 31.364 10.6666 24C10.6666 16.636 16.636 10.6667 24 10.6667C31.364 10.6667 37.3333 16.636 37.3333 24C37.3333 31.364 31.364 37.3334 24 37.3334ZM25.3333 25.3334V24H29.3333V21.3334H25.8853L28.7146 18.5054L26.828 16.6187L24 19.448L21.172 16.6187L19.2853 18.5067L22.1146 21.3334H18.6666V24H22.6666V25.3334H18.6666V28H22.6666V30.6667H25.3333V28H29.3333V25.3334H25.3333Z" fill="#FF9500"/>
</g>
<defs>
<clipPath id="clip0_19_800">
<rect width="32" height="32" fill="white" transform="translate(8 8)"/>
</clipPath>
</defs>
</svg>
