<svg width="48" height="48" viewBox="0 0 48 48" fill="none" xmlns="http://www.w3.org/2000/svg">
<rect x="0.5" y="0.5" width="47" height="47" rx="11.5" fill="white" stroke="#EDF1FD"/>
<g clip-path="url(#clip0_19_746)">
<path d="M24 10.6667C16.6333 10.6667 10.6666 16.6334 10.6666 24C10.6651 26.7991 11.545 29.5275 13.1816 31.7983C14.8181 34.069 17.1282 35.7668 19.784 36.6507C20.4506 36.7667 20.7 36.3667 20.7 36.016C20.7 35.7 20.6826 34.6507 20.6826 33.5334C17.3333 34.1507 16.4666 32.7174 16.2 31.9667C16.0493 31.5827 15.4 30.4 14.8333 30.0827C14.3666 29.8334 13.7 29.216 14.816 29.2C15.8666 29.1827 16.616 30.1667 16.8666 30.5667C18.0666 32.5827 19.984 32.016 20.7493 31.6667C20.8666 30.8 21.216 30.2174 21.6 29.884C18.6333 29.5507 15.5333 28.4 15.5333 23.3C15.5333 21.8494 16.0493 20.6507 16.9 19.716C16.7666 19.3827 16.3 18.016 17.0333 16.1827C17.0333 16.1827 18.1493 15.8334 20.7 17.5507C21.7854 17.2494 22.9068 17.0978 24.0333 17.1C25.1666 17.1 26.3 17.2494 27.3666 17.5494C29.916 15.816 31.0333 16.184 31.0333 16.184C31.7666 18.0174 31.3 19.384 31.1666 19.7174C32.016 20.6507 32.5333 21.8334 32.5333 23.3C32.5333 28.4174 29.4173 29.5507 26.4506 29.884C26.9333 30.3 27.3506 31.1 27.3506 32.3507C27.3506 34.1334 27.3333 35.5667 27.3333 36.0174C27.3333 36.3667 27.584 36.7827 28.2506 36.6494C30.8973 35.7558 33.1972 34.0547 34.8265 31.7856C36.4558 29.5164 37.3325 26.7935 37.3333 24C37.3333 16.6334 31.3666 10.6667 24 10.6667Z" fill="black"/>
</g>
<defs>
<clipPath id="clip0_19_746">
<rect width="32" height="32" fill="white" transform="translate(8 8)"/>
</clipPath>
</defs>
</svg>
