<svg width="48" height="48" viewBox="0 0 48 48" fill="none" xmlns="http://www.w3.org/2000/svg">
<rect x="0.5" y="0.5" width="47" height="47" rx="11.5" fill="white" stroke="#EDF1FD"/>
<g clip-path="url(#clip0_19_756)">
<path d="M24 29.3334L28 37.3334H20L24 29.3334ZM20.4973 29.6734C19.2631 28.9111 18.3113 27.767 17.7861 26.4148C17.261 25.0626 17.1912 23.5759 17.5875 22.1805C17.9837 20.785 18.8242 19.5569 19.9816 18.6824C21.139 17.8079 22.55 17.3347 24.0006 17.3347C25.4512 17.3347 26.8623 17.8079 28.0196 18.6824C29.177 19.5569 30.0176 20.785 30.4138 22.1805C30.81 23.5759 30.7403 25.0626 30.2151 26.4148C29.69 27.767 28.7381 28.9111 27.504 29.6734L25.696 26.0587C26.1198 25.7094 26.4255 25.2377 26.5711 24.7081C26.7168 24.1785 26.6954 23.6168 26.5098 23.0999C26.3242 22.5829 25.9835 22.1359 25.5343 21.8198C25.0851 21.5038 24.5492 21.3342 24 21.3342C23.4507 21.3342 22.9148 21.5038 22.4656 21.8198C22.0164 22.1359 21.6757 22.5829 21.4901 23.0999C21.3045 23.6168 21.2831 24.1785 21.4288 24.7081C21.5745 25.2377 21.8801 25.7094 22.304 26.0587L20.4973 29.6734ZM17.5093 35.6494C15.4342 34.4934 13.7057 32.804 12.5027 30.7558C11.2997 28.7077 10.6658 26.3753 10.6666 24C10.6666 16.636 16.636 10.6667 24 10.6667C31.364 10.6667 37.3333 16.636 37.3333 24C37.3342 26.3753 36.7003 28.7077 35.4972 30.7558C34.2942 32.804 32.5657 34.4934 30.4906 35.6494L28.7 32.0654C30.4722 31.0324 31.8547 29.4443 32.6339 27.5468C33.413 25.6492 33.5453 23.5478 33.0103 21.5675C32.4753 19.5872 31.3028 17.8384 29.6741 16.5913C28.0454 15.3442 26.0512 14.6685 24 14.6685C21.9487 14.6685 19.9545 15.3442 18.3258 16.5913C16.6971 17.8384 15.5247 19.5872 14.9897 21.5675C14.4547 23.5478 14.5869 25.6492 15.3661 27.5468C16.1452 29.4443 17.5277 31.0324 19.3 32.0654L17.5093 35.6494Z" fill="#34C759"/>
</g>
<defs>
<clipPath id="clip0_19_756">
<rect width="32" height="32" fill="white" transform="translate(8 8)"/>
</clipPath>
</defs>
</svg>
