<svg width="1200" height="440" viewBox="0 0 1200 440" fill="none" xmlns="http://www.w3.org/2000/svg">
<mask id="mask0_230_5" style="mask-type:alpha" maskUnits="userSpaceOnUse" x="0" y="0" width="1200" height="440">
<rect width="1200" height="440" rx="32" fill="#06091D"/>
</mask>
<g mask="url(#mask0_230_5)">
<rect width="1200" height="440" rx="32" fill="#06091D"/>
<g filter="url(#filter0_f_230_5)">
<path d="M1303.55 -5.16118C1303.55 141.836 1259.89 261 1206.04 261C1152.18 261 974 141.836 974 -5.16118C974 -152.158 1120.18 -5.1611 1174.03 -5.1611C1227.89 -5.1611 1399.07 -342.299 1303.55 -5.16118Z" fill="#00A1FC" fill-opacity="0.16"/>
</g>
<g filter="url(#filter1_f_230_5)">
<path d="M961 412.7C961 473.175 581.625 493 521.213 493C460.8 493 349 473.175 349 412.7C349 352.225 460.8 274 521.213 274C581.625 274 743.35 383.5 961 412.7Z" fill="#00B9D2" fill-opacity="0.16"/>
</g>
<g filter="url(#filter2_f_230_5)">
<path d="M290.872 440.965C290.872 547.421 57.1052 582.319 19.8799 582.319C-17.3454 582.319 -23.9937 500.06 -23.9937 393.605C-23.9937 287.149 -174.879 134.533 64.0065 248.21C313.214 266.991 419.329 168.142 290.872 440.965Z" fill="#F85900" fill-opacity="0.16"/>
</g>
</g>
<defs>
<filter id="filter0_f_230_5" x="874" y="-255" width="558" height="616" filterUnits="userSpaceOnUse" color-interpolation-filters="sRGB">
<feFlood flood-opacity="0" result="BackgroundImageFix"/>
<feBlend mode="normal" in="SourceGraphic" in2="BackgroundImageFix" result="shape"/>
<feGaussianBlur stdDeviation="50" result="effect1_foregroundBlur_230_5"/>
</filter>
<filter id="filter1_f_230_5" x="249" y="174" width="812" height="419" filterUnits="userSpaceOnUse" color-interpolation-filters="sRGB">
<feFlood flood-opacity="0" result="BackgroundImageFix"/>
<feBlend mode="normal" in="SourceGraphic" in2="BackgroundImageFix" result="shape"/>
<feGaussianBlur stdDeviation="50" result="effect1_foregroundBlur_230_5"/>
</filter>
<filter id="filter2_f_230_5" x="-171" y="108" width="616.678" height="574.319" filterUnits="userSpaceOnUse" color-interpolation-filters="sRGB">
<feFlood flood-opacity="0" result="BackgroundImageFix"/>
<feBlend mode="normal" in="SourceGraphic" in2="BackgroundImageFix" result="shape"/>
<feGaussianBlur stdDeviation="50" result="effect1_foregroundBlur_230_5"/>
</filter>
</defs>
</svg>
