<svg width="20" height="20" viewBox="0 0 20 20" fill="none" xmlns="http://www.w3.org/2000/svg">
<g clip-path="url(#clip0_19_650)">
<path d="M10 18.3333C5.39752 18.3333 1.66669 14.6025 1.66669 9.99996C1.66669 5.39746 5.39752 1.66663 10 1.66663C14.6025 1.66663 18.3334 5.39746 18.3334 9.99996C18.3334 14.6025 14.6025 18.3333 10 18.3333ZM8.09169 16.3891C7.26953 14.6452 6.79325 12.7585 6.68919 10.8333H3.38502C3.54718 12.1157 4.07829 13.3234 4.91383 14.3097C5.74937 15.296 6.85336 16.0184 8.09169 16.3891ZM8.35835 10.8333C8.48419 12.8658 9.06502 14.775 10 16.46C10.9603 14.7304 11.5212 12.8079 11.6417 10.8333H8.35835ZM16.615 10.8333H13.3109C13.2068 12.7585 12.7305 14.6452 11.9084 16.3891C13.1467 16.0184 14.2507 15.296 15.0862 14.3097C15.9218 13.3234 16.4529 12.1157 16.615 10.8333ZM3.38502 9.16663H6.68919C6.79325 7.24145 7.26953 5.3547 8.09169 3.61079C6.85336 3.98153 5.74937 4.70392 4.91383 5.69021C4.07829 6.67649 3.54718 7.88421 3.38502 9.16663ZM8.35919 9.16663H11.6409C11.5206 7.19212 10.96 5.26957 10 3.53996C9.03975 5.2695 8.47882 7.19206 8.35835 9.16663H8.35919ZM11.9084 3.61079C12.7305 5.3547 13.2068 7.24145 13.3109 9.16663H16.615C16.4529 7.88421 15.9218 6.67649 15.0862 5.69021C14.2507 4.70392 13.1467 3.98153 11.9084 3.61079Z" fill="#3C455D"/>
</g>
<defs>
<clipPath id="clip0_19_650">
<rect width="20" height="20" fill="white"/>
</clipPath>
</defs>
</svg>
