<svg width="56" height="56" viewBox="0 0 56 56" fill="none" xmlns="http://www.w3.org/2000/svg">
<path d="M28 56C12.5356 56 0 43.4644 0 28C0 12.5356 12.5356 0 28 0C43.4644 0 56 12.5356 56 28C56 43.4644 43.4644 56 28 56Z" fill="#3D5B59" fill-opacity="0.8"/>
<path d="M23.5752 17.775C23.7775 17.785 23.9734 17.8496 24.1419 17.962L37.8031 27.0676C37.9567 27.1698 38.0827 27.3085 38.1698 27.4711C38.257 27.6338 38.3026 27.8155 38.3026 28C38.3026 28.1845 38.257 28.3662 38.1698 28.5289C38.0827 28.6916 37.9567 28.8302 37.8031 28.9324L24.1419 38.038C23.9734 38.1504 23.7775 38.2151 23.5752 38.225C23.3728 38.2349 23.1716 38.1898 22.9929 38.0944C22.8142 37.999 22.6647 37.8569 22.5603 37.6833C22.456 37.5097 22.4006 37.311 22.4003 37.1084V18.8916C22.4006 18.689 22.456 18.4903 22.5603 18.3167C22.6647 18.1431 22.8142 18.001 22.9929 17.9056C23.1716 17.8102 23.3728 17.7651 23.5752 17.775Z" fill="white"/>
</svg>
