<svg width="30" height="12" viewBox="0 0 30 12" fill="none" xmlns="http://www.w3.org/2000/svg">
<path d="M6.3938 6.08269C6.3938 5.96186 6.32665 5.84766 6.21924 5.78724L3.37263 4.14912C3.32557 4.12222 3.2719 4.1088 3.21822 4.10206H3.19133C3.13765 4.10206 3.08392 4.12222 3.03693 4.14912L0.190306 5.78724C0.0828405 5.84766 0.0157471 5.9618 0.0157471 6.08269L0.0224855 10.4869C0.0224855 10.5473 0.0560612 10.6077 0.109736 10.6346C0.163469 10.6682 0.230562 10.6682 0.277615 10.6346L1.96947 9.6678C2.07688 9.60738 2.14403 9.49324 2.14403 9.37241V7.31128C2.14403 7.19045 2.21112 7.07631 2.31859 7.01589L3.03693 6.59962C3.09066 6.56605 3.15107 6.55257 3.21148 6.55257C3.2719 6.55257 3.33231 6.56605 3.37936 6.59962L4.0977 7.01589C4.20516 7.07631 4.27226 7.19039 4.27226 7.31128V9.37241C4.27226 9.49324 4.33941 9.60738 4.44682 9.6678L6.13867 10.6346C6.16481 10.651 6.19507 10.6598 6.22595 10.6598C6.25684 10.6598 6.2871 10.651 6.31323 10.6346C6.36697 10.6077 6.40054 10.5473 6.40054 10.4869L6.3938 6.08269ZM20.0764 0.0201716C20.0227 -0.00672386 19.9556 -0.00672386 19.9085 0.0201716C19.8548 0.0537473 19.8213 0.107422 19.8213 0.167835V4.53181C19.8213 4.57207 19.8012 4.61232 19.7608 4.63922C19.7206 4.65932 19.6803 4.65932 19.64 4.63922L18.9284 4.22969C18.8762 4.19998 18.8172 4.18436 18.7571 4.18436C18.6971 4.18436 18.6381 4.19998 18.5859 4.22969L15.7393 5.87455C15.6319 5.93496 15.5647 6.04911 15.5647 6.16994V9.45292C15.5647 9.57375 15.6319 9.68795 15.7393 9.74837L18.5859 11.3932C18.6381 11.4229 18.6971 11.4386 18.7571 11.4386C18.8172 11.4386 18.8762 11.4229 18.9284 11.3932L21.775 9.74837C21.8824 9.68795 21.9495 9.57381 21.9495 9.45292V1.26892C21.9495 1.14136 21.8824 1.02727 21.775 0.966799L20.0764 0.0201716ZM19.8146 8.37205C19.8146 8.40563 19.8012 8.43246 19.7743 8.44588L18.8008 9.00982C18.7872 9.01645 18.7723 9.0199 18.7571 9.0199C18.742 9.0199 18.7271 9.01645 18.7135 9.00982L17.74 8.44588C17.7131 8.43246 17.6997 8.39889 17.6997 8.37205V7.24413C17.6997 7.21055 17.7131 7.18371 17.74 7.1703L18.7135 6.6063C18.7271 6.59967 18.742 6.59622 18.7571 6.59622C18.7723 6.59622 18.7872 6.59967 18.8008 6.6063L19.7743 7.1703C19.8012 7.18366 19.8146 7.21729 19.8146 7.24413V8.37205ZM29.5495 7.21729C29.6569 7.15688 29.7173 7.04273 29.7173 6.92185V6.12294C29.7173 6.00212 29.6502 5.88797 29.5495 5.82756L26.723 4.18943C26.6708 4.15972 26.6118 4.1441 26.5518 4.1441C26.4917 4.1441 26.4327 4.15972 26.3806 4.18943L23.5339 5.83424C23.4265 5.89465 23.3594 6.0088 23.3594 6.12962V9.41267C23.3594 9.53349 23.4265 9.64764 23.5339 9.70805L26.3604 11.3193C26.4679 11.3798 26.5954 11.3798 26.6962 11.3193L28.4081 10.3661C28.4618 10.3392 28.4954 10.2788 28.4954 10.2184C28.4954 10.158 28.4618 10.0975 28.4081 10.0706L25.5481 8.42578C25.4943 8.39221 25.4608 8.33853 25.4608 8.27812V7.25092C25.4608 7.19051 25.4943 7.1301 25.5481 7.1032L26.441 6.59294C26.4671 6.57649 26.4974 6.56777 26.5282 6.56777C26.5591 6.56777 26.5894 6.57649 26.6155 6.59294L27.5085 7.1032C27.5622 7.13678 27.5957 7.19045 27.5957 7.25092V8.05657C27.5957 8.11698 27.6293 8.17739 27.683 8.20423C27.7092 8.22069 27.7394 8.22942 27.7703 8.22942C27.8012 8.22942 27.8315 8.22069 27.8576 8.20423L29.5495 7.21729Z" fill="#24282C"/>
<path d="M26.5081 7.06281C26.5181 7.05624 26.5298 7.05273 26.5417 7.05273C26.5537 7.05273 26.5653 7.05624 26.5753 7.06281L27.1191 7.37835C27.1392 7.39183 27.1526 7.41193 27.1526 7.43876V8.06991C27.1526 8.09674 27.1393 8.1169 27.1191 8.13032L26.5753 8.44586C26.5653 8.45243 26.5537 8.45593 26.5417 8.45593C26.5298 8.45593 26.5181 8.45243 26.5081 8.44586L25.9644 8.13032C25.9442 8.1169 25.9308 8.09674 25.9308 8.06991V7.43882C25.9308 7.41193 25.9441 7.39177 25.9644 7.37841L26.5081 7.06281Z" fill="#539E43"/>
<path d="M11.1539 4.20303C11.1017 4.17333 11.0427 4.15771 10.9827 4.15771C10.9226 4.15771 10.8636 4.17333 10.8115 4.20303L7.98502 5.83435C7.87755 5.89477 7.81714 6.00891 7.81714 6.12974V9.39937C7.81714 9.52019 7.88429 9.63434 7.98502 9.69475L10.8115 11.3262C10.8636 11.3559 10.9226 11.3715 10.9827 11.3715C11.0427 11.3715 11.1017 11.3559 11.1539 11.3262L13.9804 9.69475C14.0878 9.63434 14.1483 9.52019 14.1483 9.39937V6.1298C14.1483 6.00897 14.081 5.89483 13.9804 5.83441L11.1539 4.20303Z" fill="url(#paint0_linear_3999_13746)"/>
<defs>
<linearGradient id="paint0_linear_3999_13746" x1="439.523" y1="130.305" x2="129.716" y2="617.105" gradientUnits="userSpaceOnUse">
<stop stop-color="#41873F"/>
<stop offset="0.3288" stop-color="#418B3D"/>
<stop offset="0.6352" stop-color="#419637"/>
<stop offset="0.9319" stop-color="#3FA92D"/>
<stop offset="1" stop-color="#3FAE2A"/>
</linearGradient>
</defs>
</svg>
