<svg width="29" height="26" viewBox="0 0 29 26" fill="none" xmlns="http://www.w3.org/2000/svg">
<path d="M8.21575 9.50661L8.4159 9.49593C11.2178 9.64991 14.0377 9.73249 16.8254 9.8222C18.2157 9.85099 19.6381 9.87264 21.0284 9.90143L23.1299 9.94105C23.2979 9.9375 23.4658 9.93396 23.7053 9.94828C23.8089 9.95901 23.9447 9.9626 24.0948 10.0305C24.2449 10.0983 24.4342 10.1912 24.5413 10.3697C24.6806 10.5411 24.7305 10.7661 24.7018 10.941C24.7053 11.1088 24.6623 11.2195 24.6515 11.3231C24.5978 11.5373 24.4797 11.7658 24.3795 11.9229C24.1542 12.2763 23.8823 12.5726 23.6678 12.8225C23.5605 12.9475 23.4532 13.0724 23.378 13.1902C23.3029 13.308 23.2278 13.4258 23.1848 13.5365C23.106 13.79 23.0773 13.965 23.1773 14.1114C23.2451 14.2649 23.4487 14.422 23.7631 14.622C24.917 15.4113 26.071 16.2006 27.257 16.9827C27.5965 17.1434 27.8716 17.3184 28.2002 17.5827C28.3645 17.7148 28.536 17.8791 28.6573 18.1219C28.7787 18.3647 28.8429 18.6539 28.7962 18.9003C28.7496 19.1466 28.6959 19.3609 28.5957 19.5179L28.3667 20.0071L27.9408 20.9782C27.3467 22.2563 26.6168 23.5308 25.6832 24.6483C25.6332 24.7268 25.5438 24.7803 25.4473 24.8017C25.3221 24.9981 25.0396 25.0945 24.811 24.9766L21.7777 23.323L20.2735 22.4765L19.5089 22.0729C19.241 21.9301 19.0052 21.7801 18.7837 21.6944C18.555 21.5765 18.3477 21.555 18.219 21.5836C18.1547 21.5978 18.0582 21.6193 18.001 21.6657C17.9438 21.7121 17.8865 21.7585 17.8686 21.8299C17.7685 21.987 17.6968 22.2726 17.618 22.5261C17.5463 22.8117 17.4425 23.1045 17.2994 23.3722C17.1634 23.6721 17.0203 23.9399 16.7485 24.2362C16.609 24.3683 16.4123 24.5468 16.1228 24.611C15.8332 24.6752 15.5402 24.5716 15.3759 24.4395C15.2973 24.3895 15.1723 24.2824 15.0866 24.2002C15.0008 24.1181 14.9794 24.0217 14.9259 23.9324L14.7045 23.5432L14.3012 22.7898L11.117 16.6516L9.49626 13.6057C8.96438 12.5773 8.46466 11.5418 7.72184 10.6277C7.62898 10.5134 7.60047 10.3848 7.57196 10.2563C7.58294 9.84927 7.84762 9.52083 8.21575 9.50661ZM10.5188 13.0418L15.2092 22.3186L15.6126 23.072L15.7947 23.4363C15.8089 23.5005 15.8482 23.5255 15.8554 23.5577C15.8947 23.5827 15.8625 23.5898 15.8947 23.5827C15.934 23.6077 15.9661 23.6005 15.9661 23.6005C15.9661 23.6005 15.9983 23.5934 16.0806 23.5077C16.22 23.3756 16.3381 23.1471 16.4562 22.9186C16.5743 22.6902 16.6531 22.4367 16.7247 22.151C16.8357 21.8904 16.8681 21.5798 17.0684 21.2656C17.1686 21.1085 17.326 20.905 17.5047 20.798C17.6835 20.6909 17.8694 20.6159 18.0946 20.566C18.5199 20.5053 18.8844 20.6268 19.1845 20.7625C19.4847 20.8982 19.7205 21.0482 19.9884 21.1911L20.753 21.5947L25.0547 23.9448C25.4839 23.445 25.8738 22.9202 26.2244 22.3704C26.5678 21.7884 26.9042 21.1744 27.2012 20.5353L27.6343 19.5963L27.8311 19.1144C27.8991 18.9644 27.935 18.8216 27.9529 18.7502C27.9637 18.6467 27.9494 18.5824 27.903 18.5252C27.8494 18.436 27.7637 18.3538 27.6458 18.2788C27.435 18.0896 27.0885 17.8967 26.8134 17.7217C25.6344 16.9717 24.4233 16.2289 23.2515 15.511C22.9764 15.336 22.5584 15.1253 22.2763 14.6147C22.155 14.3718 22.0908 14.0826 22.1053 13.8434C22.1126 13.5721 22.1663 13.3578 22.2522 13.1365C22.399 12.733 22.6888 12.3653 22.9034 12.1154C23.143 11.8263 23.3647 11.6085 23.515 11.3729C23.5901 11.2551 23.6331 11.1444 23.676 11.0337C23.676 11.0337 23.676 11.0337 23.6689 11.0016L23.6367 11.0087C23.5331 10.998 23.3329 11.0087 23.1578 10.9801L21.0563 10.9404C19.666 10.9117 18.2507 10.9221 16.8604 10.8933C14.4301 10.893 11.9676 10.8997 9.51936 10.9707C9.81198 11.6813 10.1689 12.3776 10.5188 13.0418Z" fill="#9A61CD"/>
<path d="M12.6669 7.20437C12.5023 7.37572 12.245 7.43281 12.0485 7.30781C11.8449 7.15068 11.7807 6.86146 11.9059 6.6651C12.6643 5.5191 13.3191 4.36237 13.9095 3.21992C13.9024 3.18778 13.9346 3.18065 13.9274 3.14851C14.1278 2.83434 14.546 2.74158 14.8604 2.94157C15.1748 3.14157 15.2674 3.55933 15.0671 3.8735C14.348 5.0445 13.5432 6.13337 12.6669 7.20437Z" fill="#9A61CD"/>
<path d="M4.43644 17.7288C5.28771 16.6971 5.9889 15.5975 6.55795 14.3586C6.64386 14.1373 6.92627 14.0409 7.14781 14.1266C7.40151 14.2052 7.53 14.4802 7.41905 14.7408C6.93572 16.0618 6.2773 17.3542 5.49385 18.5395L5.4688 18.5787C5.22916 18.8679 4.82886 18.8893 4.53951 18.65C4.2573 18.4429 4.1968 18.018 4.43644 17.7288Z" fill="#9A61CD"/>
<path d="M1.01262 11.8798C2.31023 11.4908 3.6614 11.1911 5.0089 11.0271C5.24123 11.0093 5.47702 11.1593 5.52691 11.3842C5.58394 11.6413 5.44081 11.9091 5.18345 11.9662C3.93592 12.2766 2.68473 12.7227 1.51927 13.251C1.4871 13.2581 1.45493 13.2652 1.42276 13.2724C1.04384 13.3901 0.657977 13.1723 0.540273 12.7938C0.415438 12.3831 0.633695 11.9976 1.01262 11.8798Z" fill="#9A61CD"/>
<path d="M5.55385 8.31007C5.25372 8.17434 4.94646 8.00648 4.64633 7.87075L2.89562 6.97785L2.47046 6.73499L2.24179 6.61712C2.17032 6.59926 2.09173 6.54926 2.13122 6.27077C2.16358 5.96014 2.33888 5.68525 2.55348 5.43535C2.75016 5.25685 2.82163 5.27472 2.90022 5.32472L3.58621 5.67831C3.89347 5.84617 4.16857 6.02117 4.45079 6.2283C4.733 6.43543 5.00809 6.61043 5.29031 6.81756C5.57253 7.0247 5.82258 7.23897 6.07975 7.48537C6.2119 7.62464 6.2618 7.84959 6.20093 8.03167C6.0971 8.32444 5.81469 8.42079 5.55385 8.31007Z" fill="#9A61CD"/>
<path d="M9.03636 6.05409C9.08626 6.27904 8.9753 6.53966 8.72507 6.62888C8.47483 6.71811 8.20686 6.57524 8.11767 6.3253C7.56112 4.7292 7.10109 3.1117 6.73043 1.44066C6.7233 1.40852 6.7233 1.40852 6.71618 1.37639C6.70924 1.04076 6.9668 0.680185 7.35997 0.626692C7.72098 0.580334 8.08179 0.837467 8.13516 1.23023C8.32357 2.84054 8.6478 4.45445 9.03636 6.05409Z" fill="#9A61CD"/>
</svg>
