<svg width="888" height="790" viewBox="0 0 888 790" fill="none" xmlns="http://www.w3.org/2000/svg">
<g clip-path="url(#clip0_4455_13552)">
<path d="M316.094 416.144C353.282 410.52 407.338 415.099 443.421 387.861C454.723 379.329 457.554 376.9 459.842 372.825C464.406 364.698 457.508 356.703 451.463 345.392C447.601 338.167 446.09 326.851 455.796 317.463C467.39 306.25 482.622 297.512 494.647 291.542C496.485 290.629 499.467 290.447 505.09 291.542C508.294 292.165 511.916 293.734 507.192 293.956C497.049 294.432 459.501 311.642 464.406 330.181C466.825 339.323 471.207 343.288 479.349 350.267C487.491 357.246 489.765 360.999 492.357 367.488C495.681 375.81 494.024 380.324 492.463 384.579L492.357 384.867C489.54 392.561 484.903 399.096 471.618 410.009C458.333 420.922 446.781 424.312 419.034 435.138C360.869 457.833 289.558 491.922 393.397 527.585C672.666 589.495 868.379 760.838 887.568 798.784H722.702H394.056H171.895C145.117 750.185 29.3138 595.752 62.0082 519.011C94.7026 442.27 266.509 423.643 316.094 416.144Z" fill="url(#paint0_linear_4455_13552)"/>
<path d="M455.553 326.177C460.669 310.404 482.954 300.376 495.929 295.373C476.847 302.73 464.593 311.047 458.232 327.159C453.069 340.236 478.143 356.512 482.071 367.031C485.741 376.857 483.006 389.074 464.593 400.919C417.24 431.38 394.522 423.378 367.962 425.282C399.455 418.302 430.256 414.965 455.754 396.688C469.716 386.68 477.831 376.144 470.102 361.046C462.944 347.063 450.664 341.252 455.553 326.177Z" fill="url(#paint1_linear_4455_13552)"/>
<path d="M122.631 517.098C140.28 468.804 319.886 430.655 378.718 422.497C300.832 439.558 246.471 459.511 227.041 484.952C205.478 513.186 216.26 542.808 277.013 556.265C337.766 569.722 465.748 589.222 528.047 612.19C663.691 662.198 735.066 725.856 785.024 790H378.718C434.787 682.052 309.467 636.478 264.24 618.531C219.012 600.584 100.568 577.465 122.631 517.098Z" fill="url(#paint2_linear_4455_13552)" fill-opacity="0.8"/>
<g filter="url(#filter0_f_4455_13552)">
<ellipse cx="191.595" cy="48.3142" rx="191.595" ry="48.3142" transform="matrix(0.961114 0.276151 -0.18255 0.983197 -17.6689 642.108)" fill="#B3C4E8" fill-opacity="0.7"/>
</g>
<path d="M426.355 789.756C475.725 714.052 403.533 644.766 361.267 619.586C454.695 690.304 443.071 754.191 418.615 790.39L426.355 789.756Z" fill="url(#paint3_linear_4455_13552)"/>
<path d="M187.507 487.261C168.49 497.123 134.152 519.931 171.015 541.316C162.361 533.36 151.095 511.369 187.507 487.261Z" fill="url(#paint4_linear_4455_13552)" stroke="url(#paint5_linear_4455_13552)" stroke-width="0.794677"/>
<path d="M361.137 619.707C402.566 646.647 474.324 716.898 424.289 789.77" stroke="url(#paint6_linear_4455_13552)" stroke-width="0.794677"/>
<path d="M366.196 601.087C477.491 614.701 655.131 657.173 682.84 792.024" stroke="url(#paint7_linear_4455_13552)" stroke-width="0.794677"/>
<ellipse cx="137.469" cy="773.802" rx="30.87" ry="31.165" fill="#8FBCC7"/>
<path d="M144.791 733.791C144.791 750.787 131.145 764.558 114.319 764.558C97.4927 764.558 83.8461 750.787 83.8461 733.791C83.8461 716.794 97.4927 703.023 114.319 703.023C131.145 703.023 144.791 716.794 144.791 733.791Z" fill="#8FBCC7" stroke="url(#paint8_linear_4455_13552)" stroke-width="0.794677"/>
<path d="M46.4218 609.462C46.4218 626.458 32.7751 640.23 15.9491 640.23C-0.876932 640.23 -14.5236 626.458 -14.5236 609.462C-14.5236 592.466 -0.876932 578.694 15.9491 578.694C32.7751 578.694 46.4218 592.466 46.4218 609.462Z" fill="#8FBCC7" stroke="url(#paint9_linear_4455_13552)" stroke-width="0.794677"/>
<path d="M20.3958 599.662C11.296 611.613 -5.80232 608.898 -17.8114 593.259C-29.8206 577.621 -31.9695 555.273 -22.8696 543.322C-13.7698 531.371 3.32851 534.086 15.3376 549.724C27.3468 565.362 29.4957 587.711 20.3958 599.662Z" fill="#A4D5D5" stroke="url(#paint10_linear_4455_13552)" stroke-width="0.794677"/>
<path d="M120.921 745.746C107.144 763.84 83.8217 762.762 68.8281 743.237C53.8345 723.713 52.9111 693.218 66.6884 675.124C80.4657 657.03 103.788 658.108 118.781 677.633C133.775 697.157 134.698 727.652 120.921 745.746Z" fill="#8FBCC7" stroke="url(#paint11_linear_4455_13552)" stroke-width="0.794677"/>
<path d="M70.2623 679.623C70.2623 700.373 54.3236 717.157 34.7065 717.157C15.0894 717.157 -0.849244 700.373 -0.849244 679.623C-0.849244 658.872 15.0894 642.088 34.7065 642.088C54.3236 642.088 70.2623 658.872 70.2623 679.623Z" fill="#8FBCC7" stroke="url(#paint12_linear_4455_13552)" stroke-width="0.794677"/>
<mask id="path-16-inside-1_4455_13552" fill="white">
<path fill-rule="evenodd" clip-rule="evenodd" d="M35.4151 638.151C25.4431 651.396 10.7662 656.155 -1.76089 648.595C-18.1685 638.694 -24.6749 611.411 -16.2932 587.658C-15.3424 584.963 -14.2407 582.429 -13.0108 580.069C-12.6852 578.022 -12.1819 576.006 -11.4913 574.049C-5.76173 557.811 10.6893 551.772 25.2532 560.56C25.8337 560.911 26.4026 561.279 26.9593 561.665C27.507 561.946 28.0513 562.249 28.5916 562.575C38.739 568.698 45.0993 581.47 46.4928 595.944C48.6418 596.017 50.6977 596.57 52.5978 597.522C53.5391 596.892 54.5316 596.368 55.5626 595.955C62.764 591.537 71.3862 589.473 80.306 590.651C101.423 593.441 116.212 613.347 113.337 635.113C113.168 636.391 112.942 637.647 112.662 638.879C116.571 639.825 120.348 641.698 123.754 644.547C137.225 655.818 139.787 678.099 129.477 694.314C119.167 710.53 99.8894 714.538 86.4186 703.268C85.1504 702.207 83.9789 701.048 82.9056 699.806C81.1651 700.622 79.2876 701.067 77.33 701.067C68.275 701.067 60.9345 691.548 60.9345 679.805C60.9345 675.48 61.9301 671.457 63.6403 668.1C50.5914 664.046 40.8242 653.17 37.6285 639.902C36.8565 639.385 36.117 638.8 35.4151 638.151Z"/>
</mask>
<path fill-rule="evenodd" clip-rule="evenodd" d="M35.4151 638.151C25.4431 651.396 10.7662 656.155 -1.76089 648.595C-18.1685 638.694 -24.6749 611.411 -16.2932 587.658C-15.3424 584.963 -14.2407 582.429 -13.0108 580.069C-12.6852 578.022 -12.1819 576.006 -11.4913 574.049C-5.76173 557.811 10.6893 551.772 25.2532 560.56C25.8337 560.911 26.4026 561.279 26.9593 561.665C27.507 561.946 28.0513 562.249 28.5916 562.575C38.739 568.698 45.0993 581.47 46.4928 595.944C48.6418 596.017 50.6977 596.57 52.5978 597.522C53.5391 596.892 54.5316 596.368 55.5626 595.955C62.764 591.537 71.3862 589.473 80.306 590.651C101.423 593.441 116.212 613.347 113.337 635.113C113.168 636.391 112.942 637.647 112.662 638.879C116.571 639.825 120.348 641.698 123.754 644.547C137.225 655.818 139.787 678.099 129.477 694.314C119.167 710.53 99.8894 714.538 86.4186 703.268C85.1504 702.207 83.9789 701.048 82.9056 699.806C81.1651 700.622 79.2876 701.067 77.33 701.067C68.275 701.067 60.9345 691.548 60.9345 679.805C60.9345 675.48 61.9301 671.457 63.6403 668.1C50.5914 664.046 40.8242 653.17 37.6285 639.902C36.8565 639.385 36.117 638.8 35.4151 638.151Z" fill="url(#paint13_linear_4455_13552)"/>
<path d="M35.4151 638.151L35.9543 637.567L35.3088 636.971L34.7802 637.673L35.4151 638.151ZM-1.76089 648.595L-1.35031 647.915L-1.35031 647.915L-1.76089 648.595ZM-16.2932 587.658L-15.5439 587.922L-16.2932 587.658ZM-13.0108 580.069L-12.3061 580.436L-12.2463 580.322L-12.226 580.194L-13.0108 580.069ZM-11.4913 574.049L-10.7419 574.313L-10.7419 574.313L-11.4913 574.049ZM25.2532 560.56L25.6638 559.88L25.6638 559.88L25.2532 560.56ZM26.9593 561.665L26.5065 562.318L26.55 562.348L26.597 562.373L26.9593 561.665ZM28.5916 562.575L29.0022 561.895L29.0022 561.895L28.5916 562.575ZM46.4928 595.944L45.7018 596.02L45.7687 596.714L46.4658 596.738L46.4928 595.944ZM52.5978 597.522L52.2418 598.233L52.6555 598.44L53.04 598.182L52.5978 597.522ZM55.5626 595.955L55.8579 596.693L55.9206 596.668L55.9782 596.632L55.5626 595.955ZM80.306 590.651L80.202 591.439L80.202 591.439L80.306 590.651ZM113.337 635.113L112.549 635.009L112.549 635.009L113.337 635.113ZM112.662 638.879L111.887 638.703L111.713 639.467L112.475 639.652L112.662 638.879ZM123.754 644.547L124.264 643.938L124.264 643.938L123.754 644.547ZM129.477 694.314L128.807 693.888L128.807 693.888L129.477 694.314ZM86.4186 703.268L86.9286 702.659L86.9286 702.659L86.4186 703.268ZM82.9056 699.806L83.5069 699.287L83.1133 698.831L82.5683 699.087L82.9056 699.806ZM63.6403 668.1L64.3483 668.461L64.7762 667.621L63.876 667.341L63.6403 668.1ZM37.6285 639.902L38.4011 639.716L38.3284 639.414L38.0704 639.241L37.6285 639.902ZM34.7802 637.673C24.9686 650.706 10.7193 655.198 -1.35031 647.915L-2.17147 649.276C10.8131 657.111 25.9177 652.087 36.05 638.629L34.7802 637.673ZM-1.35031 647.915C-9.31839 643.107 -14.953 634.027 -17.55 623.137C-20.1446 612.257 -19.6834 599.654 -15.5439 587.922L-17.0426 587.393C-21.2847 599.415 -21.7611 612.33 -19.096 623.506C-16.4334 634.671 -10.611 644.183 -2.17147 649.276L-1.35031 647.915ZM-15.5439 587.922C-14.605 585.261 -13.5182 582.762 -12.3061 580.436L-13.7155 579.702C-14.9633 582.096 -16.0797 584.664 -17.0426 587.393L-15.5439 587.922ZM-12.226 580.194C-11.9076 578.192 -11.4158 576.223 -10.7419 574.313L-12.2407 573.784C-12.9479 575.788 -13.4627 577.851 -13.7956 579.944L-12.226 580.194ZM-10.7419 574.313C-7.94816 566.395 -2.5641 561.017 3.84193 558.666C10.2467 556.315 17.7496 556.961 24.8426 561.241L25.6638 559.88C18.1929 555.372 10.1884 554.643 3.29424 557.174C-3.59861 559.704 -9.30486 565.464 -12.2407 573.784L-10.7419 574.313ZM24.8426 561.241C25.4086 561.582 25.9634 561.942 26.5065 562.318L27.412 561.012C26.8417 560.617 26.2589 560.239 25.6638 559.88L24.8426 561.241ZM26.597 562.373C27.1281 562.645 27.6563 562.939 28.181 563.255L29.0022 561.895C28.4463 561.559 27.8859 561.247 27.3215 560.958L26.597 562.373ZM28.181 563.255C38.0404 569.205 44.3229 581.698 45.7018 596.02L47.2838 595.868C45.8758 581.243 39.4377 568.192 29.0022 561.895L28.181 563.255ZM46.4658 596.738C48.4938 596.807 50.438 597.329 52.2418 598.233L52.9539 596.812C50.9574 595.811 48.7899 595.227 46.5199 595.15L46.4658 596.738ZM53.04 598.182C53.9359 597.583 54.8792 597.085 55.8579 596.693L55.2673 595.217C54.184 595.651 53.1424 596.201 52.1557 596.862L53.04 598.182ZM55.9782 596.632C63.0317 592.305 71.4716 590.286 80.202 591.439L80.4101 589.864C71.3009 588.66 62.4962 590.769 55.1471 595.278L55.9782 596.632ZM80.202 591.439C100.862 594.168 115.369 613.655 112.549 635.009L114.125 635.217C117.054 613.038 101.985 592.713 80.4101 589.864L80.202 591.439ZM112.549 635.009C112.383 636.263 112.161 637.495 111.887 638.703L113.437 639.055C113.722 637.8 113.952 636.519 114.125 635.217L112.549 635.009ZM112.475 639.652C116.263 640.568 119.93 642.384 123.244 645.157L124.264 643.938C120.766 641.011 116.879 639.082 112.848 638.107L112.475 639.652ZM123.244 645.157C136.367 656.136 138.933 677.961 128.807 693.888L130.148 694.741C140.641 678.237 138.082 655.499 124.264 643.938L123.244 645.157ZM128.807 693.888C118.709 709.769 99.9697 713.569 86.9286 702.659L85.9087 703.878C99.8091 715.507 119.626 711.29 130.148 694.741L128.807 693.888ZM86.9286 702.659C85.694 701.626 84.5529 700.497 83.5069 699.287L82.3044 700.326C83.4048 701.599 84.6068 702.788 85.9087 703.878L86.9286 702.659ZM82.5683 699.087C80.9276 699.856 79.1648 700.273 77.33 700.273V701.862C79.4104 701.862 81.4027 701.389 83.243 700.526L82.5683 699.087ZM77.33 700.273C68.8936 700.273 61.7292 691.313 61.7292 679.805H60.1398C60.1398 691.782 67.6564 701.862 77.33 701.862V700.273ZM61.7292 679.805C61.7292 675.601 62.6973 671.702 64.3483 668.461L62.9322 667.74C61.1629 671.213 60.1398 675.36 60.1398 679.805H61.7292ZM63.876 667.341C51.1079 663.374 41.5346 652.726 38.4011 639.716L36.8559 640.088C40.1139 653.615 50.075 664.718 63.4045 668.859L63.876 667.341ZM38.0704 639.241C37.3342 638.749 36.6271 638.189 35.9543 637.567L34.8759 638.735C35.6069 639.41 36.3788 640.022 37.1867 640.562L38.0704 639.241Z" fill="url(#paint14_linear_4455_13552)" mask="url(#path-16-inside-1_4455_13552)"/>
<mask id="path-18-inside-2_4455_13552" fill="white">
<path fill-rule="evenodd" clip-rule="evenodd" d="M151.671 896.089C130.129 896.089 111.093 882.371 99.6161 861.396C91.5883 867.02 82.2483 870.244 72.2807 870.244C52.6211 870.244 35.4027 857.705 25.8789 838.931C2.58371 832.408 -15.0733 806.006 -16.2039 773.963C-55.0794 762.078 -76.1094 719.855 -63.2964 678.472C-50.2405 636.306 -6.99032 610.98 33.3055 621.907C63.9685 630.221 84.0852 657.131 86.1982 688.101C88.1344 687.396 90.1417 686.943 92.2059 686.766C98.582 686.218 104.683 688.375 110.021 692.583C117.065 683.657 126.654 677.776 137.44 676.85C147.065 676.024 156.138 679.272 163.577 685.413C171.006 678.697 180.275 674.329 190.475 673.453C216.415 671.226 238.643 692.424 240.466 720.935C242.749 720.971 245.045 721.219 247.333 721.693C265.942 725.548 278.062 743.106 277.652 763.333C281.371 765.103 285.61 767.407 290.5 770.426C293.267 772.134 295.074 773.97 296.879 775.804C296.959 775.884 297.038 775.964 297.117 776.045C305.883 779.158 314.509 781.77 322.662 782.369C342.013 783.789 368.426 788.8 389.198 792.742C399.05 794.611 407.634 796.24 413.594 797.13L302.261 803.424C290.636 814.335 273.345 827.601 261.578 836.065L233.19 814.643C228.661 817.695 223.315 819.457 217.59 819.457C216.738 819.457 215.894 819.418 215.06 819.342C213.269 862.113 185.574 896.089 151.671 896.089Z"/>
</mask>
<path fill-rule="evenodd" clip-rule="evenodd" d="M151.671 896.089C130.129 896.089 111.093 882.371 99.6161 861.396C91.5883 867.02 82.2483 870.244 72.2807 870.244C52.6211 870.244 35.4027 857.705 25.8789 838.931C2.58371 832.408 -15.0733 806.006 -16.2039 773.963C-55.0794 762.078 -76.1094 719.855 -63.2964 678.472C-50.2405 636.306 -6.99032 610.98 33.3055 621.907C63.9685 630.221 84.0852 657.131 86.1982 688.101C88.1344 687.396 90.1417 686.943 92.2059 686.766C98.582 686.218 104.683 688.375 110.021 692.583C117.065 683.657 126.654 677.776 137.44 676.85C147.065 676.024 156.138 679.272 163.577 685.413C171.006 678.697 180.275 674.329 190.475 673.453C216.415 671.226 238.643 692.424 240.466 720.935C242.749 720.971 245.045 721.219 247.333 721.693C265.942 725.548 278.062 743.106 277.652 763.333C281.371 765.103 285.61 767.407 290.5 770.426C293.267 772.134 295.074 773.97 296.879 775.804C296.959 775.884 297.038 775.964 297.117 776.045C305.883 779.158 314.509 781.77 322.662 782.369C342.013 783.789 368.426 788.8 389.198 792.742C399.05 794.611 407.634 796.24 413.594 797.13L302.261 803.424C290.636 814.335 273.345 827.601 261.578 836.065L233.19 814.643C228.661 817.695 223.315 819.457 217.59 819.457C216.738 819.457 215.894 819.418 215.06 819.342C213.269 862.113 185.574 896.089 151.671 896.089Z" fill="url(#paint15_linear_4455_13552)"/>
<path d="M99.6161 861.396L100.314 860.993L99.902 860.24L99.1783 860.748L99.6161 861.396ZM151.671 896.089L151.699 895.292L151.699 895.292L151.671 896.089ZM72.2807 870.244L72.3086 869.447L72.3086 869.447L72.2807 870.244ZM25.8789 838.931L26.5879 838.55L26.4374 838.253L26.1164 838.163L25.8789 838.931ZM-16.2039 773.963L-15.4117 773.907L-15.431 773.358L-15.949 773.2L-16.2039 773.963ZM-63.2964 678.472L-64.0527 678.26L-63.2964 678.472ZM33.3055 621.907L33.0741 622.676L33.0741 622.676L33.3055 621.907ZM86.1982 688.101L85.4072 688.183L85.4767 689.201L86.4447 688.848L86.1982 688.101ZM110.021 692.583L109.518 693.216L110.133 693.701L110.636 693.064L110.021 692.583ZM163.577 685.413L163.061 686.036L163.579 686.464L164.095 685.997L163.577 685.413ZM240.466 720.935L239.675 721.014L239.72 721.72L240.425 721.731L240.466 720.935ZM247.333 721.693L247.147 722.474L247.147 722.474L247.333 721.693ZM277.652 763.333L276.859 763.345L276.849 763.844L277.292 764.055L277.652 763.333ZM290.5 770.426L290.932 769.743L290.932 769.743L290.5 770.426ZM296.879 775.804L297.453 775.233L297.453 775.233L296.879 775.804ZM297.117 776.045L296.544 776.615L296.666 776.738L296.829 776.797L297.117 776.045ZM322.662 782.369L322.576 783.163L322.576 783.163L322.662 782.369ZM389.198 792.742L389.024 793.525L389.024 793.525L389.198 792.742ZM413.594 797.13L413.61 797.926L413.737 796.342L413.594 797.13ZM302.261 803.424L302.244 802.628L301.949 802.645L301.731 802.851L302.261 803.424ZM261.578 836.065L261.088 836.708L261.544 837.053L262.024 836.708L261.578 836.065ZM233.19 814.643L233.681 814L233.239 813.667L232.765 813.986L233.19 814.643ZM217.59 819.457L217.617 818.661L217.617 818.661L217.59 819.457ZM215.06 819.342L215.16 818.549L214.304 818.47L214.268 819.336L215.06 819.342ZM98.9183 861.798C110.49 882.947 129.746 896.886 151.643 896.886L151.699 895.292C130.511 895.292 111.696 881.796 100.314 860.993L98.9183 861.798ZM72.2529 871.04C82.3961 871.04 91.8975 867.759 100.054 862.044L99.1783 860.748C91.2791 866.282 82.1005 869.447 72.3086 869.447L72.2529 871.04ZM25.17 839.312C34.7925 858.281 52.2399 871.04 72.2529 871.04L72.3086 869.447C53.0023 869.447 36.0129 857.129 26.5879 838.55L25.17 839.312ZM-16.9962 774.019C-15.8576 806.289 1.93206 833.06 25.6414 839.699L26.1164 838.163C3.23537 831.756 -14.289 805.723 -15.4117 773.907L-16.9962 774.019ZM-64.0527 678.26C-76.9881 720.038 -55.7634 762.71 -16.4589 774.726L-15.949 773.2C-54.3954 761.447 -75.2307 719.671 -62.5401 678.684L-64.0527 678.26ZM33.537 621.137C-7.19816 610.092 -50.8735 635.696 -64.0527 678.26L-62.5401 678.684C-49.6074 636.916 -6.78248 611.869 33.0741 622.676L33.537 621.137ZM86.9891 688.018C84.8553 656.743 64.5358 629.542 33.537 621.137L33.0741 622.676C63.4013 630.899 83.3151 657.519 85.4072 688.183L86.9891 688.018ZM92.166 685.972C90.0298 686.155 87.9531 686.624 85.9516 687.353L86.4447 688.848C88.3157 688.168 90.2535 687.73 92.2457 687.559L92.166 685.972ZM110.524 691.95C105.065 687.646 98.7754 685.405 92.166 685.972L92.2457 687.559C98.3887 687.032 104.302 689.105 109.518 693.216L110.524 691.95ZM137.4 676.057C126.355 677.005 116.569 683.026 109.407 692.102L110.636 693.064C117.562 684.288 126.953 678.548 137.48 677.644L137.4 676.057ZM164.093 684.791C156.522 678.541 147.255 675.211 137.4 676.057L137.48 677.644C146.875 676.838 155.755 680.004 163.061 686.036L164.093 684.791ZM190.435 672.659C180.047 673.551 170.612 678.001 163.058 684.83L164.095 685.997C171.401 679.393 180.504 675.106 190.515 674.247L190.435 672.659ZM241.257 720.856C239.411 691.985 216.878 670.389 190.435 672.659L190.515 674.247C215.952 672.063 237.875 692.863 239.675 721.014L241.257 720.856ZM247.519 720.913C245.183 720.429 242.839 720.175 240.506 720.138L240.425 721.731C242.66 721.767 244.907 722.01 247.147 722.474L247.519 720.913ZM278.445 763.321C278.861 742.782 266.547 724.854 247.519 720.913L247.147 722.474C265.337 726.242 277.263 743.429 276.859 763.345L278.445 763.321ZM290.932 769.743C286.023 766.713 281.759 764.394 278.012 762.611L277.292 764.055C280.983 765.811 285.198 768.102 290.068 771.109L290.932 769.743ZM297.453 775.233C295.647 773.399 293.784 771.504 290.932 769.743L290.068 771.109C292.75 772.764 294.501 774.54 296.306 776.374L297.453 775.233ZM297.69 775.474C297.611 775.394 297.532 775.314 297.453 775.233L296.306 776.374C296.385 776.454 296.465 776.535 296.544 776.615L297.69 775.474ZM322.747 781.574C314.705 780.984 306.162 778.403 297.404 775.292L296.829 776.797C305.604 779.913 314.313 782.556 322.576 783.163L322.747 781.574ZM389.371 791.959C368.614 788.02 342.153 782.999 322.747 781.574L322.576 783.163C341.873 784.58 368.237 789.581 389.024 793.525L389.371 791.959ZM413.737 796.342C407.796 795.455 399.231 793.829 389.371 791.959L389.024 793.525C398.87 795.393 407.472 797.025 413.45 797.918L413.737 796.342ZM302.277 804.219L413.61 797.926L413.577 796.335L302.244 802.628L302.277 804.219ZM262.024 836.708C273.801 828.236 291.127 814.946 302.791 803.997L301.731 802.851C290.146 813.725 272.889 826.966 261.132 835.423L262.024 836.708ZM232.7 815.286L261.088 836.708L262.068 835.422L233.681 814L232.7 815.286ZM217.562 820.254C223.453 820.254 228.956 818.44 233.616 815.3L232.765 813.986C228.366 816.95 223.177 818.661 217.617 818.661L217.562 820.254ZM214.961 820.135C215.818 820.214 216.686 820.254 217.562 820.254L217.617 818.661C216.789 818.661 215.97 818.623 215.16 818.549L214.961 820.135ZM151.643 896.886C186.148 896.886 214.051 862.368 215.852 819.347L214.268 819.336C212.488 861.858 185 895.292 151.699 895.292L151.643 896.886Z" fill="url(#paint16_linear_4455_13552)" mask="url(#path-18-inside-2_4455_13552)"/>
<path d="M611.035 792.024C596.307 691.395 492.78 644.721 395.889 611.762C534.851 649.355 621.187 701.782 636.391 792.024L611.035 792.024Z" fill="url(#paint17_linear_4455_13552)" stroke="url(#paint18_linear_4455_13552)" stroke-width="0.794677"/>
<path d="M334.1 518.556C288.407 507.86 301.525 477.532 314.958 472.323C298.818 471.583 292.252 477.596 291.797 481.287C288.578 482.932 275.551 489.277 276.698 499.161C279.649 519.572 318.488 520.401 334.1 518.556Z" fill="url(#paint19_linear_4455_13552)" fill-opacity="0.5"/>
<path fill-rule="evenodd" clip-rule="evenodd" d="M359.453 703.215C365.007 704.548 371.057 705.222 377.4 705.106C384.387 708.058 392.818 709.618 401.903 709.274C408.577 709.022 414.908 707.77 420.583 705.743C425.121 706.606 430.002 706.985 435.086 706.792C446.107 706.376 456.197 703.352 463.946 698.69C497.297 701.197 596.653 663.901 644.03 644.115C585.093 666.777 512.354 668.037 476.003 665.439C469.434 655.275 453.753 648.547 435.411 649.24C431.096 649.403 426.924 649.966 422.979 650.87C414.043 641.255 397.84 635.222 379.3 635.922C353.665 636.891 332.356 650.401 328.499 667.132C316.087 670.82 307.391 678.464 307.343 686.975C307.278 698.462 322.986 707.177 342.428 706.442C348.598 706.209 354.402 705.052 359.453 703.215Z" fill="url(#paint20_linear_4455_13552)"/>
<path fill-rule="evenodd" clip-rule="evenodd" d="M-22.788 350.659C-22.2023 354.792 -20.9738 358.779 -19.0626 362.419C-19.2923 368.457 -18.0509 374.422 -15.1791 379.519C-13.0698 383.262 -10.3007 386.146 -7.13311 388.135C-6.48326 391.363 -5.36717 394.471 -3.75996 397.323C-0.276656 403.505 4.91598 407.424 10.6767 408.893C18.363 430.082 75.1914 463.721 103.806 478.445C69.6884 458.845 47.8257 417.062 39.3465 394.056C45.1623 383.514 45.7549 369.895 39.9575 359.607C38.5937 357.187 36.9678 355.114 35.1484 353.398C39.868 341.83 39.7838 328.365 33.9234 317.965C25.8205 303.586 9.45568 300 -4.33523 308.761C-10.698 303.918 -18.9919 303.859 -25.4573 309.436C-34.1822 316.964 -36.2733 331.906 -30.128 342.812C-28.1779 346.272 -25.6329 348.911 -22.788 350.659Z" fill="url(#paint21_linear_4455_13552)"/>
<path d="M-19.0626 362.419L-18.7045 362.409L-18.6994 362.278L-18.756 362.17L-19.0626 362.419ZM-22.788 350.659L-22.4344 350.558L-22.4625 350.361L-22.6084 350.271L-22.788 350.659ZM-7.13311 388.135L-6.78434 388.006L-6.81968 387.831L-6.95094 387.749L-7.13311 388.135ZM10.6767 408.893L11.0068 408.698L10.9395 408.512L10.7734 408.47L10.6767 408.893ZM103.806 478.445L103.647 478.844L103.978 478.051L103.806 478.445ZM39.3465 394.056L39.0521 393.834L38.9383 394.04L39.0171 394.254L39.3465 394.056ZM35.1484 353.398L34.8287 353.229L34.7006 353.543L34.9159 353.746L35.1484 353.398ZM-4.33523 308.761L-4.54093 309.131L-4.37245 309.259L-4.18554 309.141L-4.33523 308.761ZM-25.4573 309.436L-25.6523 309.09L-25.4573 309.436ZM-18.756 362.17C-20.6431 358.576 -21.8561 354.639 -22.4344 350.558L-23.1416 350.76C-22.5485 354.944 -21.3045 358.982 -19.3693 362.668L-18.756 362.17ZM-14.8783 379.259C-17.7073 374.239 -18.9309 368.361 -18.7045 362.409L-19.4208 362.428C-19.6538 368.552 -18.3946 374.606 -15.48 379.778L-14.8783 379.259ZM-6.95094 387.749C-10.0722 385.788 -12.8002 382.947 -14.8783 379.259L-15.48 379.778C-13.3395 383.577 -10.5291 386.504 -7.31529 388.522L-6.95094 387.749ZM-3.45911 397.064C-5.04373 394.251 -6.14382 391.188 -6.78434 388.006L-7.48189 388.264C-6.82271 391.538 -5.6906 394.69 -4.06081 397.583L-3.45911 397.064ZM10.7734 408.47C5.09283 407.02 -0.0254703 403.157 -3.45911 397.064L-4.06081 397.583C-0.527841 403.852 4.73913 407.827 10.58 409.317L10.7734 408.47ZM10.3466 409.089C12.3044 414.486 17.3581 420.613 24.2164 426.979C31.0886 433.358 39.8212 440.019 49.2001 446.473C67.9587 459.381 89.3315 471.479 103.647 478.844L103.966 478.045C89.6663 470.687 68.3175 458.603 49.5866 445.714C40.2206 439.269 31.5165 432.628 24.6774 426.28C17.8244 419.919 12.8921 413.895 11.0068 408.698L10.3466 409.089ZM103.978 478.051C69.9608 458.509 48.1403 416.825 39.6758 393.859L39.0171 394.254C47.511 417.3 69.4161 459.18 103.635 478.838L103.978 478.051ZM39.6567 359.867C45.3705 370.007 44.7894 383.434 39.0521 393.834L39.6408 394.279C45.5352 383.594 46.1393 369.784 40.2584 359.348L39.6567 359.867ZM34.9159 353.746C36.7092 355.437 38.3119 357.481 39.6567 359.867L40.2584 359.348C38.8754 356.894 37.2264 354.791 35.3808 353.051L34.9159 353.746ZM33.6225 318.224C39.4073 328.49 39.4956 341.79 34.8287 353.229L35.468 353.568C40.2404 341.87 40.1602 328.239 34.2242 317.705L33.6225 318.224ZM-4.18554 309.141C9.45843 300.473 25.6252 304.032 33.6225 318.224L34.2242 317.705C26.0159 303.139 9.45293 299.527 -4.48491 308.381L-4.18554 309.141ZM-25.2622 309.783C-18.9349 304.324 -10.8 304.368 -4.54093 309.131L-4.12953 308.39C-10.596 303.469 -19.0488 303.393 -25.6523 309.09L-25.2622 309.783ZM-29.8271 342.552C-35.8802 331.81 -33.798 317.147 -25.2622 309.783L-25.6523 309.09C-34.5663 316.781 -36.6664 332.002 -30.4288 343.071L-29.8271 342.552ZM-22.6084 350.271C-25.4046 348.552 -27.908 345.958 -29.8271 342.552L-30.4288 343.071C-28.4478 346.587 -25.8611 349.269 -22.9676 351.048L-22.6084 350.271Z" fill="url(#paint22_linear_4455_13552)"/>
<g filter="url(#filter1_f_4455_13552)">
<path fill-rule="evenodd" clip-rule="evenodd" d="M76.6483 99.0783C79.0342 103.198 82.1512 106.094 85.296 107.478C84.273 113.683 85.5286 121.01 89.1648 127.288C92.7601 133.496 97.8843 137.301 102.903 138.147C104.259 140.371 105.758 142.316 107.328 143.945C107.391 144.163 107.459 144.386 107.531 144.614C110.793 154.876 134.593 171.981 155.157 186.759C164.174 193.24 172.569 199.273 178.337 204.086C156.425 184.643 134.885 158.86 126.487 142.813C128.306 136.74 126.832 127.744 122.243 119.82C121.766 118.997 121.27 118.209 120.757 117.459C127.443 109.018 127.929 94.5534 121.453 83.3722C114.302 71.0253 101.371 67.3575 92.5694 75.1799C91.7542 75.9044 91.0031 76.702 90.3168 77.5629C85.7918 73.3975 80.4392 72.4386 76.7556 75.7125C71.7825 80.1325 71.7345 90.5937 76.6483 99.0783Z" fill="url(#paint23_linear_4455_13552)" fill-opacity="0.5"/>
</g>
<g filter="url(#filter2_f_4455_13552)">
<path fill-rule="evenodd" clip-rule="evenodd" d="M707.499 399.26C704.284 400.592 701.172 400.987 698.706 400.551C696.594 404.298 692.642 407.792 687.742 409.823C682.896 411.831 678.199 411.961 674.86 410.529C673.084 411.223 671.346 411.711 669.703 412.002C669.57 412.097 669.433 412.192 669.29 412.288C660.05 418.515 618.681 422.156 600.575 423.58C622.031 421.306 646.707 410.598 658.82 404.293C660.353 400.286 665.2 395.907 671.447 393.318C672.09 393.052 672.728 392.812 673.36 392.599C673.102 385.509 679.149 377.492 687.876 373.876C697.513 369.883 706.768 372.768 708.548 380.319C708.713 381.019 708.808 381.734 708.837 382.459C713.338 381.907 716.924 383.404 717.669 386.565C718.675 390.832 714.122 396.516 707.499 399.26Z" fill="url(#paint24_linear_4455_13552)" fill-opacity="0.5"/>
</g>
<path fill-rule="evenodd" clip-rule="evenodd" d="M681.989 589.719C684.437 589.774 686.996 589.435 689.564 588.659C692.821 589.38 696.472 589.226 700.127 588.024C702.812 587.141 705.218 585.785 707.25 584.108C709.219 584.037 711.26 583.679 713.305 583.006C717.739 581.549 721.431 578.862 723.944 575.603C737.882 573.118 773.203 542.821 789.768 527.351C768.891 545.598 739.424 554.458 724.251 557.235C720.166 552.779 712.843 551.109 705.465 553.535C703.729 554.106 702.107 554.865 700.625 555.773C695.651 551.864 688.213 550.609 680.754 553.061C670.442 556.452 663.63 565.768 664.376 574.761C659.829 578.049 657.344 582.941 658.504 587.299C660.069 593.181 667.677 595.865 675.498 593.293C677.98 592.477 680.185 591.23 681.989 589.719Z" fill="url(#paint25_linear_4455_13552)"/>
<path d="M689.564 588.659L689.664 588.265L689.568 588.243L689.471 588.272L689.564 588.659ZM681.989 589.719L682.016 589.316L681.869 589.313L681.751 589.411L681.989 589.719ZM707.25 584.108L707.255 583.704L707.121 583.709L707.015 583.797L707.25 584.108ZM723.944 575.603L723.895 575.205L723.741 575.233L723.642 575.361L723.944 575.603ZM789.768 527.351L790.023 527.644L789.524 527.048L789.768 527.351ZM724.251 557.235L723.961 557.52L724.098 557.669L724.301 557.632L724.251 557.235ZM700.625 555.773L700.379 556.098L700.582 556.258L700.812 556.117L700.625 555.773ZM680.754 553.061L680.652 552.677L680.652 552.677L680.754 553.061ZM664.376 574.761L664.59 575.088L664.786 574.947L664.766 574.708L664.376 574.761ZM689.471 588.272C686.942 589.036 684.424 589.37 682.016 589.316L681.961 590.123C684.45 590.178 687.049 589.834 689.657 589.046L689.471 588.272ZM700.025 587.64C696.435 588.82 692.853 588.971 689.664 588.265L689.465 589.054C692.788 589.79 696.509 589.631 700.229 588.408L700.025 587.64ZM707.015 583.797C705.023 585.442 702.662 586.773 700.025 587.64L700.229 588.408C702.961 587.509 705.413 586.129 707.485 584.418L707.015 583.797ZM713.203 582.622C711.193 583.284 709.188 583.635 707.255 583.704L707.245 584.511C709.25 584.439 711.327 584.074 713.408 583.39L713.203 582.622ZM723.642 575.361C721.184 578.551 717.562 581.189 713.203 582.622L713.408 583.39C717.915 581.908 721.679 579.174 724.245 575.845L723.642 575.361ZM723.992 576.001C727.557 575.365 732.435 572.968 737.969 569.534C743.516 566.092 749.768 561.579 756.096 556.665C768.752 546.836 781.733 535.386 790.023 527.644L789.514 527.058C781.238 534.787 768.276 546.219 755.645 556.028C749.33 560.933 743.103 565.427 737.59 568.848C732.063 572.277 727.299 574.599 723.895 575.205L723.992 576.001ZM789.524 527.048C768.728 545.225 739.343 554.066 724.201 556.838L724.301 557.632C739.504 554.85 769.054 545.971 790.013 527.654L789.524 527.048ZM705.567 553.919C712.83 551.531 719.991 553.19 723.961 557.52L724.541 556.95C720.34 552.368 712.857 550.687 705.363 553.151L705.567 553.919ZM700.812 556.117C702.267 555.226 703.861 554.48 705.567 553.919L705.363 553.151C703.598 553.731 701.947 554.504 700.437 555.428L700.812 556.117ZM680.857 553.445C688.206 551.029 695.512 552.274 700.379 556.098L700.871 555.447C695.79 551.455 688.219 550.189 680.652 552.677L680.857 553.445ZM664.766 574.708C664.039 565.951 670.683 556.791 680.857 553.445L680.652 552.677C670.201 556.114 663.221 565.586 663.987 574.815L664.766 574.708ZM658.881 587.175C657.782 583.044 660.124 578.317 664.59 575.088L664.162 574.434C659.534 577.781 656.906 582.837 658.126 587.424L658.881 587.175ZM675.396 592.909C671.558 594.171 667.787 594.138 664.797 593.084C661.807 592.029 659.624 589.966 658.881 587.175L658.126 587.424C658.949 590.515 661.352 592.734 664.513 593.849C667.674 594.964 671.617 594.987 675.6 593.677L675.396 592.909ZM681.751 589.411C679.989 590.886 677.83 592.108 675.396 592.909L675.6 593.677C678.129 592.845 680.381 591.573 682.226 590.028L681.751 589.411Z" fill="url(#paint26_linear_4455_13552)"/>
<path d="M294.045 307.238C300.358 334.526 317.024 365.712 324.568 377.894C321.625 383.581 313.739 393.952 305.745 389.935C298.607 386.349 293.949 385.549 292.006 385.591C291.836 385.73 291.6 385.708 291.424 385.64C291.579 385.614 291.773 385.597 292.006 385.591C292.211 385.424 292.319 385.022 292.105 384.184C291.618 382.273 286.532 382.146 283.648 383.195C281.34 384.034 278.234 387.059 276.97 388.466C277.054 388.262 277.193 387.782 277.083 387.499C278.621 379.753 283.487 374.438 285.728 372.749C281.301 372.009 277.484 374.488 275.455 376.157C270.057 381.406 266.438 380.679 264.053 380.2L264.034 380.196C261.649 379.717 252.874 373.087 253.428 368.35L254.075 362.822C254.02 353.311 251.301 355.619 249.913 355.457C248.525 355.295 249.285 354.057 250.228 352.758C251.172 351.459 252.785 353.831 252.346 352.125C251.907 350.418 249.729 347.882 247.806 347.657C235.386 349.347 226.723 348.782 215.08 343.828C195.137 335.21 168.805 308.051 168.737 307.073C168.684 306.29 168.539 305.861 168.474 305.745C153.183 296.735 141.694 284.797 137.862 279.954L137.95 279.197C134.002 277.141 122.995 268.825 116.38 263.682C115.552 263.106 114.834 262.549 114.251 262.017C114.887 262.518 115.604 263.078 116.38 263.682C123.432 268.585 138.432 274.779 145.761 277.513C140.211 274.672 129.752 263.397 124.6 257.413C124.295 257.104 124.069 256.841 123.931 256.629C124.142 256.879 124.366 257.14 124.6 257.413C128.477 261.333 145.014 272.563 153.385 278.067L154.33 278.177C135.313 263.838 116.211 241.155 109.038 231.605C113.47 237.3 135.196 254.89 149.787 266.343C139.084 255.247 125.541 231.001 128.247 233.853C131.537 237.32 142.15 256.42 168.847 272.011C195.544 287.602 239.941 293.207 256.095 293.708C272.249 294.208 292.098 300.881 294.045 307.238Z" fill="url(#paint27_linear_4455_13552)"/>
<path d="M234.577 342.93C237.571 343.454 245.649 343.809 254.012 341.039" stroke="url(#paint28_linear_4455_13552)" stroke-width="0.556274" stroke-linecap="round"/>
<path d="M137.548 279.418C149.611 294.646 184.479 324.12 227.445 320.196" stroke="url(#paint29_linear_4455_13552)" stroke-width="0.794677"/>
<path d="M168.816 307.233C178.846 318.324 203.933 341.805 224.038 347.006C228.009 347.64 238.293 348.724 247.657 347.989C250.318 348.3 259.845 359.078 258.611 367.325" stroke="url(#paint30_linear_4455_13552)" stroke-width="0.794677" stroke-linecap="round"/>
<path d="M250.56 355.449C252.6 354.924 256.03 356.648 253.438 367.737C252.969 371.75 258.53 377.232 262.345 379.205C266.16 381.177 269.833 380.226 272.1 378.82C274.393 377.398 279.425 371.54 285.752 372.789C282.876 375.08 277.127 381.493 277.133 388.817C278.688 385.524 283.202 378.441 288.829 376.455" stroke="url(#paint31_linear_4455_13552)" stroke-width="0.794677" stroke-linecap="round"/>
<path d="M283.425 383.451C284.942 382.781 288.585 381.766 291.022 383.068C293.459 384.37 291.842 385.283 290.729 385.577C292.916 385.324 300.008 386.291 306.018 390.249" stroke="url(#paint32_linear_4455_13552)" stroke-width="0.794677" stroke-linecap="round"/>
<path d="M198.665 298.774L198.984 299.011L199.372 298.486L198.728 298.382L198.665 298.774ZM193.039 298.404C192.826 298.353 192.611 298.485 192.56 298.698C192.509 298.912 192.641 299.126 192.854 299.177L193.039 298.404ZM182.748 292.962C184.408 293.839 187.187 295.198 190.137 296.432C193.078 297.663 196.222 298.785 198.601 299.167L198.728 298.382C196.447 298.016 193.377 296.927 190.443 295.699C187.518 294.475 184.761 293.126 183.119 292.26L182.748 292.962ZM198.345 298.538C198.342 298.542 198.158 298.781 197.383 298.882C196.607 298.982 195.274 298.938 193.039 298.404L192.854 299.177C195.138 299.722 196.576 299.788 197.486 299.67C198.397 299.551 198.813 299.242 198.984 299.011L198.345 298.538Z" fill="url(#paint33_linear_4455_13552)"/>
<path d="M193.991 321.356C197.979 324.241 220.196 326.009 229.134 322.06C238.288 317.73 229.201 320.205 226.777 320.247" stroke="url(#paint34_linear_4455_13552)" stroke-width="0.794677"/>
<path d="M115.211 262.732C114.751 262.364 114.345 262.006 114.003 261.661C114.368 261.993 114.771 262.35 115.211 262.732Z" fill="url(#paint35_linear_4455_13552)"/>
<path d="M153.834 278.527C145.159 272.765 127.144 260.452 124.493 257.294C121.179 253.346 135.975 272.114 146.119 277.624C137.504 274.412 119.021 266.723 114.003 261.661C120.748 267.79 140.4 282.702 165.05 293.316" stroke="url(#paint36_linear_4455_13552)" stroke-width="0.794677"/>
<path d="M152.343 268.257C153.86 269.549 155.406 270.699 156.967 271.662C155.731 270.779 154.172 269.634 152.343 268.257Z" fill="url(#paint37_linear_4455_13552)"/>
<path d="M324.542 378.394C316.584 365.368 302.001 336.481 294.495 309.098C292.128 299.621 275.815 297.173 263.517 294.655C251.219 292.136 171.609 292.536 136.563 244.723C132.631 239.72 129.575 236.534 127.6 233.272C125.624 230.011 140.377 261.437 156.967 271.662C149.188 266.105 128.619 250.202 108.573 231.046C122.987 250.714 160.263 291.847 194.053 299.034" stroke="url(#paint38_linear_4455_13552)" stroke-width="0.794677" stroke-linecap="round"/>
<path d="M285.729 358.47C292.879 360.431 298.48 367.069 302.433 370.785C299.023 362.796 295.591 359.814 292.451 357.811C288.289 355.155 280.924 357.152 285.729 358.47Z" fill="url(#paint39_linear_4455_13552)" stroke="url(#paint40_linear_4455_13552)" stroke-width="0.556274" stroke-linecap="round"/>
<path d="M295.492 340.102C301.147 341.199 311.198 353.222 307.987 367.497" stroke="url(#paint41_linear_4455_13552)" stroke-width="0.556274" stroke-linecap="round"/>
<path d="M295.403 340.102C301.926 345.464 309.509 358.256 307.766 369.162" stroke="url(#paint42_linear_4455_13552)" stroke-width="0.556274" stroke-linecap="round"/>
<path d="M448.876 378.189C428.186 392.378 397.377 400.419 384.559 402.666C383.475 409.308 383.407 423.6 391.808 427.623C399.309 431.216 403.305 434.671 404.754 436.382C404.802 436.629 404.993 436.817 405.167 436.92C405.065 436.768 404.928 436.588 404.754 436.382C404.696 436.084 404.849 435.701 405.498 435.283C406.982 434.328 410.911 438.637 412.486 441.888C413.746 444.488 414.337 449.354 414.475 451.462C414.531 451.242 414.705 450.776 414.953 450.667C418.303 443.758 417.712 435.72 416.998 432.565C420.785 435.863 422.233 440.95 422.798 443.908C423.83 452.358 426.998 454.966 429.085 456.685L429.101 456.698C431.188 458.416 441.704 461.234 444.045 457.342L446.776 452.802C452.361 445.999 453.077 450.015 454.224 451.099C455.371 452.183 455.515 450.634 455.558 448.882C455.6 447.13 452.994 447.443 454.322 446.594C455.649 445.744 458.778 445.802 460.367 447.304C468.796 459.266 475.692 466.356 487.404 472.861C507.544 483.909 543.334 487.132 543.955 486.486C544.451 485.969 544.811 485.785 544.928 485.757C561.77 492.499 577.436 493.841 583.164 493.669L583.538 493.047C587.729 494.982 600.919 498.517 608.931 500.536C609.894 500.837 610.763 501.057 611.516 501.179C610.741 500.989 609.872 500.773 608.931 500.536C600.728 497.965 585.747 489.448 578.599 485.076C584.462 487.832 598.961 488.761 606.354 488.908C606.765 488.95 607.09 488.957 607.318 488.924C607.013 488.92 606.691 488.915 606.354 488.908C601.131 488.378 582.05 482.157 572.497 478.879L571.717 478.141C594.489 484.267 622.189 484.457 633.192 483.787C626.513 484.054 599.793 477.924 582.058 473.548C596.638 474.817 621.034 469.073 617.322 468.785C612.807 468.436 593.63 473.01 564.307 461.14C534.983 449.27 498.064 414.895 485.528 401.278C472.991 387.662 454.057 375.294 448.876 378.189Z" fill="url(#paint43_linear_4455_13552)"/>
<path d="M473.15 455.346C470.575 453.133 464.245 446.399 459.52 437.168" stroke="url(#paint44_linear_4455_13552)" stroke-width="0.500392" stroke-linecap="round"/>
<path d="M583.714 493.555C565.695 494.084 522.086 485.143 491.806 445.143" stroke="url(#paint45_linear_4455_13552)" stroke-width="0.714845"/>
<path d="M543.802 486.534C529.735 485.843 497.034 481.049 478.763 467.399C475.383 464.42 466.956 456.303 460.286 447.672C458.088 445.594 444.585 445.113 440.714 452.12" stroke="url(#paint46_linear_4455_13552)" stroke-width="0.714845" stroke-linecap="round"/>
<path d="M453.738 450.532C452.498 448.39 448.893 446.664 444.395 456.892C442.411 460.189 435 459.325 430.959 457.445C426.918 455.564 424.688 451.703 423.789 448.728C422.88 445.72 422.48 437.148 416.957 432.573C417.801 436.711 418.42 446.304 414.147 451.573C414.888 447.857 415.595 438.849 412.487 432.551" stroke="url(#paint47_linear_4455_13552)" stroke-width="0.714845" stroke-linecap="round"/>
<path d="M412.506 442.265C411.747 440.47 409.577 436.587 406.971 435.417C404.365 434.246 405.059 436.303 405.731 437.477C404.221 435.403 398.281 429.963 391.419 427.613" stroke="url(#paint48_linear_4455_13552)" stroke-width="0.714845" stroke-linecap="round"/>
<path d="M526.107 454.616L525.788 454.585L525.8 453.878L526.281 454.301L526.107 454.616ZM530.589 459.246C530.742 459.364 530.795 459.607 530.708 459.789C530.621 459.971 530.427 460.022 530.274 459.904L530.589 459.246ZM541.528 464.156C539.762 463.351 536.867 461.927 533.915 460.266C530.969 458.609 527.944 456.702 525.932 454.931L526.281 454.301C528.237 456.022 531.211 457.901 534.151 459.556C537.086 461.207 539.965 462.623 541.718 463.421L541.528 464.156ZM526.425 454.647C526.425 454.666 526.434 455.024 526.981 455.793C527.525 456.557 528.576 457.691 530.589 459.246L530.274 459.904C528.232 458.327 527.119 457.142 526.513 456.29C525.91 455.443 525.783 454.888 525.788 454.585L526.425 454.647Z" fill="url(#paint49_linear_4455_13552)"/>
<path d="M516.487 474.923C511.783 473.55 493.912 455.601 489.44 445.024C485.024 433.986 490.469 443.63 492.282 445.758" stroke="url(#paint50_linear_4455_13552)" stroke-width="0.714845"/>
<path d="M610.371 500.863C610.935 500.996 611.45 501.089 611.911 501.137C611.441 501.06 610.927 500.969 610.371 500.863Z" fill="url(#paint51_linear_4455_13552)"/>
<path d="M571.889 478.821C581.823 482.178 602.655 488.896 606.505 488.916C611.318 488.94 589.164 489.655 578.264 484.847C586.665 489.987 605.157 500.441 611.911 501.137C603.226 499.715 579.639 493.451 554.768 479.768" stroke="url(#paint52_linear_4455_13552)" stroke-width="0.714845"/>
<path d="M579.005 472.715C577.102 472.333 575.26 471.824 573.515 471.166C574.967 471.6 576.816 472.125 579.005 472.715Z" fill="url(#paint53_linear_4455_13552)"/>
<path d="M384.287 403.048C397.912 400.552 425.802 392.365 447.451 379.138C454.769 374.361 468.561 386.712 479.35 395.539C490.14 404.366 550.251 473.532 604.683 469.419C610.579 469.218 614.752 469.567 618.151 468.928C621.549 468.288 592.05 478.157 573.515 471.166C582.651 473.895 607.511 480.238 633.87 483.786C611.481 485.48 559.252 482.853 529.451 458.793" stroke="url(#paint54_linear_4455_13552)" stroke-width="0.714845" stroke-linecap="round"/>
<path d="M425.32 422.28C418.758 417.507 410.643 417.441 405.482 416.697C412.722 413.894 417.062 414.716 420.61 415.99C425.312 417.678 429.731 425.488 425.32 422.28Z" fill="url(#paint55_linear_4455_13552)" stroke="url(#paint56_linear_4455_13552)" stroke-width="0.500392" stroke-linecap="round"/>
<path d="M431.601 404.885C427.043 400.818 413.6 400.148 404.363 410.231" stroke="url(#paint57_linear_4455_13552)" stroke-width="0.500392" stroke-linecap="round"/>
<path d="M431.602 404.922C425.602 404.92 416.775 403.547 404.322 410.42" stroke="url(#paint58_linear_4455_13552)" stroke-width="0.500392" stroke-linecap="round"/>
<g filter="url(#filter3_f_4455_13552)">
<ellipse cx="568.468" cy="781.549" rx="206.166" ry="29.7227" fill="#B3C4E8" fill-opacity="0.7"/>
</g>
<path d="M343.388 431.167C198.109 456.899 17.5495 537.7 253.571 583.222C351.05 598.8 351.05 611.781 361.781 616.973" stroke="url(#paint59_linear_4455_13552)" stroke-width="0.794677"/>
<path d="M353.229 390.689L353.229 390.689L353.238 390.692L353.504 390.799L353.769 390.905L354.296 391.115L354.558 391.22L354.819 391.324L355.079 391.428L355.338 391.532L355.596 391.635L355.853 391.737L356.109 391.84L356.364 391.942L356.617 392.043L356.87 392.144L357.122 392.245L357.373 392.345L357.623 392.445L357.871 392.544L358.119 392.643L358.366 392.742L358.612 392.84L358.856 392.938L359.1 393.035L359.343 393.132L359.585 393.229L359.826 393.325L360.065 393.421L360.304 393.516L360.542 393.611L360.779 393.706L361.015 393.8L361.25 393.894L361.483 393.988L361.716 394.081L361.948 394.174L362.179 394.266L362.409 394.358L362.638 394.449L362.866 394.54L363.094 394.631L363.32 394.722L363.545 394.812L363.769 394.901L363.993 394.991L364.215 395.079L364.436 395.168L364.657 395.256L364.876 395.344L365.312 395.518L365.529 395.605L365.745 395.691L365.96 395.777L366.173 395.862L366.386 395.947L366.598 396.032L366.809 396.116L367.02 396.2L367.229 396.284L367.437 396.367L367.851 396.533L368.057 396.615L368.261 396.697L368.465 396.778L368.668 396.859L368.87 396.94L369.071 397.02L369.271 397.1L369.47 397.18L369.866 397.338L370.062 397.416L370.258 397.495L370.452 397.572L370.646 397.65L370.839 397.727L371.031 397.804L371.223 397.88L371.413 397.956L371.602 398.032L371.791 398.107L371.978 398.182L372.165 398.257L372.351 398.331L372.536 398.405L372.72 398.479L372.904 398.552L373.086 398.625L373.268 398.697L373.449 398.77L373.628 398.842L373.807 398.913L373.986 398.984L374.163 399.055L374.339 399.126L374.515 399.196L374.69 399.266L374.864 399.335L375.037 399.405L375.209 399.473L375.381 399.542L375.551 399.61L375.721 399.678L375.89 399.745L376.058 399.813L376.225 399.879L376.392 399.946L376.557 400.012L376.722 400.078L376.886 400.144L377.049 400.209L377.373 400.338L377.534 400.403L377.694 400.466L377.853 400.53L378.011 400.593L378.169 400.656L378.326 400.719L378.482 400.781L378.637 400.843L378.791 400.905L378.945 400.966L379.097 401.027L379.249 401.088L379.401 401.149L379.551 401.209L379.701 401.268L379.849 401.328L379.997 401.387L380.145 401.446L380.291 401.505L380.437 401.563L380.582 401.621L380.726 401.678L380.87 401.736L381.012 401.793L381.154 401.849L381.295 401.906L381.436 401.962L381.575 402.018L381.714 402.073L381.853 402.128L381.99 402.183L382.127 402.238L382.262 402.292L382.398 402.346L382.931 402.559L383.062 402.612L383.193 402.664L383.323 402.716L383.452 402.768L383.581 402.819L383.709 402.87L383.836 402.921L383.962 402.972L384.213 403.072L384.337 403.122L384.461 403.171L384.584 403.22L384.706 403.269L384.948 403.366L385.068 403.414L385.187 403.461L385.306 403.509L385.424 403.556L385.541 403.603L385.658 403.649L385.774 403.696L385.889 403.742L386.003 403.787L386.117 403.833L386.23 403.878L386.343 403.923L386.566 404.012L386.786 404.1L387.004 404.187L387.111 404.23L387.219 404.273L387.325 404.316L387.431 404.358L387.536 404.4L387.64 404.442L388.052 404.606L388.153 404.647L388.254 404.687L388.354 404.727L388.453 404.767L388.552 404.806L388.65 404.845L388.747 404.884L388.844 404.923L388.94 404.961L389.036 404.999L389.131 405.037L389.225 405.075L389.319 405.113L389.412 405.15L389.505 405.187L389.596 405.223L389.778 405.296L389.868 405.332L389.958 405.368L390.047 405.403L390.135 405.439L390.223 405.474L390.31 405.508L390.396 405.543L390.482 405.577L390.567 405.611L390.652 405.645L391.308 405.908L391.388 405.939L391.467 405.971L391.545 406.002L391.623 406.033L391.7 406.064L391.777 406.095L391.853 406.125L391.928 406.155L392.003 406.185L392.078 406.215L392.152 406.245L392.225 406.274L392.298 406.303L392.37 406.332L392.442 406.361L392.513 406.389L392.584 406.417L392.654 406.445L392.723 406.473L392.792 406.501L392.861 406.528L392.929 406.555L392.996 406.582L393.063 406.609L393.13 406.635L393.195 406.662L393.261 406.688L393.326 406.714L393.454 406.765L393.517 406.79L393.58 406.816L393.704 406.865L393.826 406.914L393.887 406.938L393.946 406.962L394.006 406.986L394.065 407.009L394.123 407.033L394.181 407.056L394.238 407.079L394.295 407.101L394.351 407.124L394.407 407.146L394.463 407.168L394.518 407.19L394.572 407.212L394.626 407.234L394.68 407.255L394.733 407.276L394.786 407.297L394.838 407.318L394.941 407.359L394.992 407.38L395.042 407.4L395.092 407.42L395.142 407.44L395.191 407.459L395.239 407.479L395.287 407.498L395.335 407.517L395.429 407.555L395.475 407.573L395.521 407.591L395.567 407.61L395.612 407.628L395.657 407.645L395.701 407.663L395.745 407.681L395.788 407.698L395.831 407.715L395.873 407.732L396.04 407.799L396.12 407.831L396.16 407.847L396.199 407.862L396.238 407.878L396.276 407.893L396.315 407.908L396.352 407.923L398.041 408.599L398.276 408.692L398.301 408.702L398.313 408.707L398.325 408.712L398.343 408.719C389.204 429.694 378.073 440.275 366.497 444.408C354.841 448.57 342.661 446.22 331.472 441.213C320.343 436.234 312.344 426.852 308.685 414.842C305.051 402.915 305.688 388.366 311.842 372.934L312.155 373.068L316.719 375.026L353.229 390.689Z" fill="url(#paint60_linear_4455_13552)" stroke="#98B0E1" stroke-width="0.794677"/>
<path d="M399.768 406.593C396.066 399.347 391.202 384.09 363.439 373.007C341.579 364.736 320.379 367.679 311.876 370.274L316.17 372.351C322.881 370.861 344.742 368.774 362.481 376.127C376.671 382.01 390.969 391.724 395.125 405.275L399.768 406.593Z" fill="url(#paint61_linear_4455_13552)" stroke="url(#paint62_linear_4455_13552)" stroke-width="0.794677"/>
<path d="M394.424 407.182L395.032 405.173C392.574 393.365 376.075 381.009 362.546 376.076C345.976 370.035 328.347 369.449 316.469 372.541C315.619 373.189 314.219 374.452 315.419 374.314C316.917 374.141 339.629 369.331 361.433 377.805C380.642 385.27 391.83 397.635 394.424 407.182Z" fill="#BAB8DD" stroke="#97AFE0" stroke-width="0.794677"/>
<path d="M395.434 405.305V404.832L398.307 404.554C398.457 404.799 399.114 406.161 399.526 406.848L395.434 405.305Z" fill="#D3BCDB"/>
<path d="M360.618 377.689C344.982 371.327 324.315 372.774 316.197 374.365C332.325 381.842 393.873 407.143 393.873 406.746C391.194 396.604 380.162 385.643 360.618 377.689Z" fill="url(#paint63_linear_4455_13552)"/>
<rect x="0.254613" y="0.507613" width="5.25314" height="2.29759" transform="matrix(0.945666 0.325139 -0.304871 0.952394 310.863 370.125)" fill="#BAB8DD" stroke="#98B0E1" stroke-width="0.794677"/>
<rect x="0.216126" y="0.526372" width="5.26411" height="2.29228" transform="matrix(0.91772 0.397229 -0.373785 0.927516 395.227 404.806)" fill="#BAB8DD" stroke="#98B0E1" stroke-width="0.794677"/>
<path d="M312.266 370.638C312.444 370.564 312.839 370.438 313.096 370.367C314.288 370.869 316.288 371.899 316.288 371.899C316.288 371.899 315.872 371.946 315.907 371.965L312.266 370.638Z" fill="#D3BCDB"/>
<path d="M399.268 353.608C398.889 353.608 395.79 358.36 394.288 360.736C394.288 364.751 394.643 372.756 396.066 372.658C397.845 372.535 400.573 369.585 400.573 366.267C400.573 362.948 399.861 358.647 399.861 357.787C399.861 356.926 400.573 356.189 400.573 354.591C400.573 352.994 399.743 353.608 399.268 353.608Z" fill="#EEE4E2" stroke="url(#paint64_linear_4455_13552)" stroke-width="0.794677"/>
<path d="M336.125 388.726C338.618 384.075 349.295 374.99 354.323 371.029L372.77 359.145L382.367 372.708L394.083 360.307L396.078 373.871L378.503 397.381V402.677C364.377 398.242 336.125 389.242 336.125 388.726Z" fill="url(#paint65_linear_4455_13552)"/>
<path d="M350.411 374.031C347.039 376.477 339.559 382.79 336.616 388.472L343.973 391.786M343.973 391.786L345.353 388.472M343.973 391.786L378.233 402.203C378.233 399.835 378.233 394.438 378.233 391.786" stroke="#99B9E8" stroke-width="0.794677"/>
<path d="M378.233 398.023C383.034 391.492 393.256 377.478 395.736 373.663C395.536 370.001 394.956 362.261 394.236 360.602L383.734 371.486L378.233 375.633C378.5 378.121 379.353 383.635 380.633 385.791C381.914 387.947 382.023 387.844 382.15 388.023" stroke="url(#paint66_linear_4455_13552)" stroke-width="0.794677"/>
<path d="M353.321 386.413C354.255 385.169 356.562 382.267 358.322 380.608" stroke="#B2CCF1" stroke-width="0.794677"/>
<path d="M342.315 392.322C343.248 391.078 345.555 388.175 347.316 386.517" stroke="#99B9E8" stroke-width="0.794677"/>
<path d="M365.13 383.511C364.797 386.309 364.33 392.176 365.13 393.254C366.13 394.602 372.332 387.346 373.032 385.998" stroke="#B2CCF1" stroke-width="0.794677"/>
<path d="M356.829 375.114C358.429 376.738 362.41 379.986 365.53 379.986C368.651 379.986 370.498 379.986 371.031 379.986" stroke="#B2CCF1" stroke-width="0.794677"/>
<path d="M358.89 344.792C366.227 331.755 375.341 332.721 378.981 334.833C381.563 335.817 390.463 340.463 389.663 352.431C387.834 369.21 380.059 381.7 376.4 385.847C377.04 382.245 376.133 373.875 375.599 370.141C372.218 375.171 373.313 384.662 373.198 383.596C373.107 382.743 368.892 379.764 366.795 378.382C366.978 376.581 367.405 372.137 367.596 370.141C366.772 370.658 364.661 374.823 363.708 376.842C362.245 375.609 353.418 373.958 349.187 373.287C348.638 370.727 355.427 364.691 358.89 361.993C353.299 361.993 345.786 367.425 342.729 370.141L327.879 361.993C335.158 361.691 351.552 357.828 358.89 344.792Z" fill="url(#paint67_linear_4455_13552)" stroke="url(#paint68_linear_4455_13552)" stroke-width="0.794677"/>
<path d="M311.83 412.652C308.349 401.744 308.814 388.464 314.422 374.347C314.497 374.375 314.591 374.41 314.708 374.455C315.32 374.689 316.543 375.176 318.986 376.19C323.87 378.218 333.617 382.348 353.069 390.752L353.069 390.753L353.078 390.756C374.292 399.311 384.873 403.612 390.15 405.775C392.789 406.857 394.101 407.403 394.752 407.679C394.851 407.72 394.934 407.756 395.004 407.786C386.662 426.957 376.426 436.544 365.736 440.211C354.967 443.906 343.661 441.619 333.228 436.922C322.853 432.251 315.335 423.637 311.83 412.652Z" fill="url(#paint69_linear_4455_13552)" stroke="#98B0E1" stroke-width="0.794677"/>
<path d="M321.791 390.805L337.083 397.493" stroke="#8AA5D9" stroke-width="0.476806" stroke-linecap="round"/>
<path d="M344.815 400.708L378.025 414.726" stroke="#8AA5D9" stroke-width="0.476806" stroke-linecap="round"/>
<path d="M322.699 407.717L344.488 417.145" stroke="#8AA5D9" stroke-width="0.476806" stroke-linecap="round"/>
<path d="M350.8 419.731L363.449 424.831" stroke="#8AA5D9" stroke-width="0.476806" stroke-linecap="round"/>
<path d="M333.594 423.913L345.952 428.884" stroke="#8AA5D9" stroke-width="0.476806" stroke-linecap="round"/>
<g filter="url(#filter4_f_4455_13552)">
<path fill-rule="evenodd" clip-rule="evenodd" d="M359.705 207.057C362.106 208.044 364.292 209.919 365.882 212.599C369.461 218.63 368.795 226.666 364.581 231.526C364.868 231.928 365.145 232.352 365.408 232.797C367.774 236.783 368.496 241.359 367.573 244.729C368.246 245.499 368.891 246.24 369.515 246.956L369.516 246.956C377.16 255.731 381.563 260.785 393.658 270.591C389.808 267.673 384.147 264.419 378.329 261.074C371.286 257.025 364.013 252.844 359.445 248.968C357.271 248.095 355.085 246.194 353.377 243.475C350.4 243.138 347.436 241.163 345.449 237.815C344.552 236.302 343.943 234.661 343.614 232.999C341.245 231.465 339.064 229.199 337.333 226.282C335.401 223.027 334.3 219.418 333.998 215.9C333.324 215.388 332.723 214.719 332.238 213.901C331.194 212.142 330.876 210.025 331.205 208.025C329.975 207.52 328.874 206.581 328.078 205.241C325.993 201.727 326.804 196.784 329.891 194.201C332.977 191.617 337.169 192.372 339.255 195.886C339.453 196.219 339.625 196.566 339.771 196.922C342.127 195.452 345.198 196.107 347.647 198.428C352.078 198.954 356.58 201.98 359.705 207.057Z" fill="url(#paint70_linear_4455_13552)"/>
</g>
<g filter="url(#filter5_f_4455_13552)">
<path fill-rule="evenodd" clip-rule="evenodd" d="M594.949 263.741C597.727 263.072 600.074 263.774 600.659 265.673C600.942 266.594 600.771 267.663 600.246 268.736C600.754 269.151 601.139 269.709 601.35 270.394C602.097 272.821 600.385 275.936 597.526 277.352C596.86 277.682 596.191 277.89 595.546 277.986C593.785 279.939 591.492 281.705 588.844 283.017C586.47 284.193 584.111 284.856 581.964 285.036C581.017 285.903 579.907 286.674 578.677 287.284C575.953 288.633 573.242 288.892 571.256 288.195C568.986 289.262 566.786 289.711 565.055 289.566C560.504 290.448 554.148 290.696 547.992 290.936C542.908 291.135 537.961 291.328 534.281 291.868C546.128 289.799 551.105 288.183 559.746 285.377C560.451 285.148 561.181 284.911 561.941 284.665C562.88 282.431 565.373 279.989 568.616 278.382C568.977 278.203 569.337 278.04 569.694 277.892C569.27 273.805 572.456 268.936 577.362 266.506C579.542 265.426 581.729 264.992 583.651 265.138C587.85 263.126 591.981 262.718 594.949 263.741Z" fill="url(#paint71_linear_4455_13552)"/>
</g>
<circle cx="499.198" cy="231.596" r="30" fill="url(#paint72_linear_4455_13552)"/>
<path d="M391.311 297.921C392.959 299.453 395.626 303.761 393.101 308.739C395.291 307.937 400.16 307.311 402.114 311.223" stroke="url(#paint73_linear_4455_13552)" stroke-linecap="round"/>
<path d="M499.825 290.244C501.366 289.768 504.974 289.634 507.075 292.907C507.395 291.29 508.81 288.096 511.914 288.26" stroke="url(#paint74_linear_4455_13552)" stroke-linecap="round"/>
<path d="M477.08 346.234C479.868 345.249 486.27 344.561 489.564 349.692C490.339 346.98 493.256 341.525 498.727 341.394" stroke="url(#paint75_linear_4455_13552)" stroke-linecap="round"/>
</g>
<defs>
<filter id="filter0_f_4455_13552" x="-82.331" y="615.787" width="479.974" height="253.465" filterUnits="userSpaceOnUse" color-interpolation-filters="sRGB">
<feFlood flood-opacity="0" result="BackgroundImageFix"/>
<feBlend mode="normal" in="SourceGraphic" in2="BackgroundImageFix" result="shape"/>
<feGaussianBlur stdDeviation="27.8137" result="effect1_foregroundBlur_4455_13552"/>
</filter>
<filter id="filter1_f_4455_13552" x="72.1995" y="70.2727" width="106.932" height="134.608" filterUnits="userSpaceOnUse" color-interpolation-filters="sRGB">
<feFlood flood-opacity="0" result="BackgroundImageFix"/>
<feBlend mode="normal" in="SourceGraphic" in2="BackgroundImageFix" result="shape"/>
<feGaussianBlur stdDeviation="0.397338" result="effect1_foregroundBlur_4455_13552"/>
</filter>
<filter id="filter2_f_4455_13552" x="599.78" y="371.284" width="118.822" height="53.0901" filterUnits="userSpaceOnUse" color-interpolation-filters="sRGB">
<feFlood flood-opacity="0" result="BackgroundImageFix"/>
<feBlend mode="normal" in="SourceGraphic" in2="BackgroundImageFix" result="shape"/>
<feGaussianBlur stdDeviation="0.397338" result="effect1_foregroundBlur_4455_13552"/>
</filter>
<filter id="filter3_f_4455_13552" x="306.674" y="696.199" width="523.586" height="170.7" filterUnits="userSpaceOnUse" color-interpolation-filters="sRGB">
<feFlood flood-opacity="0" result="BackgroundImageFix"/>
<feBlend mode="normal" in="SourceGraphic" in2="BackgroundImageFix" result="shape"/>
<feGaussianBlur stdDeviation="27.8137" result="effect1_foregroundBlur_4455_13552"/>
</filter>
<filter id="filter4_f_4455_13552" x="326.472" y="192.216" width="67.6368" height="78.8253" filterUnits="userSpaceOnUse" color-interpolation-filters="sRGB">
<feFlood flood-opacity="0" result="BackgroundImageFix"/>
<feBlend mode="normal" in="SourceGraphic" in2="BackgroundImageFix" result="shape"/>
<feGaussianBlur stdDeviation="0.22505" result="effect1_foregroundBlur_4455_13552"/>
</filter>
<filter id="filter5_f_4455_13552" x="533.831" y="262.75" width="68.1441" height="29.5682" filterUnits="userSpaceOnUse" color-interpolation-filters="sRGB">
<feFlood flood-opacity="0" result="BackgroundImageFix"/>
<feBlend mode="normal" in="SourceGraphic" in2="BackgroundImageFix" result="shape"/>
<feGaussianBlur stdDeviation="0.22505" result="effect1_foregroundBlur_4455_13552"/>
</filter>
<linearGradient id="paint0_linear_4455_13552" x1="486.628" y1="146.964" x2="66.3927" y2="602.411" gradientUnits="userSpaceOnUse">
<stop stop-color="#EDF1F5"/>
<stop offset="0.254101" stop-color="#E9EDF5"/>
<stop offset="1" stop-color="#DEE1F4"/>
</linearGradient>
<linearGradient id="paint1_linear_4455_13552" x1="460.343" y1="288.429" x2="421.138" y2="440.886" gradientUnits="userSpaceOnUse">
<stop stop-color="#EAEEF5"/>
<stop offset="1" stop-color="#C0DFE2"/>
</linearGradient>
<linearGradient id="paint2_linear_4455_13552" x1="383.375" y1="429.428" x2="320.265" y2="755.726" gradientUnits="userSpaceOnUse">
<stop stop-color="#C6E3E4"/>
<stop offset="1" stop-color="#4DB3A9"/>
</linearGradient>
<linearGradient id="paint3_linear_4455_13552" x1="397.214" y1="616.64" x2="411.503" y2="790.973" gradientUnits="userSpaceOnUse">
<stop stop-color="#81CFCB"/>
<stop offset="1" stop-color="#B3C7E5"/>
</linearGradient>
<linearGradient id="paint4_linear_4455_13552" x1="172.581" y1="485.997" x2="167.92" y2="541.054" gradientUnits="userSpaceOnUse">
<stop stop-color="#CFD4E9"/>
<stop offset="0.0001" stop-color="#CED0E8"/>
<stop offset="0.984375" stop-color="#A9DADB"/>
</linearGradient>
<linearGradient id="paint5_linear_4455_13552" x1="172.581" y1="485.997" x2="167.92" y2="541.054" gradientUnits="userSpaceOnUse">
<stop stop-color="#A3D4D5"/>
<stop offset="1" stop-color="#A2D4D4"/>
</linearGradient>
<linearGradient id="paint6_linear_4455_13552" x1="395.592" y1="616.626" x2="411.176" y2="790.942" gradientUnits="userSpaceOnUse">
<stop stop-color="#9BD8D7"/>
<stop offset="1" stop-color="#52C0B6"/>
</linearGradient>
<linearGradient id="paint7_linear_4455_13552" x1="559.578" y1="620.482" x2="702.613" y2="786.905" gradientUnits="userSpaceOnUse">
<stop stop-color="#A5DADB" stop-opacity="0"/>
<stop offset="1" stop-color="#4EB9B4"/>
</linearGradient>
<linearGradient id="paint8_linear_4455_13552" x1="141.298" y1="720.995" x2="147.804" y2="748.367" gradientUnits="userSpaceOnUse">
<stop stop-color="#CCBADC"/>
<stop offset="1" stop-color="#CCBADC" stop-opacity="0"/>
</linearGradient>
<linearGradient id="paint9_linear_4455_13552" x1="46.8191" y1="609.462" x2="16.7627" y2="640.413" gradientUnits="userSpaceOnUse">
<stop stop-color="#CCBADC"/>
<stop offset="1" stop-color="#CCBADC" stop-opacity="0"/>
</linearGradient>
<linearGradient id="paint10_linear_4455_13552" x1="20.6378" y1="599.977" x2="-16.2109" y2="604.201" gradientUnits="userSpaceOnUse">
<stop stop-color="#E3CBF9"/>
<stop offset="1" stop-color="#CCBADC" stop-opacity="0"/>
</linearGradient>
<linearGradient id="paint11_linear_4455_13552" x1="121.163" y1="746.061" x2="69.673" y2="748.427" gradientUnits="userSpaceOnUse">
<stop stop-color="#CCBADC"/>
<stop offset="1" stop-color="#CCBADC" stop-opacity="0"/>
</linearGradient>
<linearGradient id="paint12_linear_4455_13552" x1="70.6596" y1="679.623" x2="34.065" y2="715.681" gradientUnits="userSpaceOnUse">
<stop stop-color="#CCBADC"/>
<stop offset="1" stop-color="#CCBADC" stop-opacity="0"/>
</linearGradient>
<linearGradient id="paint13_linear_4455_13552" x1="58.4659" y1="556.524" x2="58.4659" y2="701.067" gradientUnits="userSpaceOnUse">
<stop stop-color="#D5C9ED"/>
<stop offset="0.9375" stop-color="#AFC0E9"/>
</linearGradient>
<linearGradient id="paint14_linear_4455_13552" x1="91.5016" y1="607.49" x2="-11.1323" y2="666.563" gradientUnits="userSpaceOnUse">
<stop stop-color="#C7BADB"/>
<stop offset="1" stop-color="#C7BADB" stop-opacity="0"/>
</linearGradient>
<linearGradient id="paint15_linear_4455_13552" x1="183.51" y1="609.679" x2="161.704" y2="813.863" gradientUnits="userSpaceOnUse">
<stop stop-color="#A9D8D8"/>
<stop offset="1" stop-color="#4AA5C1"/>
</linearGradient>
<linearGradient id="paint16_linear_4455_13552" x1="183.43" y1="608.099" x2="416.8" y2="773.141" gradientUnits="userSpaceOnUse">
<stop stop-color="#AAB9DE"/>
<stop offset="1" stop-color="#AAB9DE" stop-opacity="0"/>
</linearGradient>
<linearGradient id="paint17_linear_4455_13552" x1="636.391" y1="792.024" x2="590.341" y2="657.07" gradientUnits="userSpaceOnUse">
<stop stop-color="#C1C8E8"/>
<stop offset="0.557292" stop-color="#8FCDCF"/>
</linearGradient>
<linearGradient id="paint18_linear_4455_13552" x1="523.166" y1="660.38" x2="555.917" y2="793.8" gradientUnits="userSpaceOnUse">
<stop stop-color="#98D4D5"/>
<stop offset="1" stop-color="#74B3C0"/>
</linearGradient>
<linearGradient id="paint19_linear_4455_13552" x1="310.547" y1="468.322" x2="308.244" y2="518.546" gradientUnits="userSpaceOnUse">
<stop stop-color="#E1E9FD"/>
<stop offset="1" stop-color="#C5C3F2"/>
</linearGradient>
<linearGradient id="paint20_linear_4455_13552" x1="475.874" y1="632.272" x2="478.675" y2="706.373" gradientUnits="userSpaceOnUse">
<stop stop-color="#D8D3F4"/>
<stop offset="1" stop-color="#B7C6E9"/>
</linearGradient>
<linearGradient id="paint21_linear_4455_13552" x1="64.449" y1="372.136" x2="0.854357" y2="407.972" gradientUnits="userSpaceOnUse">
<stop stop-color="#DAD7EE"/>
<stop offset="1" stop-color="#D1DAEE"/>
</linearGradient>
<linearGradient id="paint22_linear_4455_13552" x1="124.148" y1="456.271" x2="-3.38563" y2="393.28" gradientUnits="userSpaceOnUse">
<stop stop-color="#CEBEE6"/>
<stop offset="1" stop-color="#C1CBEF"/>
</linearGradient>
<linearGradient id="paint23_linear_4455_13552" x1="137.03" y1="131.47" x2="108.092" y2="148.23" gradientUnits="userSpaceOnUse">
<stop stop-color="#F2DCE1"/>
<stop offset="1" stop-color="#C0CBE4"/>
</linearGradient>
<linearGradient id="paint24_linear_4455_13552" x1="656.621" y1="394.463" x2="665.119" y2="414.97" gradientUnits="userSpaceOnUse">
<stop stop-color="#F2DCE1"/>
<stop offset="1" stop-color="#C0CBE4"/>
</linearGradient>
<linearGradient id="paint25_linear_4455_13552" x1="719.603" y1="540.287" x2="731.868" y2="577.586" gradientUnits="userSpaceOnUse">
<stop stop-color="#E0DEF5"/>
<stop offset="0.0001" stop-color="#E9E7FD"/>
<stop offset="1" stop-color="#D0DAF5"/>
</linearGradient>
<linearGradient id="paint26_linear_4455_13552" x1="719.603" y1="540.287" x2="742.515" y2="574.519" gradientUnits="userSpaceOnUse">
<stop stop-color="#E3DAF0"/>
<stop offset="1" stop-color="#C8BBDC" stop-opacity="0"/>
</linearGradient>
<linearGradient id="paint27_linear_4455_13552" x1="288.345" y1="299.187" x2="233.352" y2="365.256" gradientUnits="userSpaceOnUse">
<stop offset="0.0208333" stop-color="#F1DAD7"/>
<stop offset="0.432292" stop-color="#E1CDEB"/>
<stop offset="1" stop-color="#BAC8EE"/>
</linearGradient>
<linearGradient id="paint28_linear_4455_13552" x1="244.535" y1="339.931" x2="244.051" y2="344.065" gradientUnits="userSpaceOnUse">
<stop stop-color="#B7C1DC"/>
<stop offset="1" stop-color="#86A1E9"/>
</linearGradient>
<linearGradient id="paint29_linear_4455_13552" x1="184.242" y1="284.881" x2="180.534" y2="316.575" gradientUnits="userSpaceOnUse">
<stop stop-color="#B7C1DC"/>
<stop offset="1" stop-color="#86B3E9"/>
</linearGradient>
<linearGradient id="paint30_linear_4455_13552" x1="216.577" y1="312.822" x2="210.854" y2="361.737" gradientUnits="userSpaceOnUse">
<stop stop-color="#B7C1DC"/>
<stop offset="1" stop-color="#86A1E9"/>
</linearGradient>
<linearGradient id="paint31_linear_4455_13552" x1="270.669" y1="357.625" x2="267.156" y2="387.65" gradientUnits="userSpaceOnUse">
<stop stop-color="#B7C1DC"/>
<stop offset="1" stop-color="#86A1E9"/>
</linearGradient>
<linearGradient id="paint32_linear_4455_13552" x1="295.149" y1="383.201" x2="294.482" y2="388.899" gradientUnits="userSpaceOnUse">
<stop stop-color="#B7C1DC"/>
<stop offset="1" stop-color="#86A1E9"/>
</linearGradient>
<linearGradient id="paint33_linear_4455_13552" x1="191.048" y1="293.561" x2="200.949" y2="298.488" gradientUnits="userSpaceOnUse">
<stop stop-color="#B7C1DC"/>
<stop offset="1" stop-color="#86A1E9"/>
</linearGradient>
<linearGradient id="paint34_linear_4455_13552" x1="213.939" y1="317.307" x2="213.052" y2="324.892" gradientUnits="userSpaceOnUse">
<stop stop-color="#B7C1DC"/>
<stop offset="1" stop-color="#86B3E9"/>
</linearGradient>
<linearGradient id="paint35_linear_4455_13552" x1="154.428" y1="272.386" x2="141.505" y2="284.339" gradientUnits="userSpaceOnUse">
<stop offset="0.0208333" stop-color="#E7DCCF"/>
<stop offset="0.432292" stop-color="#D1C0DB"/>
<stop offset="1" stop-color="#AFBBDD"/>
</linearGradient>
<linearGradient id="paint36_linear_4455_13552" x1="141.71" y1="258.823" x2="138.044" y2="290.156" gradientUnits="userSpaceOnUse">
<stop stop-color="#B7C1DC"/>
<stop offset="1" stop-color="#86A1E9"/>
</linearGradient>
<linearGradient id="paint37_linear_4455_13552" x1="278.369" y1="297.188" x2="228.999" y2="347.602" gradientUnits="userSpaceOnUse">
<stop offset="0.0208333" stop-color="#E7DCCF"/>
<stop offset="0.432292" stop-color="#D1C0DB"/>
<stop offset="1" stop-color="#AFBBDD"/>
</linearGradient>
<linearGradient id="paint38_linear_4455_13552" x1="280.259" y1="280.506" x2="209.512" y2="364.935" gradientUnits="userSpaceOnUse">
<stop stop-color="#E8D2D0"/>
<stop offset="1" stop-color="#689EE7"/>
</linearGradient>
<linearGradient id="paint39_linear_4455_13552" x1="299.647" y1="362.368" x2="293.537" y2="366.844" gradientUnits="userSpaceOnUse">
<stop offset="0.0208333" stop-color="#E7DCCF"/>
<stop offset="0.432292" stop-color="#D9C1E8"/>
<stop offset="1" stop-color="#BBC8ED"/>
</linearGradient>
<linearGradient id="paint40_linear_4455_13552" x1="302.433" y1="359.814" x2="293.423" y2="369.73" gradientUnits="userSpaceOnUse">
<stop stop-color="#BDC9EC"/>
<stop offset="1" stop-color="#8BADDA"/>
</linearGradient>
<linearGradient id="paint41_linear_4455_13552" x1="317.048" y1="359.012" x2="300.003" y2="365.318" gradientUnits="userSpaceOnUse">
<stop stop-color="#D3CEE7"/>
<stop offset="1" stop-color="#97AECC"/>
</linearGradient>
<linearGradient id="paint42_linear_4455_13552" x1="318.673" y1="356.533" x2="299.291" y2="368.17" gradientUnits="userSpaceOnUse">
<stop stop-color="#C4CEEA"/>
<stop offset="1" stop-color="#91AED4"/>
</linearGradient>
<linearGradient id="paint43_linear_4455_13552" x1="463.476" y1="389.515" x2="443.254" y2="467.409" gradientUnits="userSpaceOnUse">
<stop offset="0.0208333" stop-color="#F1DAD7"/>
<stop offset="0.432292" stop-color="#E1CDEB"/>
<stop offset="1" stop-color="#BAC7ED"/>
</linearGradient>
<linearGradient id="paint44_linear_4455_13552" x1="467.35" y1="444.57" x2="464.69" y2="447.383" gradientUnits="userSpaceOnUse">
<stop stop-color="#B7C1DC"/>
<stop offset="1" stop-color="#86A1E9"/>
</linearGradient>
<linearGradient id="paint45_linear_4455_13552" x1="545.135" y1="457.089" x2="524.749" y2="478.656" gradientUnits="userSpaceOnUse">
<stop stop-color="#87AEE9"/>
<stop offset="1" stop-color="#86ADE9"/>
</linearGradient>
<linearGradient id="paint46_linear_4455_13552" x1="504.342" y1="449.235" x2="472.877" y2="482.522" gradientUnits="userSpaceOnUse">
<stop stop-color="#B7C1DC"/>
<stop offset="1" stop-color="#86A1E9"/>
</linearGradient>
<linearGradient id="paint47_linear_4455_13552" x1="437.227" y1="434.702" x2="417.914" y2="455.134" gradientUnits="userSpaceOnUse">
<stop stop-color="#B7C1DC"/>
<stop offset="1" stop-color="#86A1E9"/>
</linearGradient>
<linearGradient id="paint48_linear_4455_13552" x1="403.765" y1="431.942" x2="400.1" y2="435.819" gradientUnits="userSpaceOnUse">
<stop stop-color="#B7C1DC"/>
<stop offset="1" stop-color="#86A1E9"/>
</linearGradient>
<linearGradient id="paint49_linear_4455_13552" x1="541.639" y1="463.491" x2="529.338" y2="453.817" gradientUnits="userSpaceOnUse">
<stop stop-color="#B7C1DC"/>
<stop offset="1" stop-color="#86A1E9"/>
</linearGradient>
<linearGradient id="paint50_linear_4455_13552" x1="503.727" y1="454.748" x2="498.848" y2="459.91" gradientUnits="userSpaceOnUse">
<stop stop-color="#87AEE9"/>
<stop offset="1" stop-color="#86ADE9"/>
</linearGradient>
<linearGradient id="paint51_linear_4455_13552" x1="575.018" y1="473.884" x2="573.8" y2="493.422" gradientUnits="userSpaceOnUse">
<stop offset="0.0208333" stop-color="#EBD5D2"/>
<stop offset="0.432292" stop-color="#D6C2E2"/>
<stop offset="1" stop-color="#BAC7ED"/>
</linearGradient>
<linearGradient id="paint52_linear_4455_13552" x1="592.563" y1="475.12" x2="572.408" y2="496.443" gradientUnits="userSpaceOnUse">
<stop stop-color="#B7C1DC"/>
<stop offset="1" stop-color="#86A1E9"/>
</linearGradient>
<linearGradient id="paint53_linear_4455_13552" x1="466.615" y1="384.513" x2="457.356" y2="461.455" gradientUnits="userSpaceOnUse">
<stop offset="0.0208333" stop-color="#EBD5D2"/>
<stop offset="0.432292" stop-color="#D6C2E2"/>
<stop offset="1" stop-color="#BAC7ED"/>
</linearGradient>
<linearGradient id="paint54_linear_4455_13552" x1="461.75" y1="380.061" x2="438.439" y2="483.683" gradientUnits="userSpaceOnUse">
<stop stop-color="#E8D3D0"/>
<stop offset="1" stop-color="#5F96DF"/>
</linearGradient>
<linearGradient id="paint55_linear_4455_13552" x1="413.148" y1="414.014" x2="413.086" y2="421.552" gradientUnits="userSpaceOnUse">
<stop offset="0.0208333" stop-color="#EBD5D2"/>
<stop offset="0.432292" stop-color="#D6C2E2"/>
<stop offset="1" stop-color="#BAC7ED"/>
</linearGradient>
<linearGradient id="paint56_linear_4455_13552" x1="418.481" y1="413.758" x2="416.902" y2="421.322" gradientUnits="userSpaceOnUse">
<stop stop-color="#C1B7DC"/>
<stop offset="0.97706" stop-color="#86A1E9"/>
</linearGradient>
<linearGradient id="paint57_linear_4455_13552" x1="412.128" y1="400.019" x2="418.874" y2="410.944" gradientUnits="userSpaceOnUse">
<stop stop-color="#D1C9F2"/>
<stop offset="1" stop-color="#91A8E1"/>
</linearGradient>
<linearGradient id="paint58_linear_4455_13552" x1="415.485" y1="399.872" x2="417.385" y2="408.742" gradientUnits="userSpaceOnUse">
<stop stop-color="#E4D0D2"/>
<stop offset="1" stop-color="#7FACE8"/>
</linearGradient>
<linearGradient id="paint59_linear_4455_13552" x1="330.555" y1="443.283" x2="188.628" y2="624.428" gradientUnits="userSpaceOnUse">
<stop stop-color="#B2DBD8"/>
<stop offset="1" stop-color="#70C7C4" stop-opacity="0"/>
</linearGradient>
<linearGradient id="paint60_linear_4455_13552" x1="358.161" y1="384.436" x2="326.044" y2="438.773" gradientUnits="userSpaceOnUse">
<stop stop-color="#BEBDF4"/>
<stop offset="1" stop-color="#BFCDF0"/>
</linearGradient>
<linearGradient id="paint61_linear_4455_13552" x1="372.985" y1="367.565" x2="363.649" y2="380.822" gradientUnits="userSpaceOnUse">
<stop stop-color="#E8D2D0"/>
<stop offset="1" stop-color="#D4BDDC"/>
</linearGradient>
<linearGradient id="paint62_linear_4455_13552" x1="355.822" y1="367.565" x2="351.517" y2="379.384" gradientUnits="userSpaceOnUse">
<stop stop-color="#E2CBCB"/>
<stop offset="1" stop-color="#AFB7DE"/>
</linearGradient>
<linearGradient id="paint63_linear_4455_13552" x1="368.887" y1="374.881" x2="355.035" y2="406.751" gradientUnits="userSpaceOnUse">
<stop stop-color="#A5CED8"/>
<stop offset="1" stop-color="#B7D8EA"/>
</linearGradient>
<linearGradient id="paint64_linear_4455_13552" x1="397.43" y1="353.492" x2="397.43" y2="372.658" gradientUnits="userSpaceOnUse">
<stop stop-color="#E4CFCF"/>
<stop offset="1" stop-color="#E3B5B5"/>
</linearGradient>
<linearGradient id="paint65_linear_4455_13552" x1="377.541" y1="360.172" x2="358.157" y2="397.633" gradientUnits="userSpaceOnUse">
<stop stop-color="#F0DAE3"/>
<stop offset="0.484375" stop-color="#D2D6EA"/>
<stop offset="1" stop-color="#D3E3F2"/>
</linearGradient>
<linearGradient id="paint66_linear_4455_13552" x1="396.821" y1="363.193" x2="373.46" y2="397.254" gradientUnits="userSpaceOnUse">
<stop stop-color="#E4CDCD"/>
<stop offset="1" stop-color="#99B9E8"/>
</linearGradient>
<linearGradient id="paint67_linear_4455_13552" x1="384.91" y1="333.578" x2="356.993" y2="380.571" gradientUnits="userSpaceOnUse">
<stop stop-color="#7CC2D0"/>
<stop offset="0.583333" stop-color="#6DC1D1"/>
<stop offset="0.973958" stop-color="#78C8DA"/>
</linearGradient>
<linearGradient id="paint68_linear_4455_13552" x1="365.823" y1="377.425" x2="389.17" y2="339.327" gradientUnits="userSpaceOnUse">
<stop stop-color="#6EA6AE"/>
<stop offset="0.520833" stop-color="#D5AEC5"/>
<stop offset="1" stop-color="#EFC3B9"/>
</linearGradient>
<linearGradient id="paint69_linear_4455_13552" x1="357.559" y1="385.139" x2="328.25" y2="434.726" gradientUnits="userSpaceOnUse">
<stop stop-color="#B1BBEA"/>
<stop offset="1" stop-color="#B5CBED"/>
</linearGradient>
<linearGradient id="paint70_linear_4455_13552" x1="388.332" y1="224.759" x2="335.794" y2="230.972" gradientUnits="userSpaceOnUse">
<stop stop-color="#FBEBEB"/>
<stop offset="0.421875" stop-color="#EEEAEC"/>
<stop offset="1" stop-color="#DEE5F9"/>
</linearGradient>
<linearGradient id="paint71_linear_4455_13552" x1="555.776" y1="267.978" x2="581.195" y2="290.935" gradientUnits="userSpaceOnUse">
<stop stop-color="#FBEBEB"/>
<stop offset="0.421875" stop-color="#EEEAEC"/>
<stop offset="1" stop-color="#DEE5F9"/>
</linearGradient>
<linearGradient id="paint72_linear_4455_13552" x1="499.198" y1="201.596" x2="499.198" y2="261.596" gradientUnits="userSpaceOnUse">
<stop stop-color="#FEE3E3"/>
<stop offset="1" stop-color="#F7D8D8"/>
</linearGradient>
<linearGradient id="paint73_linear_4455_13552" x1="398.29" y1="301.461" x2="394.293" y2="309.343" gradientUnits="userSpaceOnUse">
<stop stop-color="#E5E6EF"/>
<stop offset="1" stop-color="#A9BDE3"/>
</linearGradient>
<linearGradient id="paint74_linear_4455_13552" x1="504.556" y1="287.207" x2="507.428" y2="295.614" gradientUnits="userSpaceOnUse">
<stop stop-color="#ECEAF0"/>
<stop offset="1" stop-color="#B6C8E6"/>
</linearGradient>
<linearGradient id="paint75_linear_4455_13552" x1="485.845" y1="340.607" x2="491.06" y2="348.731" gradientUnits="userSpaceOnUse">
<stop stop-color="#ECEAF0"/>
<stop offset="1" stop-color="#B0C2E3"/>
</linearGradient>
<clipPath id="clip0_4455_13552">
<rect width="888" height="790" rx="8" fill="white"/>
</clipPath>
</defs>
</svg>
