<svg width="888" height="790" viewBox="0 0 888 790" fill="none" xmlns="http://www.w3.org/2000/svg">
<g clip-path="url(#clip0_9656_7633)">
<path d="M316.095 416.144C353.282 410.52 407.338 415.099 443.422 387.861C454.723 379.33 457.554 376.9 459.843 372.825C464.407 364.698 457.509 356.703 451.463 345.392C447.602 338.167 446.09 326.852 455.797 317.464C467.391 306.25 482.622 297.512 494.648 291.542C496.486 290.629 499.467 290.447 505.091 291.542C508.294 292.165 511.917 293.734 507.193 293.956C497.05 294.432 459.502 311.642 464.407 330.181C466.825 339.323 471.208 343.288 479.35 350.267C487.492 357.246 489.766 360.999 492.358 367.489C495.682 375.81 494.025 380.324 492.464 384.579L492.358 384.868C489.541 392.561 484.904 399.096 471.619 410.009C458.334 420.922 446.782 424.312 419.035 435.138C360.869 457.833 289.559 491.923 393.397 527.585C672.667 589.495 868.38 760.838 887.569 798.784H722.703H394.056H171.896C145.118 750.185 29.3145 595.752 62.0089 519.011C94.7034 442.27 266.51 423.643 316.095 416.144Z" fill="url(#paint0_linear_9656_7633)"/>
<path d="M455.554 326.178C460.67 310.404 482.955 300.376 495.93 295.373C476.848 302.73 464.594 311.047 458.233 327.16C453.07 340.236 478.144 356.512 482.072 367.031C485.741 376.857 483.007 389.074 464.594 400.919C417.241 431.38 394.523 423.379 367.963 425.282C399.456 418.302 430.257 414.965 455.754 396.689C469.716 386.681 477.831 376.145 470.102 361.046C462.944 347.063 450.665 341.253 455.554 326.178Z" fill="url(#paint1_linear_9656_7633)"/>
<path d="M122.631 517.098C140.281 468.805 319.886 430.655 378.719 422.497C300.832 439.558 246.472 459.511 227.042 484.952C205.479 513.186 216.26 542.809 277.013 556.265C337.766 569.722 465.749 589.222 528.047 612.19C663.692 662.198 735.067 725.856 785.025 790H378.719C434.788 682.052 309.467 636.478 264.24 618.531C219.013 600.584 100.569 577.465 122.631 517.098Z" fill="url(#paint2_linear_9656_7633)"/>
<g filter="url(#filter0_f_9656_7633)">
<ellipse cx="191.595" cy="48.3142" rx="191.595" ry="48.3142" transform="matrix(0.961114 0.276151 -0.18255 0.983197 -17.6689 642.108)" fill="#B3C4E8" fill-opacity="0.7"/>
</g>
<path d="M426.355 789.756C475.725 714.052 403.533 644.766 361.267 619.586C454.695 690.304 443.071 754.192 418.615 790.39L426.355 789.756Z" fill="url(#paint3_linear_9656_7633)"/>
<path d="M187.508 487.261C168.491 497.123 134.152 519.931 171.016 541.316C162.361 533.36 151.096 511.369 187.508 487.261Z" fill="url(#paint4_linear_9656_7633)" stroke="url(#paint5_linear_9656_7633)" stroke-width="0.794677"/>
<path d="M361.138 619.707C402.567 646.647 474.325 716.898 424.29 789.77" stroke="url(#paint6_linear_9656_7633)" stroke-width="0.794677"/>
<path d="M366.196 601.087C477.491 614.701 655.131 657.173 682.841 792.024" stroke="url(#paint7_linear_9656_7633)" stroke-width="0.794677"/>
<ellipse cx="137.47" cy="773.802" rx="30.87" ry="31.165" fill="#8FBCC7"/>
<path d="M144.792 733.79C144.792 750.787 131.145 764.558 114.319 764.558C97.4932 764.558 83.8466 750.787 83.8466 733.79C83.8466 716.794 97.4932 703.023 114.319 703.023C131.145 703.023 144.792 716.794 144.792 733.79Z" fill="#8FBCC7" stroke="url(#paint8_linear_9656_7633)" stroke-width="0.794677"/>
<path d="M46.4227 609.462C46.4227 626.458 32.7761 640.23 15.9501 640.23C-0.875956 640.23 -14.5226 626.458 -14.5226 609.462C-14.5226 592.466 -0.875956 578.694 15.9501 578.694C32.7761 578.694 46.4227 592.466 46.4227 609.462Z" fill="#8FBCC7" stroke="url(#paint9_linear_9656_7633)" stroke-width="0.794677"/>
<path d="M20.3973 599.662C11.2974 611.613 -5.80086 608.898 -17.81 593.259C-29.8191 577.621 -31.968 555.273 -22.8682 543.322C-13.7683 531.371 3.32998 534.086 15.3391 549.724C27.3482 565.362 29.4971 587.711 20.3973 599.662Z" fill="#95DEDE" stroke="url(#paint10_linear_9656_7633)" stroke-width="0.794677"/>
<path d="M120.922 745.746C107.145 763.84 83.8229 762.762 68.8293 743.237C53.8357 723.713 52.9123 693.218 66.6897 675.124C80.467 657.03 103.789 658.108 118.783 677.633C133.776 697.157 134.7 727.652 120.922 745.746Z" fill="#8FBCC7" stroke="url(#paint11_linear_9656_7633)" stroke-width="0.794677"/>
<path d="M70.2637 679.623C70.2637 700.373 54.3251 717.157 34.708 717.157C15.0909 717.157 -0.847779 700.373 -0.847779 679.623C-0.847779 658.872 15.0909 642.088 34.708 642.088C54.3251 642.088 70.2637 658.872 70.2637 679.623Z" fill="#8FBCC7" stroke="url(#paint12_linear_9656_7633)" stroke-width="0.794677"/>
<mask id="path-16-inside-1_9656_7633" fill="white">
<path fill-rule="evenodd" clip-rule="evenodd" d="M35.4161 638.151C25.4441 651.397 10.7672 656.155 -1.75989 648.595C-18.1675 638.694 -24.6739 611.412 -16.2922 587.658C-15.3414 584.963 -14.2397 582.429 -13.0098 580.069C-12.6842 578.022 -12.1809 576.006 -11.4903 574.049C-5.76073 557.811 10.6903 551.772 25.2542 560.56C25.8347 560.911 26.4036 561.279 26.9603 561.665C27.508 561.946 28.0523 562.249 28.5926 562.575C38.74 568.699 45.1003 581.47 46.4938 595.944C48.6428 596.017 50.6987 596.57 52.5988 597.522C53.5401 596.892 54.5326 596.368 55.5636 595.955C62.765 591.537 71.3872 589.473 80.307 590.652C101.424 593.441 116.213 613.347 113.338 635.113C113.169 636.391 112.943 637.647 112.663 638.879C116.572 639.825 120.349 641.698 123.755 644.547C137.226 655.818 139.788 678.099 129.478 694.314C119.168 710.53 99.8904 714.538 86.4196 703.268C85.1514 702.207 83.9799 701.048 82.9066 699.806C81.1661 700.623 79.2886 701.068 77.331 701.068C68.276 701.068 60.9355 691.548 60.9355 679.805C60.9355 675.481 61.9311 671.457 63.6413 668.1C50.5924 664.046 40.8252 653.17 37.6295 639.902C36.8575 639.385 36.118 638.8 35.4161 638.151Z"/>
</mask>
<path fill-rule="evenodd" clip-rule="evenodd" d="M35.4161 638.151C25.4441 651.397 10.7672 656.155 -1.75989 648.595C-18.1675 638.694 -24.6739 611.412 -16.2922 587.658C-15.3414 584.963 -14.2397 582.429 -13.0098 580.069C-12.6842 578.022 -12.1809 576.006 -11.4903 574.049C-5.76073 557.811 10.6903 551.772 25.2542 560.56C25.8347 560.911 26.4036 561.279 26.9603 561.665C27.508 561.946 28.0523 562.249 28.5926 562.575C38.74 568.699 45.1003 581.47 46.4938 595.944C48.6428 596.017 50.6987 596.57 52.5988 597.522C53.5401 596.892 54.5326 596.368 55.5636 595.955C62.765 591.537 71.3872 589.473 80.307 590.652C101.424 593.441 116.213 613.347 113.338 635.113C113.169 636.391 112.943 637.647 112.663 638.879C116.572 639.825 120.349 641.698 123.755 644.547C137.226 655.818 139.788 678.099 129.478 694.314C119.168 710.53 99.8904 714.538 86.4196 703.268C85.1514 702.207 83.9799 701.048 82.9066 699.806C81.1661 700.623 79.2886 701.068 77.331 701.068C68.276 701.068 60.9355 691.548 60.9355 679.805C60.9355 675.481 61.9311 671.457 63.6413 668.1C50.5924 664.046 40.8252 653.17 37.6295 639.902C36.8575 639.385 36.118 638.8 35.4161 638.151Z" fill="url(#paint13_linear_9656_7633)"/>
<path d="M35.4161 638.151L35.9553 637.567L35.3098 636.971L34.7812 637.673L35.4161 638.151ZM-1.75989 648.595L-1.34931 647.915L-1.75989 648.595ZM-16.2922 587.658L-15.5429 587.922L-16.2922 587.658ZM-13.0098 580.069L-12.3051 580.437L-12.2453 580.322L-12.225 580.194L-13.0098 580.069ZM-11.4903 574.049L-10.7409 574.313L-11.4903 574.049ZM25.2542 560.56L25.6648 559.88V559.88L25.2542 560.56ZM26.9603 561.665L26.5075 562.318L26.551 562.349L26.598 562.373L26.9603 561.665ZM28.5926 562.575L29.0032 561.895L28.5926 562.575ZM46.4938 595.944L45.7028 596.02L45.7697 596.714L46.4668 596.738L46.4938 595.944ZM52.5988 597.522L52.2428 598.233L52.6565 598.44L53.041 598.183L52.5988 597.522ZM55.5636 595.955L55.8589 596.693L55.9216 596.668L55.9792 596.633L55.5636 595.955ZM80.307 590.652L80.203 591.439L80.307 590.652ZM113.338 635.113L112.55 635.009L113.338 635.113ZM112.663 638.879L111.888 638.703L111.714 639.467L112.476 639.652L112.663 638.879ZM123.755 644.547L124.265 643.938L123.755 644.547ZM129.478 694.314L128.808 693.888L129.478 694.314ZM86.4196 703.268L86.9296 702.659L86.4196 703.268ZM82.9066 699.806L83.5079 699.287L83.1143 698.831L82.5693 699.087L82.9066 699.806ZM63.6413 668.1L64.3493 668.461L64.7772 667.621L63.877 667.341L63.6413 668.1ZM37.6295 639.902L38.4021 639.716L38.3294 639.414L38.0714 639.241L37.6295 639.902ZM34.7812 637.673C24.9696 650.706 10.7203 655.198 -1.34931 647.915L-2.17048 649.276C10.8141 657.111 25.9187 652.088 36.051 638.629L34.7812 637.673ZM-1.34931 647.915C-9.3174 643.107 -14.952 634.027 -17.549 623.137C-20.1436 612.257 -19.6824 599.654 -15.5429 587.922L-17.0416 587.393C-21.2837 599.415 -21.7601 612.33 -19.095 623.506C-16.4324 634.671 -10.61 644.183 -2.17048 649.276L-1.34931 647.915ZM-15.5429 587.922C-14.604 585.261 -13.5172 582.762 -12.3051 580.437L-13.7145 579.702C-14.9623 582.096 -16.0787 584.664 -17.0416 587.393L-15.5429 587.922ZM-12.225 580.194C-11.9066 578.192 -11.4148 576.223 -10.7409 574.313L-12.2397 573.784C-12.9469 575.789 -13.4617 577.851 -13.7946 579.944L-12.225 580.194ZM-10.7409 574.313C-7.94717 566.396 -2.5631 561.017 3.84293 558.666C10.2477 556.315 17.7506 556.961 24.8436 561.241L25.6648 559.88C18.1939 555.372 10.1894 554.643 3.29524 557.174C-3.59761 559.704 -9.30386 565.464 -12.2397 573.784L-10.7409 574.313ZM24.8436 561.241C25.4096 561.582 25.9644 561.942 26.5075 562.318L27.413 561.012C26.8427 560.617 26.2599 560.239 25.6648 559.88L24.8436 561.241ZM26.598 562.373C27.1291 562.645 27.6573 562.939 28.182 563.255L29.0032 561.895C28.4473 561.559 27.8869 561.247 27.3225 560.958L26.598 562.373ZM28.182 563.255C38.0414 569.205 44.3239 581.698 45.7028 596.02L47.2848 595.868C45.8768 581.243 39.4387 568.192 29.0032 561.895L28.182 563.255ZM46.4668 596.738C48.4948 596.807 50.439 597.329 52.2428 598.233L52.9549 596.812C50.9584 595.811 48.7908 595.227 46.5209 595.15L46.4668 596.738ZM53.041 598.183C53.9369 597.583 54.8802 597.085 55.8589 596.693L55.2683 595.217C54.185 595.651 53.1434 596.201 52.1567 596.862L53.041 598.183ZM55.9792 596.633C63.0327 592.305 71.4726 590.286 80.203 591.439L80.4111 589.864C71.3019 588.66 62.4972 590.769 55.1481 595.278L55.9792 596.633ZM80.203 591.439C100.863 594.168 115.37 613.655 112.55 635.009L114.126 635.217C117.055 613.039 101.986 592.714 80.4111 589.864L80.203 591.439ZM112.55 635.009C112.384 636.263 112.162 637.495 111.888 638.703L113.438 639.055C113.723 637.8 113.953 636.519 114.126 635.217L112.55 635.009ZM112.476 639.652C116.264 640.568 119.931 642.384 123.245 645.157L124.265 643.938C120.767 641.012 116.88 639.082 112.849 638.107L112.476 639.652ZM123.245 645.157C136.368 656.136 138.934 677.962 128.808 693.888L130.149 694.741C140.642 678.237 138.083 655.499 124.265 643.938L123.245 645.157ZM128.808 693.888C118.71 709.769 99.9707 713.57 86.9296 702.659L85.9097 703.878C99.8101 715.507 119.627 711.29 130.149 694.741L128.808 693.888ZM86.9296 702.659C85.695 701.626 84.5539 700.497 83.5079 699.287L82.3054 700.326C83.4058 701.6 84.6078 702.788 85.9097 703.878L86.9296 702.659ZM82.5693 699.087C80.9286 699.856 79.1658 700.273 77.331 700.273V701.862C79.4114 701.862 81.4037 701.389 83.244 700.526L82.5693 699.087ZM77.331 700.273C68.8946 700.273 61.7302 691.314 61.7302 679.805H60.1408C60.1408 691.783 67.6574 701.862 77.331 701.862V700.273ZM61.7302 679.805C61.7302 675.601 62.6983 671.702 64.3493 668.461L62.9332 667.74C61.1639 671.213 60.1408 675.36 60.1408 679.805H61.7302ZM63.877 667.341C51.1089 663.374 41.5356 652.726 38.4021 639.716L36.8569 640.088C40.1149 653.615 50.076 664.718 63.4055 668.859L63.877 667.341ZM38.0714 639.241C37.3352 638.749 36.6281 638.189 35.9553 637.567L34.8769 638.735C35.6079 639.41 36.3798 640.022 37.1877 640.562L38.0714 639.241Z" fill="url(#paint14_linear_9656_7633)" mask="url(#path-16-inside-1_9656_7633)"/>
<mask id="path-18-inside-2_9656_7633" fill="white">
<path fill-rule="evenodd" clip-rule="evenodd" d="M151.672 896.089C130.129 896.089 111.093 882.371 99.6166 861.396C91.5888 867.02 82.2488 870.244 72.2812 870.244C52.6216 870.244 35.4032 857.705 25.8794 838.931C2.5842 832.408 -15.0728 806.006 -16.2035 773.963C-55.0789 762.078 -76.1089 719.855 -63.2959 678.472C-50.24 636.306 -6.98983 610.98 33.306 621.907C63.969 630.221 84.0857 657.131 86.1986 688.101C88.1348 687.396 90.1422 686.943 92.2064 686.766C98.5825 686.218 104.684 688.375 110.022 692.583C117.066 683.657 126.654 677.776 137.441 676.85C147.065 676.024 156.139 679.272 163.577 685.413C171.007 678.697 180.276 674.329 190.476 673.453C216.415 671.226 238.644 692.424 240.466 720.935C242.75 720.971 245.045 721.219 247.333 721.693C265.943 725.548 278.063 743.106 277.652 763.333C281.372 765.103 285.611 767.407 290.5 770.426C293.268 772.134 295.075 773.97 296.88 775.804C296.959 775.884 297.038 775.964 297.117 776.045C305.883 779.158 314.51 781.77 322.662 782.369C342.014 783.789 368.426 788.8 389.198 792.742C399.051 794.611 407.635 796.24 413.594 797.13L302.261 803.424C290.637 814.335 273.346 827.601 261.579 836.065L233.191 814.643C228.661 817.695 223.315 819.457 217.59 819.457C216.738 819.457 215.894 819.418 215.061 819.342C213.27 862.113 185.574 896.089 151.672 896.089Z"/>
</mask>
<path fill-rule="evenodd" clip-rule="evenodd" d="M151.672 896.089C130.129 896.089 111.093 882.371 99.6166 861.396C91.5888 867.02 82.2488 870.244 72.2812 870.244C52.6216 870.244 35.4032 857.705 25.8794 838.931C2.5842 832.408 -15.0728 806.006 -16.2035 773.963C-55.0789 762.078 -76.1089 719.855 -63.2959 678.472C-50.24 636.306 -6.98983 610.98 33.306 621.907C63.969 630.221 84.0857 657.131 86.1986 688.101C88.1348 687.396 90.1422 686.943 92.2064 686.766C98.5825 686.218 104.684 688.375 110.022 692.583C117.066 683.657 126.654 677.776 137.441 676.85C147.065 676.024 156.139 679.272 163.577 685.413C171.007 678.697 180.276 674.329 190.476 673.453C216.415 671.226 238.644 692.424 240.466 720.935C242.75 720.971 245.045 721.219 247.333 721.693C265.943 725.548 278.063 743.106 277.652 763.333C281.372 765.103 285.611 767.407 290.5 770.426C293.268 772.134 295.075 773.97 296.88 775.804C296.959 775.884 297.038 775.964 297.117 776.045C305.883 779.158 314.51 781.77 322.662 782.369C342.014 783.789 368.426 788.8 389.198 792.742C399.051 794.611 407.635 796.24 413.594 797.13L302.261 803.424C290.637 814.335 273.346 827.601 261.579 836.065L233.191 814.643C228.661 817.695 223.315 819.457 217.59 819.457C216.738 819.457 215.894 819.418 215.061 819.342C213.27 862.113 185.574 896.089 151.672 896.089Z" fill="url(#paint15_linear_9656_7633)"/>
<path d="M99.6166 861.396L100.314 860.993L99.9025 860.24L99.1788 860.748L99.6166 861.396ZM151.672 896.089L151.699 895.292L151.672 896.089ZM72.2812 870.244L72.3091 869.447L72.2812 870.244ZM25.8794 838.931L26.5884 838.55L26.4378 838.253L26.1169 838.163L25.8794 838.931ZM-16.2035 773.963L-15.4112 773.907L-15.4305 773.358L-15.9485 773.2L-16.2035 773.963ZM-63.2959 678.472L-64.0522 678.26L-63.2959 678.472ZM33.306 621.907L33.0746 622.676L33.306 621.907ZM86.1986 688.101L85.4077 688.183L85.4772 689.201L86.4452 688.848L86.1986 688.101ZM110.022 692.583L109.519 693.216L110.134 693.701L110.636 693.064L110.022 692.583ZM163.577 685.413L163.061 686.036L163.579 686.464L164.096 685.997L163.577 685.413ZM240.466 720.935L239.675 721.014L239.72 721.72L240.426 721.731L240.466 720.935ZM247.333 721.693L247.147 722.474L247.333 721.693ZM277.652 763.333L276.86 763.345L276.85 763.844L277.293 764.055L277.652 763.333ZM290.5 770.426L290.932 769.743L290.5 770.426ZM296.88 775.804L297.453 775.233L296.88 775.804ZM297.117 776.045L296.544 776.615L296.666 776.738L296.83 776.797L297.117 776.045ZM322.662 782.369L322.577 783.163L322.662 782.369ZM389.198 792.742L389.025 793.525L389.198 792.742ZM413.594 797.13L413.611 797.926L413.738 796.342L413.594 797.13ZM302.261 803.424L302.244 802.628L301.95 802.645L301.731 802.851L302.261 803.424ZM261.579 836.065L261.088 836.708L261.545 837.053L262.025 836.707L261.579 836.065ZM233.191 814.643L233.681 814L233.24 813.667L232.766 813.986L233.191 814.643ZM217.59 819.457L217.618 818.661L217.59 819.457ZM215.061 819.342L215.16 818.549L214.305 818.47L214.269 819.336L215.061 819.342ZM98.9188 861.798C110.49 882.947 129.747 896.886 151.644 896.886L151.699 895.292C130.512 895.292 111.696 881.796 100.314 860.993L98.9188 861.798ZM72.2533 871.04C82.3966 871.04 91.898 867.759 100.054 862.044L99.1788 860.748C91.2796 866.282 82.101 869.447 72.3091 869.447L72.2533 871.04ZM25.1705 839.312C34.793 858.281 52.2404 871.04 72.2534 871.04L72.3091 869.447C53.0028 869.447 36.0133 857.129 26.5884 838.55L25.1705 839.312ZM-16.9957 774.019C-15.8571 806.289 1.93255 833.06 25.6419 839.699L26.1169 838.163C3.23586 831.756 -14.2885 805.723 -15.4112 773.907L-16.9957 774.019ZM-64.0522 678.26C-76.9876 720.038 -55.7629 762.71 -16.4584 774.726L-15.9485 773.2C-54.3949 761.447 -75.2303 719.671 -62.5396 678.684L-64.0522 678.26ZM33.5374 621.137C-7.19767 610.092 -50.8731 635.696 -64.0522 678.26L-62.5396 678.684C-49.6069 636.916 -6.78199 611.869 33.0746 622.676L33.5374 621.137ZM86.9896 688.018C84.8557 656.743 64.5363 629.542 33.5374 621.137L33.0746 622.676C63.4018 630.899 83.3156 657.519 85.4077 688.183L86.9896 688.018ZM92.1665 685.972C90.0303 686.155 87.9535 686.624 85.9521 687.353L86.4452 688.848C88.3162 688.168 90.254 687.73 92.2462 687.559L92.1665 685.972ZM110.524 691.95C105.065 687.646 98.7758 685.405 92.1665 685.972L92.2462 687.559C98.3892 687.032 104.303 689.105 109.519 693.216L110.524 691.95ZM137.401 676.057C126.355 677.005 116.569 683.026 109.407 692.102L110.636 693.064C117.562 684.288 126.953 678.548 137.48 677.644L137.401 676.057ZM164.093 684.791C156.522 678.541 147.255 675.211 137.401 676.057L137.48 677.644C146.876 676.838 155.755 680.004 163.061 686.036L164.093 684.791ZM190.436 672.659C180.047 673.551 170.612 678.001 163.058 684.83L164.096 685.997C171.401 679.393 180.504 675.106 190.516 674.247L190.436 672.659ZM241.258 720.856C239.412 691.985 216.878 670.389 190.436 672.659L190.516 674.247C215.952 672.063 237.876 692.863 239.675 721.014L241.258 720.856ZM247.519 720.913C245.183 720.429 242.839 720.175 240.507 720.138L240.426 721.731C242.661 721.767 244.908 722.01 247.147 722.474L247.519 720.913ZM278.445 763.321C278.862 742.782 266.548 724.854 247.519 720.913L247.147 722.474C265.338 726.242 277.264 743.429 276.86 763.345L278.445 763.321ZM290.932 769.743C286.023 766.713 281.76 764.394 278.012 762.611L277.293 764.055C280.984 765.811 285.198 768.102 290.068 771.109L290.932 769.743ZM297.453 775.233C295.647 773.399 293.785 771.504 290.932 769.743L290.068 771.109C292.75 772.764 294.502 774.54 296.307 776.374L297.453 775.233ZM297.69 775.474C297.611 775.394 297.532 775.314 297.453 775.233L296.307 776.374C296.386 776.454 296.465 776.535 296.544 776.615L297.69 775.474ZM322.747 781.574C314.706 780.984 306.162 778.403 297.405 775.292L296.83 776.797C305.604 779.913 314.314 782.556 322.577 783.163L322.747 781.574ZM389.372 791.959C368.615 788.02 342.153 782.999 322.747 781.574L322.577 783.163C341.874 784.58 368.237 789.581 389.025 793.525L389.372 791.959ZM413.738 796.342C407.797 795.455 399.231 793.829 389.372 791.959L389.025 793.525C398.871 795.393 407.473 797.025 413.451 797.918L413.738 796.342ZM302.278 804.219L413.611 797.926L413.577 796.335L302.244 802.628L302.278 804.219ZM262.025 836.707C273.802 828.236 291.127 814.946 302.791 803.997L301.731 802.851C290.146 813.725 272.89 826.966 261.132 835.423L262.025 836.707ZM232.701 815.286L261.088 836.708L262.069 835.422L233.681 814L232.701 815.286ZM217.562 820.254C223.453 820.254 228.956 818.44 233.616 815.3L232.766 813.986C228.366 816.95 223.178 818.661 217.618 818.661L217.562 820.254ZM214.961 820.135C215.819 820.214 216.686 820.254 217.562 820.254L217.618 818.661C216.79 818.661 215.97 818.623 215.16 818.549L214.961 820.135ZM151.644 896.886C186.148 896.886 214.052 862.368 215.853 819.347L214.269 819.336C212.488 861.858 185.001 895.292 151.699 895.292L151.644 896.886Z" fill="url(#paint16_linear_9656_7633)" mask="url(#path-18-inside-2_9656_7633)"/>
<path d="M611.035 792.024C596.308 691.395 492.781 644.721 395.89 611.762C534.851 649.355 621.187 701.782 636.391 792.024L611.035 792.024Z" fill="url(#paint17_linear_9656_7633)" stroke="url(#paint18_linear_9656_7633)" stroke-width="0.794677"/>
<path d="M334.1 518.556C288.407 507.86 301.525 477.532 314.958 472.323C298.818 471.583 292.253 477.596 291.798 481.287C288.579 482.932 275.551 489.278 276.698 499.161C279.649 519.572 318.488 520.401 334.1 518.556Z" fill="url(#paint19_linear_9656_7633)" fill-opacity="0.5"/>
<path fill-rule="evenodd" clip-rule="evenodd" d="M359.454 703.215C365.008 704.549 371.058 705.222 377.401 705.106C384.388 708.059 392.819 709.618 401.904 709.274C408.577 709.022 414.909 707.77 420.583 705.743C425.122 706.607 430.002 706.985 435.087 706.793C446.107 706.376 456.197 703.352 463.947 698.69C497.298 701.197 596.653 663.901 644.031 644.115C585.094 666.777 512.355 668.037 476.004 665.439C469.435 655.275 453.753 648.547 435.412 649.24C431.097 649.403 426.925 649.966 422.98 650.87C414.044 641.255 397.841 635.222 379.3 635.923C353.665 636.891 332.357 650.401 328.499 667.132C316.087 670.82 307.391 678.464 307.343 686.976C307.278 698.462 322.987 707.177 342.429 706.442C348.598 706.209 354.402 705.053 359.454 703.215Z" fill="url(#paint20_linear_9656_7633)"/>
<path d="M377.401 705.106L377.612 704.644L377.518 704.604L377.414 704.606L377.401 705.106ZM359.454 703.215L359.59 702.728L359.445 702.693L359.301 702.745L359.454 703.215ZM420.583 705.743L420.697 705.251L420.564 705.226L420.434 705.272L420.583 705.743ZM463.947 698.69L464.006 698.191L463.845 698.179L463.703 698.264L463.947 698.69ZM644.031 644.115L644.206 644.576L643.869 643.649L644.031 644.115ZM476.004 665.439L475.581 665.724L475.709 665.921L475.947 665.938L476.004 665.439ZM422.98 650.87L422.608 651.22L422.795 651.421L423.071 651.358L422.98 650.87ZM328.499 667.132L328.622 667.611L328.917 667.524L328.986 667.225L328.499 667.132ZM307.343 686.976L306.844 686.995L307.343 686.976ZM377.414 704.606C371.111 704.721 365.103 704.052 359.59 702.728L359.317 703.702C364.913 705.045 371.004 705.723 377.388 705.606L377.414 704.606ZM401.907 708.774C392.889 709.115 384.53 707.567 377.612 704.644L377.19 705.568C384.246 708.55 392.749 710.12 401.901 709.774L401.907 708.774ZM420.434 705.272C414.81 707.281 408.53 708.524 401.907 708.774L401.901 709.774C408.625 709.52 415.008 708.259 420.733 706.213L420.434 705.272ZM435.09 706.293C430.042 706.483 425.199 706.108 420.697 705.251L420.47 706.235C425.045 707.105 429.963 707.486 435.084 707.293L435.09 706.293ZM463.703 698.264C456.037 702.876 446.034 705.879 435.09 706.293L435.084 707.293C446.181 706.873 456.357 703.828 464.19 699.116L463.703 698.264ZM463.888 699.189C472.308 699.822 484.836 697.944 499.586 694.49C514.351 691.032 531.393 685.982 548.866 680.237C583.812 668.748 620.508 654.472 644.206 644.576L643.856 643.655C620.176 653.544 583.506 667.809 548.592 679.288C531.135 685.027 514.124 690.067 499.399 693.516C484.659 696.968 472.261 698.812 464.006 698.191L463.888 699.189ZM643.869 643.649C585.035 666.272 512.381 667.536 476.061 664.94L475.947 665.938C512.328 668.538 585.153 667.283 644.192 644.581L643.869 643.649ZM435.409 649.74C453.648 649.051 469.134 655.749 475.581 665.724L476.427 665.155C469.736 654.802 453.858 648.043 435.415 648.74L435.409 649.74ZM423.071 651.358C426.985 650.461 431.125 649.902 435.409 649.74L435.415 648.74C431.069 648.904 426.865 649.471 422.889 650.383L423.071 651.358ZM379.298 636.423C397.734 635.726 413.788 641.729 422.608 651.22L423.353 650.521C414.3 640.78 397.948 634.718 379.303 635.423L379.298 636.423ZM328.986 667.225C330.874 659.035 337.049 651.579 345.983 646.039C354.912 640.501 366.559 636.904 379.298 636.423L379.303 635.423C366.407 635.91 354.582 639.552 345.484 645.194C336.39 650.834 329.982 658.498 328.013 667.04L328.986 667.225ZM307.843 686.957C307.866 682.883 309.957 678.974 313.614 675.606C317.273 672.238 322.473 669.438 328.622 667.611L328.377 666.653C322.114 668.514 316.76 671.38 312.955 674.883C309.15 678.388 306.869 682.557 306.844 686.995L307.843 686.957ZM342.432 705.942C332.784 706.307 324.088 704.325 317.827 700.852C311.556 697.372 307.812 692.451 307.843 686.957L306.844 686.995C306.81 692.986 310.887 698.166 317.315 701.732C323.753 705.304 332.632 707.313 342.426 706.942L342.432 705.942ZM359.301 702.745C354.303 704.564 348.552 705.711 342.432 705.942L342.426 706.942C348.645 706.707 354.502 705.541 359.606 703.684L359.301 702.745Z" fill="url(#paint21_linear_9656_7633)"/>
<path fill-rule="evenodd" clip-rule="evenodd" d="M-22.7875 350.659C-22.2018 354.792 -20.9733 358.779 -19.0621 362.419C-19.2918 368.457 -18.0504 374.423 -15.1786 379.519C-13.0693 383.262 -10.3001 386.146 -7.1326 388.135C-6.48275 391.363 -5.36666 394.471 -3.75945 397.323C-0.276143 403.505 4.91649 407.424 10.6772 408.893C18.3635 430.082 75.1919 463.722 103.807 478.445C69.6889 458.845 47.8262 417.062 39.347 394.057C45.1628 383.514 45.7554 369.896 39.958 359.607C38.5942 357.187 36.9683 355.114 35.1489 353.398C39.8685 341.83 39.7843 328.365 33.9239 317.965C25.8211 303.586 9.45619 300 -4.33471 308.761C-10.6975 303.918 -18.9914 303.859 -25.4568 309.437C-34.1816 316.964 -36.2728 331.906 -30.1274 342.812C-28.1774 346.272 -25.6324 348.911 -22.7875 350.659Z" fill="url(#paint22_linear_9656_7633)"/>
<path d="M-19.0621 362.419L-18.7039 362.409L-18.6989 362.278L-18.7555 362.17L-19.0621 362.419ZM-22.7875 350.659L-22.4339 350.559L-22.462 350.361L-22.6078 350.271L-22.7875 350.659ZM-7.1326 388.135L-6.78383 388.007L-6.81917 387.831L-6.95043 387.749L-7.1326 388.135ZM10.6772 408.893L11.0073 408.698L10.94 408.512L10.7739 408.47L10.6772 408.893ZM103.807 478.445L103.648 478.845L103.979 478.052L103.807 478.445ZM39.347 394.057L39.0526 393.834L38.9388 394.04L39.0177 394.254L39.347 394.057ZM35.1489 353.398L34.8292 353.229L34.7011 353.543L34.9165 353.746L35.1489 353.398ZM-4.33471 308.761L-4.54042 309.131L-4.37194 309.259L-4.18503 309.141L-4.33471 308.761ZM-25.4568 309.437L-25.6518 309.09L-25.4568 309.437ZM-18.7555 362.17C-20.6426 358.576 -21.8556 354.639 -22.4339 350.559L-23.141 350.76C-22.548 354.945 -21.3039 358.983 -19.3688 362.668L-18.7555 362.17ZM-14.8778 379.259C-17.7067 374.239 -18.9304 368.362 -18.7039 362.409L-19.4203 362.429C-19.6533 368.552 -18.3941 374.606 -15.4795 379.778L-14.8778 379.259ZM-6.95043 387.749C-10.0717 385.788 -12.7997 382.947 -14.8778 379.259L-15.4795 379.778C-13.339 383.577 -10.5286 386.504 -7.31478 388.522L-6.95043 387.749ZM-3.45859 397.064C-5.04322 394.252 -6.14331 391.188 -6.78383 388.007L-7.48138 388.264C-6.8222 391.538 -5.69009 394.691 -4.0603 397.583L-3.45859 397.064ZM10.7739 408.47C5.09334 407.021 -0.0249559 403.157 -3.45859 397.064L-4.0603 397.583C-0.527326 403.852 4.73964 407.827 10.5805 409.317L10.7739 408.47ZM10.3471 409.089C12.3049 414.486 17.3586 420.613 24.2169 426.979C31.0891 433.358 39.8217 440.019 49.2006 446.473C67.9592 459.382 89.3321 471.479 103.648 478.845L103.966 478.045C89.6668 470.687 68.318 458.603 49.5871 445.714C40.2211 439.269 31.517 432.628 24.6779 426.28C17.8249 419.919 12.8927 413.895 11.0073 408.698L10.3471 409.089ZM103.979 478.052C69.9613 458.51 48.1408 416.825 39.6763 393.859L39.0177 394.254C47.5115 417.3 69.4166 459.18 103.635 478.838L103.979 478.052ZM39.6572 359.867C45.371 370.007 44.7899 383.434 39.0526 393.834L39.6413 394.279C45.5357 383.594 46.1399 369.784 40.2589 359.348L39.6572 359.867ZM34.9165 353.746C36.7097 355.437 38.3125 357.481 39.6572 359.867L40.2589 359.348C38.8759 356.894 37.2269 354.791 35.3813 353.051L34.9165 353.746ZM33.623 318.225C39.4079 328.49 39.4961 341.79 34.8292 353.229L35.4685 353.568C40.2409 341.87 40.1607 328.24 34.2247 317.706L33.623 318.225ZM-4.18503 309.141C9.45894 300.474 25.6257 304.033 33.623 318.225L34.2247 317.706C26.0164 303.139 9.45344 299.527 -4.4844 308.381L-4.18503 309.141ZM-25.2617 309.783C-18.9344 304.324 -10.7995 304.368 -4.54042 309.131L-4.12901 308.39C-10.5955 303.469 -19.0483 303.394 -25.6518 309.09L-25.2617 309.783ZM-29.8266 342.552C-35.8797 331.81 -33.7975 317.147 -25.2617 309.783L-25.6518 309.09C-34.5658 316.781 -36.6658 332.002 -30.4283 343.071L-29.8266 342.552ZM-22.6078 350.271C-25.4041 348.552 -27.9075 345.958 -29.8266 342.552L-30.4283 343.071C-28.4473 346.587 -25.8606 349.269 -22.9671 351.048L-22.6078 350.271Z" fill="url(#paint23_linear_9656_7633)"/>
<path fill-rule="evenodd" clip-rule="evenodd" d="M76.6488 99.0784C79.0347 103.198 82.1517 106.094 85.2965 107.478C84.2735 113.683 85.5291 121.01 89.1653 127.288C92.7606 133.496 97.8848 137.301 102.903 138.147C104.259 140.371 105.758 142.316 107.329 143.945C107.392 144.164 107.459 144.386 107.532 144.614C110.794 154.876 134.594 171.981 155.157 186.759C164.175 193.24 172.57 199.273 178.337 204.086C156.425 184.643 134.885 158.86 126.488 142.813C128.306 136.741 126.833 127.744 122.243 119.82C121.767 118.997 121.27 118.209 120.757 117.459C127.443 109.018 127.929 94.5535 121.454 83.3723C114.303 71.0254 101.371 67.3576 92.5699 75.18C91.7547 75.9045 91.0036 76.7021 90.3173 77.563C85.7923 73.3976 80.4398 72.4387 76.7561 75.7126C71.783 80.1326 71.735 90.5938 76.6488 99.0784Z" fill="url(#paint24_linear_9656_7633)" fill-opacity="0.6"/>
<path fill-rule="evenodd" clip-rule="evenodd" d="M707.499 399.26C704.284 400.592 701.172 400.987 698.706 400.552C696.593 404.298 692.642 407.793 687.742 409.823C682.896 411.831 678.199 411.961 674.86 410.529C673.084 411.223 671.346 411.711 669.703 412.002C669.57 412.097 669.433 412.192 669.29 412.288C660.05 418.516 618.681 422.156 600.575 423.58C622.031 421.306 646.707 410.599 658.82 404.293C660.353 400.286 665.2 395.907 671.447 393.318C672.09 393.052 672.728 392.812 673.36 392.599C673.102 385.509 679.149 377.492 687.876 373.876C697.513 369.883 706.768 372.768 708.548 380.32C708.713 381.019 708.808 381.734 708.837 382.459C713.338 381.907 716.924 383.404 717.669 386.565C718.674 390.832 714.121 396.516 707.499 399.26Z" fill="url(#paint25_linear_9656_7633)" fill-opacity="0.9"/>
<path fill-rule="evenodd" clip-rule="evenodd" d="M681.99 589.719C684.438 589.774 686.996 589.435 689.565 588.659C692.822 589.38 696.473 589.226 700.128 588.024C702.812 587.141 705.219 585.785 707.251 584.108C709.22 584.037 711.261 583.679 713.306 583.006C717.739 581.549 721.432 578.862 723.944 575.603C737.883 573.118 773.204 542.821 789.769 527.351C768.892 545.598 739.425 554.458 724.252 557.235C720.167 552.779 712.844 551.109 705.466 553.535C703.73 554.106 702.108 554.865 700.626 555.773C695.652 551.864 688.214 550.609 680.755 553.061C670.443 556.452 663.631 565.768 664.377 574.761C659.83 578.049 657.345 582.941 658.505 587.299C660.07 593.181 667.678 595.865 675.499 593.293C677.981 592.477 680.186 591.23 681.99 589.719Z" fill="url(#paint26_linear_9656_7633)"/>
<path d="M689.565 588.659L689.665 588.265L689.569 588.243L689.472 588.272L689.565 588.659ZM681.99 589.719L682.017 589.316L681.87 589.313L681.752 589.411L681.99 589.719ZM707.251 584.108L707.256 583.704L707.122 583.709L707.016 583.797L707.251 584.108ZM723.944 575.603L723.896 575.205L723.742 575.233L723.643 575.361L723.944 575.603ZM789.769 527.351L790.024 527.644L789.525 527.048L789.769 527.351ZM724.252 557.235L723.962 557.52L724.099 557.669L724.302 557.632L724.252 557.235ZM700.626 555.773L700.38 556.098L700.583 556.258L700.813 556.117L700.626 555.773ZM680.755 553.061L680.653 552.677L680.755 553.061ZM664.377 574.761L664.591 575.088L664.787 574.947L664.767 574.708L664.377 574.761ZM689.472 588.272C686.943 589.036 684.425 589.37 682.017 589.316L681.962 590.123C684.451 590.178 687.05 589.834 689.658 589.046L689.472 588.272ZM700.026 587.64C696.436 588.82 692.854 588.971 689.665 588.265L689.466 589.054C692.789 589.79 696.51 589.631 700.23 588.408L700.026 587.64ZM707.016 583.797C705.024 585.442 702.663 586.773 700.026 587.64L700.23 588.408C702.962 587.509 705.414 586.129 707.486 584.418L707.016 583.797ZM713.204 582.622C711.194 583.284 709.189 583.635 707.256 583.704L707.245 584.511C709.251 584.439 711.328 584.074 713.409 583.39L713.204 582.622ZM723.643 575.361C721.185 578.551 717.563 581.189 713.204 582.622L713.409 583.39C717.916 581.908 721.68 579.174 724.246 575.845L723.643 575.361ZM723.993 576.001C727.558 575.365 732.436 572.968 737.97 569.534C743.517 566.092 749.769 561.579 756.097 556.665C768.753 546.836 781.734 535.386 790.024 527.644L789.515 527.058C781.239 534.787 768.277 546.219 755.646 556.028C749.331 560.933 743.104 565.427 737.591 568.848C732.064 572.277 727.3 574.599 723.896 575.205L723.993 576.001ZM789.525 527.048C768.729 545.225 739.344 554.066 724.202 556.838L724.302 557.632C739.505 554.85 769.055 545.971 790.014 527.654L789.525 527.048ZM705.568 553.919C712.83 551.531 719.992 553.19 723.962 557.52L724.542 556.95C720.341 552.368 712.858 550.687 705.364 553.151L705.568 553.919ZM700.813 556.117C702.268 555.226 703.862 554.48 705.568 553.919L705.364 553.151C703.599 553.731 701.948 554.504 700.438 555.428L700.813 556.117ZM680.858 553.445C688.207 551.029 695.513 552.274 700.38 556.098L700.872 555.447C695.791 551.455 688.22 550.189 680.653 552.677L680.858 553.445ZM664.767 574.708C664.04 565.951 670.684 556.791 680.858 553.445L680.653 552.677C670.202 556.114 663.222 565.586 663.988 574.815L664.767 574.708ZM658.882 587.175C657.783 583.044 660.125 578.317 664.591 575.088L664.163 574.434C659.535 577.781 656.907 582.837 658.127 587.424L658.882 587.175ZM675.397 592.909C671.559 594.171 667.788 594.138 664.798 593.084C661.808 592.029 659.625 589.966 658.882 587.175L658.127 587.424C658.95 590.515 661.353 592.734 664.514 593.849C667.675 594.964 671.618 594.987 675.601 593.677L675.397 592.909ZM681.752 589.411C679.99 590.886 677.831 592.108 675.397 592.909L675.601 593.677C678.13 592.845 680.382 591.573 682.227 590.028L681.752 589.411Z" fill="url(#paint27_linear_9656_7633)"/>
<path d="M448.877 378.189C428.187 392.379 397.378 400.419 384.56 402.666C383.476 409.308 383.408 423.6 391.809 427.624C399.31 431.216 403.307 434.671 404.755 436.382C404.803 436.629 404.994 436.818 405.168 436.921C405.066 436.768 404.929 436.588 404.755 436.382C404.697 436.084 404.85 435.701 405.5 435.283C406.983 434.328 410.912 438.637 412.487 441.888C413.747 444.489 414.338 449.354 414.477 451.462C414.532 451.243 414.706 450.776 414.955 450.668C418.304 443.759 417.713 435.72 416.999 432.565C420.786 435.863 422.234 440.95 422.799 443.908C423.831 452.359 426.999 454.966 429.086 456.685L429.102 456.698C431.189 458.416 441.705 461.234 444.046 457.343L446.777 452.802C452.363 445.999 453.078 450.015 454.225 451.099C455.372 452.183 455.517 450.634 455.559 448.882C455.601 447.13 452.996 447.443 454.323 446.594C455.65 445.744 458.779 445.802 460.368 447.304C468.797 459.267 475.693 466.356 487.405 472.861C507.545 483.909 543.335 487.132 543.956 486.486C544.453 485.969 544.812 485.785 544.93 485.758C561.771 492.499 577.437 493.841 583.165 493.669L583.539 493.047C587.73 494.982 600.921 498.517 608.932 500.536C609.895 500.838 610.764 501.057 611.517 501.179C610.742 500.989 609.873 500.773 608.932 500.536C600.729 497.965 585.749 489.448 578.6 485.076C584.463 487.832 598.962 488.761 606.355 488.909C606.766 488.95 607.091 488.957 607.319 488.924C607.014 488.92 606.692 488.915 606.355 488.909C601.132 488.378 582.051 482.157 572.499 478.879L571.718 478.141C594.49 484.268 622.19 484.458 633.193 483.787C626.514 484.054 599.794 477.925 582.059 473.548C596.639 474.818 621.036 469.073 617.323 468.786C612.809 468.436 593.631 473.01 564.308 461.14C534.985 449.27 498.065 414.895 485.529 401.278C472.992 387.662 454.058 375.294 448.877 378.189Z" fill="url(#paint28_linear_9656_7633)"/>
<path d="M473.151 455.346C470.576 453.133 464.246 446.399 459.521 437.169" stroke="url(#paint29_linear_9656_7633)" stroke-width="0.500392" stroke-linecap="round"/>
<path d="M583.715 493.555C565.696 494.084 522.087 485.143 491.807 445.143" stroke="url(#paint30_linear_9656_7633)" stroke-width="0.714845"/>
<path d="M543.803 486.534C529.736 485.843 497.035 481.049 478.764 467.399C475.384 464.42 466.849 455.821 460.18 447.19C457.982 445.112 444.586 445.113 440.715 452.12" stroke="url(#paint31_linear_9656_7633)" stroke-width="0.714845" stroke-linecap="round"/>
<path d="M453.738 450.533C452.498 448.391 448.893 446.664 444.395 456.893C442.412 460.189 435.001 459.325 430.96 457.445C426.919 455.565 424.689 451.703 423.79 448.729C422.881 445.72 422.481 437.148 416.957 432.573C417.801 436.711 418.421 446.304 414.148 451.574C414.889 447.857 415.595 438.849 412.488 432.551" stroke="url(#paint32_linear_9656_7633)" stroke-width="0.714845" stroke-linecap="round"/>
<path d="M412.507 442.265C411.747 440.47 409.577 436.587 406.971 435.417C404.365 434.246 405.059 436.303 405.732 437.477C404.221 435.403 398.282 429.963 391.419 427.613" stroke="url(#paint33_linear_9656_7633)" stroke-width="0.714845" stroke-linecap="round"/>
<path d="M526.108 454.616L525.789 454.585L525.801 453.878L526.282 454.302L526.108 454.616ZM530.59 459.246C530.743 459.364 530.796 459.607 530.709 459.789C530.622 459.971 530.428 460.022 530.275 459.904L530.59 459.246ZM541.529 464.156C539.763 463.351 536.868 461.927 533.916 460.267C530.97 458.609 527.945 456.703 525.933 454.931L526.282 454.302C528.238 456.023 531.212 457.901 534.152 459.556C537.087 461.207 539.966 462.623 541.719 463.421L541.529 464.156ZM526.426 454.648C526.426 454.666 526.435 455.024 526.982 455.793C527.526 456.557 528.577 457.691 530.59 459.246L530.275 459.904C528.233 458.327 527.12 457.142 526.514 456.29C525.911 455.443 525.784 454.888 525.789 454.585L526.426 454.648Z" fill="url(#paint34_linear_9656_7633)"/>
<path d="M516.488 474.923C511.784 473.55 493.913 455.601 489.44 445.024C485.024 433.986 490.47 443.63 492.283 445.758" stroke="url(#paint35_linear_9656_7633)" stroke-width="0.714845"/>
<path d="M610.372 500.863C610.935 500.997 611.451 501.089 611.912 501.137C611.442 501.06 610.928 500.969 610.372 500.863Z" fill="url(#paint36_linear_9656_7633)"/>
<path d="M571.89 478.821C581.824 482.178 602.656 488.896 606.506 488.916C611.319 488.94 589.165 489.655 578.265 484.847C586.666 489.987 605.158 500.442 611.912 501.137C603.227 499.715 579.64 493.452 554.769 479.769" stroke="url(#paint37_linear_9656_7633)" stroke-width="0.714845"/>
<path d="M579.006 472.715C577.103 472.333 575.261 471.825 573.516 471.167C574.968 471.6 576.817 472.125 579.006 472.715Z" fill="url(#paint38_linear_9656_7633)"/>
<path d="M384.288 403.048C397.913 400.552 425.803 392.365 447.452 379.138C454.77 374.361 468.562 386.712 479.351 395.539C490.141 404.366 550.252 473.532 604.684 469.42C610.58 469.218 614.753 469.568 618.152 468.928C621.55 468.288 592.051 478.157 573.516 471.167C582.652 473.895 607.512 480.238 633.871 483.786C611.482 485.48 559.253 482.853 529.452 458.793" stroke="url(#paint39_linear_9656_7633)" stroke-width="0.714845" stroke-linecap="round"/>
<path d="M425.321 422.28C418.758 417.507 410.643 417.441 405.482 416.697C412.723 413.894 417.062 414.716 420.61 415.99C425.312 417.678 429.732 425.489 425.321 422.28Z" fill="url(#paint40_linear_9656_7633)" stroke="url(#paint41_linear_9656_7633)" stroke-width="0.500392" stroke-linecap="round"/>
<path d="M431.602 404.885C427.043 400.818 413.601 400.148 404.364 410.231" stroke="url(#paint42_linear_9656_7633)" stroke-width="0.500392" stroke-linecap="round"/>
<path d="M431.603 404.922C425.603 404.92 416.776 403.547 404.323 410.42" stroke="url(#paint43_linear_9656_7633)" stroke-width="0.500392" stroke-linecap="round"/>
<path d="M305.581 320.578C305.846 345.664 316.957 375.504 322.48 387.288C317.664 391.99 306.003 400.253 297.885 395.686C290.636 391.609 285.512 390.321 283.279 390.118C283.05 390.221 282.786 390.172 282.602 390.089C282.785 390.085 283.011 390.094 283.279 390.118C283.557 389.994 283.783 389.649 283.752 388.877C283.682 387.115 277.898 386.372 274.332 386.95C271.479 387.412 267.156 389.722 265.351 390.82C265.499 390.648 265.781 390.238 265.727 389.972C269.46 383.262 276.38 379.13 279.373 377.902C274.498 376.696 269.502 378.432 266.756 379.668C259.245 383.676 255.291 382.581 252.686 381.859L252.666 381.854C250.061 381.132 241.714 374.141 243.556 369.99L245.704 365.146C248.066 356.667 244.367 358.387 242.821 358.071C241.276 357.755 242.46 356.747 243.87 355.706C245.28 354.666 246.52 356.978 246.453 355.404C246.387 353.829 244.542 351.301 242.4 350.863C227.766 350.832 218.002 349.258 205.951 343.406C185.34 333.263 162.148 305.815 162.32 304.936C162.458 304.232 162.402 303.832 162.357 303.72C147.166 293.804 137.071 281.75 133.922 276.962L134.216 276.299C130.225 273.98 119.756 265.211 113.503 259.812C112.703 259.197 112.023 258.611 111.492 258.065C112.092 258.59 112.768 259.178 113.503 259.812C120.318 265.051 135.894 272.423 143.578 275.765C137.955 272.548 128.867 261.211 124.501 255.244C124.231 254.931 124.039 254.669 123.935 254.463C124.113 254.711 124.302 254.972 124.501 255.244C127.935 259.215 143.986 271.263 152.156 277.2L153.208 277.416C135.115 262.292 119.051 239.725 113.281 230.331C116.898 235.953 137.261 254.307 151.029 266.312C141.617 255.106 132.309 231.834 134.676 234.709C137.555 238.204 144.824 256.53 171.382 273.718C197.939 290.907 247.283 301.389 265.629 303.833C283.976 306.276 304.975 314.674 305.581 320.578Z" fill="url(#paint44_linear_9656_7633)"/>
<path d="M228.476 345.016C231.766 345.853 240.914 347.169 251.184 345.736" stroke="url(#paint45_linear_9656_7633)" stroke-width="0.500392" stroke-linecap="round"/>
<path d="M133.699 276.446C143.614 291.502 175.978 322.067 226.113 323.885" stroke="url(#paint46_linear_9656_7633)" stroke-width="0.714845"/>
<path d="M162.368 305.088C171.012 316.208 193.717 340.225 215.384 347.343C219.764 348.399 231.705 350.448 242.601 350.951C245.565 351.557 253.257 362.524 249.743 369.718" stroke="url(#paint47_linear_9656_7633)" stroke-width="0.714845" stroke-linecap="round"/>
<path d="M243.564 358.144C246.03 357.929 249.514 359.888 243.723 369.445C242.163 372.962 247.127 378.533 250.987 380.761C254.847 382.989 259.289 382.597 262.24 381.625C265.225 380.641 272.473 376.046 279.39 377.941C275.518 379.626 267.309 384.628 265.449 391.152C268.065 388.411 275.034 382.66 281.975 381.586" stroke="url(#paint48_linear_9656_7633)" stroke-width="0.714845" stroke-linecap="round"/>
<path d="M274.011 387.15C275.917 386.741 280.341 386.287 282.796 387.749C285.251 389.21 283.169 389.823 281.821 389.947C284.387 389.992 292.252 391.73 298.116 395.999" stroke="url(#paint49_linear_9656_7633)" stroke-width="0.714845" stroke-linecap="round"/>
<path d="M198.66 301.244L198.868 301.487L199.44 301.071L198.817 300.921L198.66 301.244ZM192.296 300.234C192.111 300.176 191.882 300.272 191.783 300.448C191.684 300.624 191.753 300.812 191.938 300.87L192.296 300.234ZM181.994 294.098C183.667 295.082 186.495 296.634 189.55 298.097C192.599 299.557 195.897 300.938 198.502 301.568L198.817 300.921C196.285 300.308 193.039 298.952 189.996 297.495C186.959 296.041 184.146 294.497 182.487 293.521L181.994 294.098ZM198.451 301.002C198.437 301.012 198.138 301.211 197.195 301.204C196.256 301.198 194.724 300.988 192.296 300.234L191.938 300.87C194.402 301.635 196.011 301.866 197.056 301.873C198.096 301.88 198.623 301.665 198.868 301.487L198.451 301.002Z" fill="url(#paint50_linear_9656_7633)"/>
<path d="M187.559 320.782C191.385 323.844 216.342 328.166 227.569 325.754C239.142 323.029 228.12 324.11 225.336 323.848" stroke="url(#paint51_linear_9656_7633)" stroke-width="0.714845"/>
<path d="M112.408 258.821C111.975 258.436 111.602 258.067 111.299 257.717C111.632 258.058 112.002 258.426 112.408 258.821Z" fill="url(#paint52_linear_9656_7633)"/>
<path d="M152.552 277.665C144.099 271.461 126.635 258.265 124.408 255.124C121.625 251.198 133.762 269.745 143.958 275.907C134.925 271.981 115.747 262.847 111.299 257.717C117.45 264.011 136.124 279.723 161.609 292.226" stroke="url(#paint53_linear_9656_7633)" stroke-width="0.714845"/>
<path d="M153.464 268.334C154.869 269.672 156.344 270.887 157.884 271.938C156.696 270.998 155.204 269.786 153.464 268.334Z" fill="url(#paint54_linear_9656_7633)"/>
<path d="M322.322 387.73C316.541 375.143 307.226 347.609 305.621 322.29C305.329 313.555 287.297 309.357 273.875 305.593C260.453 301.83 169.308 292.342 141.415 245.42C138.194 240.477 135.511 237.261 134.083 234.111C132.655 230.962 141.517 260.779 157.884 271.938C150.404 266.026 130.934 249.317 112.892 229.776C124.363 249.078 156.509 290.326 193.32 300.905" stroke="url(#paint55_linear_9656_7633)" stroke-width="0.714845" stroke-linecap="round"/>
<path d="M283.012 365.183C290.689 367.814 295.403 374.419 298.976 378.217C297.113 370.68 293.947 367.599 290.867 365.426C286.785 362.547 277.853 363.414 283.012 365.183Z" fill="url(#paint56_linear_9656_7633)" stroke="url(#paint57_linear_9656_7633)" stroke-width="0.500392" stroke-linecap="round"/>
<path d="M293.646 350.051C299.593 351.447 307.861 362.067 304.911 375.419" stroke="url(#paint58_linear_9656_7633)" stroke-width="0.500392" stroke-linecap="round"/>
<path d="M293.615 350.072C297.062 354.982 303.256 361.42 304.781 375.562" stroke="url(#paint59_linear_9656_7633)" stroke-width="0.500392" stroke-linecap="round"/>
<g filter="url(#filter1_f_9656_7633)">
<ellipse cx="568.468" cy="781.55" rx="206.166" ry="29.7227" fill="#B9CEED" fill-opacity="0.5"/>
</g>
<path d="M343.389 431.167C198.11 456.899 17.55 537.7 253.571 583.222C340.493 604.84 349.917 614.145 360.649 619.337" stroke="url(#paint60_linear_9656_7633)" stroke-width="0.794677"/>
<path d="M353.229 390.689L353.229 390.689L353.238 390.692L353.504 390.799L353.77 390.905L354.034 391.01L354.297 391.115L354.559 391.22L354.82 391.324L355.08 391.428L355.339 391.532L355.597 391.635L355.853 391.738L356.109 391.84L356.364 391.942L356.618 392.043L356.871 392.144L357.123 392.245L357.373 392.345L357.623 392.445L357.872 392.544L358.12 392.643L358.366 392.742L358.612 392.84L358.857 392.938L359.101 393.035L359.343 393.132L359.585 393.229L359.826 393.325L360.066 393.421L360.305 393.517L360.542 393.612L360.779 393.706L361.015 393.8L361.25 393.894L361.484 393.988L361.717 394.081L361.949 394.174L362.18 394.266L362.41 394.358L362.639 394.449L362.867 394.541L363.094 394.631L363.32 394.722L363.545 394.812L363.77 394.901L363.993 394.991L364.215 395.08L364.437 395.168L364.657 395.256L364.877 395.344L365.095 395.431L365.313 395.518L365.53 395.605L365.745 395.691L365.96 395.777L366.174 395.862L366.387 395.947L366.599 396.032L366.81 396.116L367.02 396.2L367.229 396.284L367.438 396.367L367.645 396.45L367.851 396.533L368.057 396.615L368.262 396.697L368.465 396.778L368.668 396.859L368.87 396.94L369.071 397.02L369.271 397.1L369.47 397.18L369.669 397.259L369.866 397.338L370.063 397.416L370.258 397.495L370.453 397.572L370.647 397.65L370.84 397.727L371.032 397.804L371.223 397.88L371.413 397.956L371.603 398.032L371.791 398.107L371.979 398.182L372.166 398.257L372.352 398.331L372.537 398.405L372.721 398.479L372.904 398.552L373.087 398.625L373.268 398.698L373.449 398.77L373.629 398.842L373.808 398.913L373.986 398.985L374.163 399.055L374.34 399.126L374.516 399.196L374.69 399.266L374.864 399.335L375.037 399.405L375.21 399.474L375.381 399.542L375.552 399.61L375.721 399.678L375.89 399.746L376.058 399.813L376.226 399.88L376.392 399.946L376.558 400.012L376.723 400.078L376.887 400.144L377.05 400.209L377.212 400.274L377.374 400.338L377.535 400.403L377.694 400.467L377.854 400.53L378.012 400.593L378.169 400.656L378.326 400.719L378.482 400.781L378.637 400.843L378.792 400.905L378.945 400.966L379.098 401.027L379.25 401.088L379.401 401.149L379.551 401.209L379.701 401.269L379.85 401.328L379.998 401.387L380.145 401.446L380.292 401.505L380.438 401.563L380.582 401.621L380.727 401.678L380.87 401.736L381.013 401.793L381.155 401.85L381.296 401.906L381.436 401.962L381.576 402.018L381.715 402.073L381.853 402.129L381.99 402.184L382.127 402.238L382.263 402.292L382.398 402.346L382.533 402.4L382.666 402.454L382.799 402.507L382.931 402.56L383.063 402.612L383.194 402.664L383.324 402.716L383.453 402.768L383.581 402.819L383.709 402.871L383.836 402.921L383.963 402.972L384.089 403.022L384.214 403.072L384.338 403.122L384.461 403.171L384.584 403.22L384.706 403.269L384.828 403.318L384.949 403.366L385.069 403.414L385.188 403.461L385.307 403.509L385.425 403.556L385.542 403.603L385.658 403.649L385.774 403.696L385.889 403.742L386.004 403.788L386.118 403.833L386.231 403.878L386.343 403.923L386.455 403.968L386.566 404.012L386.677 404.056L386.787 404.1L386.896 404.144L387.004 404.187L387.112 404.23L387.219 404.273L387.325 404.316L387.431 404.358L387.536 404.4L387.641 404.442L387.745 404.483L387.848 404.525L387.951 404.566L388.052 404.606L388.154 404.647L388.254 404.687L388.354 404.727L388.454 404.767L388.552 404.806L388.65 404.845L388.748 404.884L388.845 404.923L388.941 404.961L389.037 405L389.131 405.038L389.226 405.075L389.319 405.113L389.413 405.15L389.505 405.187L389.597 405.224L389.688 405.26L389.779 405.296L389.869 405.332L389.958 405.368L390.047 405.404L390.135 405.439L390.223 405.474L390.31 405.509L390.397 405.543L390.482 405.577L390.568 405.612L390.652 405.645L390.736 405.679L390.82 405.712L390.903 405.745L390.985 405.778L391.067 405.811L391.148 405.844L391.229 405.876L391.309 405.908L391.388 405.939L391.467 405.971L391.545 406.002L391.623 406.033L391.7 406.064L391.777 406.095L391.853 406.125L391.929 406.156L392.004 406.185L392.078 406.215L392.152 406.245L392.225 406.274L392.298 406.303L392.37 406.332L392.442 406.361L392.513 406.389L392.584 406.417L392.654 406.445L392.724 406.473L392.793 406.501L392.861 406.528L392.929 406.555L392.997 406.582L393.064 406.609L393.13 406.636L393.196 406.662L393.261 406.688L393.326 406.714L393.39 406.74L393.454 406.765L393.518 406.791L393.58 406.816L393.643 406.841L393.705 406.865L393.766 406.89L393.827 406.914L393.887 406.938L393.947 406.962L394.006 406.986L394.065 407.009L394.123 407.033L394.181 407.056L394.239 407.079L394.296 407.101L394.352 407.124L394.408 407.146L394.463 407.169L394.518 407.19L394.573 407.212L394.627 407.234L394.681 407.255L394.734 407.277L394.786 407.298L394.839 407.318L394.89 407.339L394.942 407.36L394.992 407.38L395.043 407.4L395.093 407.42L395.142 407.44L395.191 407.459L395.24 407.479L395.288 407.498L395.335 407.517L395.383 407.536L395.43 407.555L395.476 407.573L395.522 407.592L395.567 407.61L395.612 407.628L395.657 407.646L395.701 407.663L395.745 407.681L395.788 407.698L395.831 407.715L395.874 407.732L395.916 407.749L395.958 407.766L395.999 407.782L396.04 407.799L396.081 407.815L396.121 407.831L396.16 407.847L396.2 407.862L396.238 407.878L396.277 407.893L396.315 407.909L396.353 407.924L396.39 407.939L396.427 407.953L396.463 407.968L396.5 407.982L396.535 407.997L396.571 408.011L396.606 408.025L396.64 408.039L396.675 408.052L396.709 408.066L396.742 408.079L396.775 408.092L396.808 408.106L396.84 408.119L396.872 408.131L396.904 408.144L396.935 408.157L396.966 408.169L396.997 408.181L397.027 408.193L397.057 408.205L397.087 408.217L397.116 408.229L397.145 408.24L397.174 408.252L397.202 408.263L397.23 408.274L397.257 408.285L397.284 408.296L397.311 408.307L397.338 408.317L397.364 408.328L397.39 408.338L397.415 408.348L397.441 408.358L397.466 408.368L397.49 408.378L397.514 408.388L397.538 408.397L397.562 408.407L397.585 408.416L397.608 408.425L397.631 408.435L397.654 408.444L397.676 408.452L397.698 408.461L397.719 408.47L397.74 408.478L397.761 408.487L397.782 408.495L397.802 408.503L397.822 408.511L397.842 408.519L397.862 408.527L397.881 408.534L397.9 408.542L397.919 408.549L397.937 408.557L397.955 408.564L397.973 408.571L397.991 408.578L398.008 408.585L398.025 408.592L398.042 408.599L398.058 408.605L398.075 408.612L398.091 408.618L398.106 408.624L398.122 408.631L398.137 408.637L398.152 408.643L398.167 408.649L398.181 408.654L398.196 408.66L398.21 408.666L398.224 408.671L398.237 408.677L398.251 408.682L398.264 408.687L398.276 408.692L398.289 408.698L398.302 408.702L398.314 408.707L398.326 408.712L398.337 408.717L398.344 408.719C389.204 429.694 378.073 440.275 366.498 444.408C354.842 448.57 342.661 446.22 331.473 441.214C320.344 436.234 312.345 426.852 308.685 414.842C305.051 402.916 305.688 388.366 311.842 372.934L311.844 372.935L311.854 372.939L311.864 372.943L311.874 372.948L311.885 372.952L311.896 372.957L311.907 372.961L311.918 372.966L311.929 372.971L311.941 372.976L311.953 372.981L311.965 372.986L311.977 372.992L311.989 372.997L312.002 373.002L312.015 373.008L312.028 373.014L312.041 373.019L312.055 373.025L312.068 373.031L312.082 373.037L312.097 373.043L312.111 373.049L312.126 373.056L312.141 373.062L312.156 373.068L312.171 373.075L312.187 373.082L312.203 373.089L312.219 373.096L312.235 373.103L312.252 373.11L312.269 373.117L312.286 373.124L312.303 373.132L312.321 373.139L312.339 373.147L312.357 373.155L312.375 373.163L312.394 373.171L312.413 373.179L312.432 373.187L312.452 373.195L312.471 373.204L312.491 373.212L312.512 373.221L312.532 373.23L312.553 373.239L312.574 373.248L312.596 373.257L312.617 373.266L312.639 373.276L312.662 373.285L312.684 373.295L312.707 373.305L312.73 373.315L312.754 373.325L312.777 373.335L312.801 373.345L312.826 373.356L312.85 373.366L312.875 373.377L312.9 373.388L312.926 373.399L312.952 373.41L312.978 373.421L313.004 373.432L313.031 373.444L313.058 373.456L313.086 373.467L313.114 373.479L313.142 373.491L313.17 373.504L313.199 373.516L313.228 373.528L313.257 373.541L313.287 373.554L313.317 373.567L313.347 373.58L313.378 373.593L313.409 373.606L313.441 373.62L313.472 373.633L313.504 373.647L313.537 373.661L313.57 373.675L313.603 373.689L313.636 373.704L313.67 373.718L313.704 373.733L313.739 373.748L313.774 373.763L313.809 373.778L313.845 373.793L313.881 373.808L313.917 373.824L313.954 373.84L313.991 373.856L314.028 373.872L314.066 373.888L314.105 373.904L314.143 373.921L314.182 373.938L314.222 373.955L314.261 373.972L314.302 373.989L314.342 374.006L314.383 374.024L314.424 374.042L314.466 374.059L314.508 374.078L314.551 374.096L314.594 374.114L314.637 374.133L314.681 374.152L314.725 374.17L314.769 374.19L314.814 374.209L314.86 374.228L314.905 374.248L314.951 374.268L314.998 374.288L315.045 374.308L315.092 374.328L315.14 374.349L315.189 374.369L315.237 374.39L315.286 374.411L315.336 374.433L315.386 374.454L315.436 374.476L315.487 374.498L315.538 374.52L315.59 374.542L315.642 374.564L315.695 374.587L315.748 374.609L315.802 374.632L315.855 374.656L315.91 374.679L315.965 374.702L316.02 374.726L316.076 374.75L316.132 374.774L316.189 374.798L316.246 374.823L316.303 374.848L316.361 374.873L316.42 374.898L316.479 374.923L316.538 374.949L316.598 374.974L316.659 375L316.72 375.026L316.781 375.053L316.843 375.079L316.905 375.106L316.968 375.133L317.031 375.16L317.095 375.187L317.159 375.215L317.224 375.243L317.289 375.271L317.355 375.299L317.421 375.327L317.488 375.356L317.555 375.385L317.623 375.414L317.691 375.443L317.76 375.473L317.829 375.502L317.899 375.532L317.969 375.562L318.04 375.593L318.111 375.623L318.183 375.654L318.255 375.685L318.328 375.716L318.402 375.748L318.476 375.78L318.55 375.812L318.625 375.844L318.701 375.876L318.777 375.909L318.853 375.942L318.93 375.975L319.008 376.008L319.086 376.041L319.165 376.075L319.244 376.109L319.324 376.143L319.404 376.178L319.485 376.213L319.566 376.248L319.648 376.283L319.731 376.318L319.814 376.354L319.898 376.39L319.982 376.426L320.067 376.462L320.152 376.499L320.238 376.536L320.324 376.573L320.411 376.61L320.499 376.648L320.587 376.685L320.676 376.724L320.765 376.762L320.855 376.8L320.946 376.839L321.037 376.878L321.128 376.918L321.221 376.957L321.314 376.997L321.407 377.037L321.501 377.077L321.596 377.118L321.691 377.159L321.787 377.2L321.883 377.241L321.98 377.283L322.078 377.325L322.176 377.367L322.275 377.409L322.374 377.452L322.474 377.495L322.575 377.538L322.676 377.582L322.778 377.625L322.88 377.669L322.983 377.713L323.087 377.758L323.192 377.803L323.297 377.848L323.402 377.893L323.508 377.939L323.615 377.984L323.723 378.031L323.831 378.077L323.94 378.124L324.049 378.171L324.159 378.218L324.27 378.265L324.381 378.313L324.493 378.361L324.606 378.409L324.719 378.458L324.833 378.507L324.947 378.556L325.063 378.605L325.179 378.655L325.295 378.705L325.412 378.755L325.53 378.806L325.649 378.857L325.768 378.908L325.888 378.959L326.008 379.011L326.13 379.063L326.251 379.115L326.374 379.168L326.497 379.221L326.621 379.274L326.746 379.327L326.871 379.381L326.997 379.435L327.124 379.489L327.251 379.544L327.379 379.599L327.508 379.654L327.637 379.71L327.767 379.766L327.898 379.822L328.029 379.878L328.162 379.935L328.295 379.992L328.428 380.049L328.562 380.107L328.698 380.165L328.833 380.223L328.97 380.281L329.107 380.34L329.245 380.399L329.383 380.459L329.523 380.519L329.663 380.579L329.803 380.639L329.945 380.7L330.087 380.761L330.23 380.822L330.374 380.884L330.518 380.946L330.663 381.008L330.809 381.071L330.956 381.134L331.103 381.197L331.251 381.26L331.4 381.324L331.55 381.388L331.7 381.453L331.851 381.518L332.003 381.583L332.156 381.648L332.309 381.714L332.463 381.78L332.618 381.847L332.774 381.913L332.93 381.98L333.087 382.048L333.245 382.116L333.404 382.184L333.563 382.252L333.724 382.321L333.885 382.39L334.046 382.459L334.209 382.529L334.372 382.599L334.536 382.67L334.701 382.74L334.867 382.811L335.033 382.883L335.201 382.955L335.369 383.027L335.538 383.099L335.707 383.172L335.878 383.245L336.049 383.318L336.221 383.392L336.394 383.466L336.567 383.541L336.742 383.616L336.917 383.691L337.093 383.766L337.27 383.842L337.448 383.919L337.626 383.995L337.806 384.072L337.986 384.149L338.167 384.227L338.349 384.305L338.531 384.383L338.715 384.462L338.899 384.541L339.084 384.62L339.27 384.7L339.457 384.78L339.644 384.861L339.833 384.942L340.022 385.023L340.212 385.104L340.403 385.186L340.595 385.269L340.788 385.351L340.981 385.434L341.175 385.518L341.371 385.601L341.567 385.685L341.764 385.77L341.961 385.855L342.16 385.94L342.36 386.026L342.56 386.112L342.761 386.198L342.963 386.285L343.166 386.372L343.37 386.459L343.575 386.547L343.78 386.635L343.987 386.724L344.194 386.813L344.402 386.902L344.611 386.992L344.821 387.082L345.032 387.172L345.244 387.263L345.457 387.354L345.67 387.446L345.885 387.538L346.1 387.63L346.316 387.723L346.533 387.816L346.751 387.91L346.97 388.004L347.19 388.098L347.411 388.193L347.632 388.288L347.855 388.383L348.079 388.479L348.303 388.575L348.528 388.672L348.754 388.769L348.982 388.866L349.21 388.964L349.439 389.062L349.669 389.161L349.899 389.26L350.131 389.36L350.364 389.459L350.597 389.56L350.832 389.66L351.067 389.761L351.304 389.863L351.541 389.965L351.78 390.067L352.019 390.169L352.259 390.272L352.5 390.376L352.742 390.48L352.985 390.584L353.229 390.689Z" fill="url(#paint61_linear_9656_7633)" stroke="#98B0E1" stroke-width="0.794677"/>
<path d="M399.769 406.593C396.067 399.347 391.203 384.09 363.44 373.008C341.58 364.736 320.38 367.679 311.877 370.274L316.171 372.352C322.883 370.861 344.744 368.774 362.482 376.128C376.672 382.01 390.971 391.725 395.127 405.276L399.769 406.593Z" fill="url(#paint62_linear_9656_7633)" stroke="url(#paint63_linear_9656_7633)" stroke-width="0.794677"/>
<path d="M394.425 407.182L395.033 405.173C392.574 393.365 376.076 381.009 362.546 376.076C345.977 370.035 328.348 369.449 316.47 372.541C315.62 373.189 314.22 374.452 315.419 374.314C316.918 374.141 339.63 369.331 361.434 377.805C380.643 385.27 391.831 397.635 394.425 407.182Z" fill="#BAB8DD" stroke="#97AFE0" stroke-width="0.794677"/>
<path d="M395.436 405.305V404.832L398.309 404.554C398.459 404.799 399.115 406.161 399.527 406.848L395.436 405.305Z" fill="#E6CAEE"/>
<path d="M360.619 377.689C344.983 371.327 324.316 372.774 316.198 374.365C332.326 381.842 393.875 407.143 393.875 406.746C391.195 396.604 380.163 385.643 360.619 377.689Z" fill="url(#paint64_linear_9656_7633)"/>
<rect x="0.254613" y="0.507613" width="5.25314" height="2.29759" transform="matrix(0.945666 0.325139 -0.304871 0.952394 310.864 370.125)" fill="#BAB8DD" stroke="#98B0E1" stroke-width="0.794677"/>
<rect x="0.216126" y="0.526372" width="5.26411" height="2.29228" transform="matrix(0.91772 0.397229 -0.373785 0.927516 395.228 404.806)" fill="#BAB8DD" stroke="#98B0E1" stroke-width="0.794677"/>
<path d="M312.268 370.638C312.445 370.564 312.841 370.438 313.097 370.367C314.289 370.869 316.289 371.899 316.289 371.899C316.289 371.899 315.873 371.946 315.908 371.965L312.268 370.638Z" fill="#E6CAF0"/>
<path d="M399.27 353.608C398.89 353.608 395.791 358.36 394.289 360.736C394.289 364.751 394.645 372.756 396.068 372.658C397.847 372.535 400.574 369.585 400.574 366.267C400.574 362.949 399.863 358.647 399.863 357.787C399.863 356.926 400.574 356.189 400.574 354.591C400.574 352.994 399.744 353.608 399.27 353.608Z" fill="#EEE4E2" stroke="url(#paint65_linear_9656_7633)" stroke-width="0.794677"/>
<path d="M336.126 388.726C338.619 384.075 349.297 374.99 354.324 371.029L372.771 359.145L382.368 372.708L394.085 360.307L396.079 373.871L378.504 397.381V402.677C364.378 398.242 336.126 389.242 336.126 388.726Z" fill="url(#paint66_linear_9656_7633)"/>
<path d="M350.413 374.031C347.041 376.478 339.56 382.79 336.617 388.472L343.975 391.786M343.975 391.786L345.354 388.472M343.975 391.786L378.234 402.203C378.234 399.835 378.234 394.438 378.234 391.786" stroke="#99B9E8" stroke-width="0.794677"/>
<path d="M378.234 398.023C383.035 391.492 393.257 377.478 395.738 373.663C395.538 370.001 394.958 362.261 394.237 360.603L383.735 371.487L378.234 375.633C378.501 378.121 379.355 383.635 380.635 385.791C381.915 387.947 382.025 387.844 382.152 388.023" stroke="url(#paint67_linear_9656_7633)" stroke-width="0.794677"/>
<path d="M353.322 386.413C354.256 385.169 356.563 382.267 358.323 380.608" stroke="#B2CCF1" stroke-width="0.794677"/>
<path d="M342.316 392.322C343.25 391.078 345.557 388.175 347.317 386.517" stroke="#99B9E8" stroke-width="0.794677"/>
<path d="M365.131 383.511C364.798 386.309 364.331 392.176 365.131 393.254C366.131 394.602 372.333 387.346 373.033 385.999" stroke="#B2CCF1" stroke-width="0.794677"/>
<path d="M356.83 375.115C358.43 376.738 362.411 379.986 365.532 379.986C368.652 379.986 370.499 379.986 371.033 379.986" stroke="#B2CCF1" stroke-width="0.794677"/>
<path d="M358.891 344.792C366.229 331.755 375.343 332.721 378.982 334.833C381.564 335.817 390.465 340.463 389.664 352.431C387.835 369.21 380.06 381.7 376.401 385.847C377.041 382.245 376.134 373.875 375.601 370.141C372.219 375.171 373.314 384.662 373.2 383.596C373.108 382.743 368.893 379.765 366.797 378.382C366.98 376.581 367.406 372.137 367.597 370.141C366.774 370.658 364.662 374.823 363.709 376.842C362.246 375.609 353.419 373.958 349.188 373.287C348.64 370.727 355.428 364.691 358.891 361.993C353.3 361.993 345.788 367.425 342.73 370.141L327.88 361.993C335.159 361.691 351.553 357.828 358.891 344.792Z" fill="url(#paint68_linear_9656_7633)" stroke="url(#paint69_linear_9656_7633)" stroke-width="0.794677"/>
<path d="M311.831 412.652C308.35 401.744 308.816 388.464 314.423 374.347C314.498 374.375 314.592 374.41 314.709 374.455C315.321 374.689 316.544 375.176 318.987 376.19C323.871 378.218 333.619 382.348 353.071 390.752L353.07 390.753L353.079 390.756C374.293 399.311 384.874 403.612 390.151 405.775C392.79 406.857 394.102 407.403 394.753 407.679C394.852 407.72 394.935 407.756 395.005 407.786C386.663 426.957 376.427 436.544 365.738 440.211C354.968 443.906 343.662 441.619 333.23 436.922C322.854 432.251 315.336 423.637 311.831 412.652Z" fill="url(#paint70_linear_9656_7633)" stroke="#98B0E1" stroke-width="0.794677"/>
<path d="M321.792 390.805L337.084 397.493" stroke="#8AA5D9" stroke-width="0.476806" stroke-linecap="round"/>
<path d="M344.816 400.708L378.026 414.726" stroke="#8AA5D9" stroke-width="0.476806" stroke-linecap="round"/>
<path d="M322.7 407.717L344.489 417.145" stroke="#8AA5D9" stroke-width="0.476806" stroke-linecap="round"/>
<path d="M350.802 419.731L363.45 424.831" stroke="#8AA5D9" stroke-width="0.476806" stroke-linecap="round"/>
<path d="M333.595 423.913L345.954 428.884" stroke="#8AA5D9" stroke-width="0.476806" stroke-linecap="round"/>
<path fill-rule="evenodd" clip-rule="evenodd" d="M359.705 207.057C362.105 208.044 364.291 209.919 365.882 212.599C369.461 218.63 368.795 226.666 364.581 231.526C364.868 231.928 365.144 232.352 365.408 232.796C367.773 236.783 368.495 241.358 367.572 244.728C368.245 245.499 368.891 246.239 369.514 246.955L369.515 246.956C377.159 255.731 381.562 260.785 393.658 270.591C389.807 267.673 384.146 264.418 378.329 261.074C371.285 257.025 364.012 252.844 359.444 248.968C357.271 248.094 355.084 246.194 353.376 243.474C350.399 243.138 347.436 241.163 345.449 237.815C344.551 236.302 343.943 234.661 343.613 232.999C341.244 231.465 339.063 229.199 337.332 226.282C335.4 223.026 334.3 219.418 333.997 215.9C333.323 215.388 332.723 214.719 332.237 213.9C331.193 212.142 330.875 210.025 331.205 208.025C329.975 207.52 328.873 206.581 328.078 205.241C325.993 201.727 326.804 196.784 329.89 194.201C332.976 191.617 337.169 192.371 339.254 195.885C339.452 196.219 339.624 196.566 339.77 196.922C342.127 195.451 345.197 196.106 347.646 198.428C352.077 198.954 356.58 201.98 359.705 207.057Z" fill="url(#paint71_linear_9656_7633)" fill-opacity="0.7"/>
<path fill-rule="evenodd" clip-rule="evenodd" d="M594.949 263.741C597.727 263.072 600.074 263.774 600.659 265.673C600.942 266.594 600.771 267.663 600.246 268.737C600.754 269.151 601.139 269.709 601.35 270.394C602.097 272.821 600.385 275.936 597.527 277.352C596.861 277.682 596.191 277.89 595.547 277.986C593.786 279.939 591.492 281.705 588.844 283.017C586.471 284.193 584.112 284.856 581.964 285.036C581.017 285.903 579.908 286.674 578.677 287.284C575.953 288.633 573.242 288.892 571.256 288.195C568.986 289.262 566.787 289.711 565.055 289.566C560.504 290.448 554.148 290.696 547.993 290.936C542.909 291.135 537.962 291.328 534.281 291.868C546.128 289.799 551.105 288.183 559.746 285.377C560.451 285.148 561.181 284.911 561.941 284.666C562.88 282.431 565.373 279.989 568.616 278.382C568.977 278.203 569.337 278.04 569.694 277.892C569.27 273.805 572.456 268.936 577.362 266.506C579.542 265.426 581.73 264.992 583.652 265.139C587.851 263.126 591.981 262.718 594.949 263.741Z" fill="url(#paint72_linear_9656_7633)" fill-opacity="0.7"/>
<circle cx="499.197" cy="231.596" r="30" fill="url(#paint73_linear_9656_7633)"/>
<path d="M391.311 297.921C392.959 299.453 395.626 303.76 393.101 308.739C395.291 307.937 400.16 307.311 402.114 311.223" stroke="url(#paint74_linear_9656_7633)" stroke-linecap="round"/>
<path d="M499.825 290.244C501.366 289.768 504.974 289.634 507.075 292.907C507.395 291.29 508.81 288.096 511.914 288.26" stroke="url(#paint75_linear_9656_7633)" stroke-linecap="round"/>
<path d="M477.079 346.234C479.868 345.249 486.269 344.561 489.563 349.692C490.338 346.98 493.256 341.525 498.727 341.394" stroke="url(#paint76_linear_9656_7633)" stroke-linecap="round"/>
</g>
<defs>
<filter id="filter0_f_9656_7633" x="-82.3315" y="615.787" width="479.974" height="253.465" filterUnits="userSpaceOnUse" color-interpolation-filters="sRGB">
<feFlood flood-opacity="0" result="BackgroundImageFix"/>
<feBlend mode="normal" in="SourceGraphic" in2="BackgroundImageFix" result="shape"/>
<feGaussianBlur stdDeviation="27.8137" result="effect1_foregroundBlur_9656_7633"/>
</filter>
<filter id="filter1_f_9656_7633" x="306.674" y="696.2" width="523.587" height="170.7" filterUnits="userSpaceOnUse" color-interpolation-filters="sRGB">
<feFlood flood-opacity="0" result="BackgroundImageFix"/>
<feBlend mode="normal" in="SourceGraphic" in2="BackgroundImageFix" result="shape"/>
<feGaussianBlur stdDeviation="27.8137" result="effect1_foregroundBlur_9656_7633"/>
</filter>
<linearGradient id="paint0_linear_9656_7633" x1="486" y1="304.056" x2="395.312" y2="704.226" gradientUnits="userSpaceOnUse">
<stop stop-color="#F6F7FB"/>
<stop offset="0.67342" stop-color="#E6EAFB"/>
<stop offset="1" stop-color="#D5DFFF"/>
</linearGradient>
<linearGradient id="paint1_linear_9656_7633" x1="460.344" y1="288.429" x2="421.139" y2="440.887" gradientUnits="userSpaceOnUse">
<stop stop-color="#F2F5FB"/>
<stop offset="1" stop-color="#96E1E5"/>
</linearGradient>
<linearGradient id="paint2_linear_9656_7633" x1="154.722" y1="431.746" x2="464.838" y2="819.664" gradientUnits="userSpaceOnUse">
<stop stop-color="#A5E6ED"/>
<stop offset="0.484375" stop-color="#7CD9D7"/>
<stop offset="1" stop-color="#43D3DA"/>
</linearGradient>
<linearGradient id="paint3_linear_9656_7633" x1="397.214" y1="616.64" x2="411.503" y2="790.973" gradientUnits="userSpaceOnUse">
<stop stop-color="#75DBDE"/>
<stop offset="1" stop-color="#7CCAEA"/>
</linearGradient>
<linearGradient id="paint4_linear_9656_7633" x1="172.582" y1="485.997" x2="167.921" y2="541.054" gradientUnits="userSpaceOnUse">
<stop stop-color="#A0E2E8"/>
<stop offset="0.0001" stop-color="#AEDDE8"/>
<stop offset="0.721926" stop-color="#96E4E7"/>
</linearGradient>
<linearGradient id="paint5_linear_9656_7633" x1="172.582" y1="485.997" x2="167.921" y2="541.054" gradientUnits="userSpaceOnUse">
<stop stop-color="#98E5E8"/>
<stop offset="1" stop-color="#82DCE1"/>
</linearGradient>
<linearGradient id="paint6_linear_9656_7633" x1="395.593" y1="616.627" x2="411.177" y2="790.942" gradientUnits="userSpaceOnUse">
<stop stop-color="#62DCDC"/>
<stop offset="1" stop-color="#88CBDF"/>
</linearGradient>
<linearGradient id="paint7_linear_9656_7633" x1="559.578" y1="620.483" x2="702.613" y2="786.906" gradientUnits="userSpaceOnUse">
<stop stop-color="#66D6DF" stop-opacity="0"/>
<stop offset="1" stop-color="#38B8D0"/>
</linearGradient>
<linearGradient id="paint8_linear_9656_7633" x1="141.299" y1="720.995" x2="147.805" y2="748.367" gradientUnits="userSpaceOnUse">
<stop stop-color="#CCBADC"/>
<stop offset="1" stop-color="#CCBADC" stop-opacity="0"/>
</linearGradient>
<linearGradient id="paint9_linear_9656_7633" x1="46.8201" y1="609.462" x2="16.7637" y2="640.413" gradientUnits="userSpaceOnUse">
<stop stop-color="#CCBADC"/>
<stop offset="1" stop-color="#CCBADC" stop-opacity="0"/>
</linearGradient>
<linearGradient id="paint10_linear_9656_7633" x1="20.6393" y1="599.977" x2="-16.2094" y2="604.201" gradientUnits="userSpaceOnUse">
<stop stop-color="#E3CBF9"/>
<stop offset="1" stop-color="#CCBADC" stop-opacity="0"/>
</linearGradient>
<linearGradient id="paint11_linear_9656_7633" x1="121.164" y1="746.061" x2="69.6742" y2="748.427" gradientUnits="userSpaceOnUse">
<stop stop-color="#CCBADC"/>
<stop offset="1" stop-color="#CCBADC" stop-opacity="0"/>
</linearGradient>
<linearGradient id="paint12_linear_9656_7633" x1="70.6611" y1="679.623" x2="34.0665" y2="715.681" gradientUnits="userSpaceOnUse">
<stop stop-color="#CCBADC"/>
<stop offset="1" stop-color="#CCBADC" stop-opacity="0"/>
</linearGradient>
<linearGradient id="paint13_linear_9656_7633" x1="83.5" y1="575.556" x2="58.4668" y2="701.067" gradientUnits="userSpaceOnUse">
<stop stop-color="#D8CBFF"/>
<stop offset="0.9375" stop-color="#B7C8FC"/>
</linearGradient>
<linearGradient id="paint14_linear_9656_7633" x1="91.5026" y1="607.49" x2="-11.1313" y2="666.563" gradientUnits="userSpaceOnUse">
<stop stop-color="#C7BADB"/>
<stop offset="1" stop-color="#C7BADB" stop-opacity="0"/>
</linearGradient>
<linearGradient id="paint15_linear_9656_7633" x1="160.665" y1="663.935" x2="164.046" y2="814.972" gradientUnits="userSpaceOnUse">
<stop stop-color="#79D8E8"/>
<stop offset="1" stop-color="#4CB8D8"/>
</linearGradient>
<linearGradient id="paint16_linear_9656_7633" x1="183.431" y1="608.099" x2="416.801" y2="773.141" gradientUnits="userSpaceOnUse">
<stop stop-color="#A5BCF3"/>
<stop offset="1" stop-color="#AAB9DE" stop-opacity="0"/>
</linearGradient>
<linearGradient id="paint17_linear_9656_7633" x1="636.391" y1="792.024" x2="590.341" y2="657.07" gradientUnits="userSpaceOnUse">
<stop stop-color="#78C7EB"/>
<stop offset="1" stop-color="#66D6DF"/>
</linearGradient>
<linearGradient id="paint18_linear_9656_7633" x1="523.166" y1="660.38" x2="555.917" y2="793.8" gradientUnits="userSpaceOnUse">
<stop stop-color="#67D7DF"/>
<stop offset="1" stop-color="#70BDE4"/>
</linearGradient>
<linearGradient id="paint19_linear_9656_7633" x1="310.547" y1="468.322" x2="308.245" y2="518.546" gradientUnits="userSpaceOnUse">
<stop stop-color="#E6ECFD"/>
<stop offset="1" stop-color="#D8D6FF"/>
</linearGradient>
<linearGradient id="paint20_linear_9656_7633" x1="475.875" y1="632.273" x2="478.675" y2="706.373" gradientUnits="userSpaceOnUse">
<stop stop-color="#DEDAF7"/>
<stop offset="1" stop-color="#B8C6FA"/>
</linearGradient>
<linearGradient id="paint21_linear_9656_7633" x1="464.515" y1="641.268" x2="478.264" y2="705.897" gradientUnits="userSpaceOnUse">
<stop stop-color="#E6C6FF"/>
<stop offset="1" stop-color="#ACBCF4"/>
</linearGradient>
<linearGradient id="paint22_linear_9656_7633" x1="64.4495" y1="372.136" x2="0.854845" y2="407.972" gradientUnits="userSpaceOnUse">
<stop stop-color="#DCD8FF"/>
<stop offset="1" stop-color="#CAD5FB"/>
</linearGradient>
<linearGradient id="paint23_linear_9656_7633" x1="124.148" y1="456.271" x2="-3.38514" y2="393.28" gradientUnits="userSpaceOnUse">
<stop stop-color="#DECCF9"/>
<stop offset="1" stop-color="#C7D2FB"/>
</linearGradient>
<linearGradient id="paint24_linear_9656_7633" x1="137.031" y1="131.47" x2="108.092" y2="148.23" gradientUnits="userSpaceOnUse">
<stop stop-color="#FAE8F0"/>
<stop offset="1" stop-color="#DAE5FD"/>
</linearGradient>
<linearGradient id="paint25_linear_9656_7633" x1="672.921" y1="379.898" x2="695.441" y2="407.884" gradientUnits="userSpaceOnUse">
<stop stop-color="#FFE8ED"/>
<stop offset="1" stop-color="#D9E4FD"/>
</linearGradient>
<linearGradient id="paint26_linear_9656_7633" x1="719.604" y1="540.287" x2="731.869" y2="577.586" gradientUnits="userSpaceOnUse">
<stop stop-color="#D2DBFF"/>
<stop offset="0.0001" stop-color="#E3E1FF"/>
<stop offset="1" stop-color="#D0DAF5"/>
<stop offset="1" stop-color="#DCE3FC"/>
</linearGradient>
<linearGradient id="paint27_linear_9656_7633" x1="719.604" y1="540.287" x2="742.516" y2="574.519" gradientUnits="userSpaceOnUse">
<stop stop-color="#E7DCFA"/>
<stop offset="1" stop-color="#C8BBDC" stop-opacity="0"/>
</linearGradient>
<linearGradient id="paint28_linear_9656_7633" x1="457.89" y1="377.322" x2="438.575" y2="467.677" gradientUnits="userSpaceOnUse">
<stop offset="0.0208333" stop-color="#F7E3E1"/>
<stop offset="0.260417" stop-color="#F3D8F5"/>
<stop offset="1" stop-color="#C0C8F7"/>
</linearGradient>
<linearGradient id="paint29_linear_9656_7633" x1="467.351" y1="444.57" x2="464.691" y2="447.384" gradientUnits="userSpaceOnUse">
<stop stop-color="#B4C6F4"/>
<stop offset="1" stop-color="#A0B7F1"/>
</linearGradient>
<linearGradient id="paint30_linear_9656_7633" x1="545.136" y1="457.089" x2="524.75" y2="478.656" gradientUnits="userSpaceOnUse">
<stop stop-color="#95B9EF"/>
<stop offset="1" stop-color="#96BAEF"/>
</linearGradient>
<linearGradient id="paint31_linear_9656_7633" x1="504.343" y1="449.235" x2="472.878" y2="482.522" gradientUnits="userSpaceOnUse">
<stop stop-color="#A8BDF3"/>
<stop offset="1" stop-color="#9DB6F7"/>
</linearGradient>
<linearGradient id="paint32_linear_9656_7633" x1="437.228" y1="434.702" x2="417.915" y2="455.134" gradientUnits="userSpaceOnUse">
<stop stop-color="#BCCAF1"/>
<stop offset="1" stop-color="#94AEF0"/>
</linearGradient>
<linearGradient id="paint33_linear_9656_7633" x1="403.766" y1="431.942" x2="400.101" y2="435.82" gradientUnits="userSpaceOnUse">
<stop stop-color="#AABEF4"/>
<stop offset="1" stop-color="#A5BCF7"/>
</linearGradient>
<linearGradient id="paint34_linear_9656_7633" x1="541.64" y1="463.491" x2="529.339" y2="453.817" gradientUnits="userSpaceOnUse">
<stop stop-color="#BECDF5"/>
<stop offset="1" stop-color="#93AEF2"/>
</linearGradient>
<linearGradient id="paint35_linear_9656_7633" x1="503.727" y1="454.748" x2="498.848" y2="459.91" gradientUnits="userSpaceOnUse">
<stop stop-color="#A6C0E9"/>
<stop offset="1" stop-color="#88B2EF"/>
</linearGradient>
<linearGradient id="paint36_linear_9656_7633" x1="575.019" y1="473.885" x2="573.801" y2="493.422" gradientUnits="userSpaceOnUse">
<stop offset="0.0208333" stop-color="#EBD5D2"/>
<stop offset="0.432292" stop-color="#D6C2E2"/>
<stop offset="1" stop-color="#BAC7ED"/>
</linearGradient>
<linearGradient id="paint37_linear_9656_7633" x1="592.564" y1="475.12" x2="572.409" y2="496.443" gradientUnits="userSpaceOnUse">
<stop stop-color="#BEC9E6"/>
<stop offset="1" stop-color="#9FB6F0"/>
</linearGradient>
<linearGradient id="paint38_linear_9656_7633" x1="466.616" y1="384.513" x2="457.357" y2="461.455" gradientUnits="userSpaceOnUse">
<stop offset="0.0208333" stop-color="#EBD5D2"/>
<stop offset="0.432292" stop-color="#D6C2E2"/>
<stop offset="1" stop-color="#BAC7ED"/>
</linearGradient>
<linearGradient id="paint39_linear_9656_7633" x1="461.751" y1="380.061" x2="438.44" y2="483.683" gradientUnits="userSpaceOnUse">
<stop stop-color="#FFD9D3"/>
<stop offset="1" stop-color="#6EAAFA"/>
</linearGradient>
<linearGradient id="paint40_linear_9656_7633" x1="413.149" y1="414.014" x2="413.086" y2="421.552" gradientUnits="userSpaceOnUse">
<stop offset="0.03125" stop-color="#E9D1F8"/>
<stop offset="1" stop-color="#CCCCF7"/>
</linearGradient>
<linearGradient id="paint41_linear_9656_7633" x1="418.481" y1="413.758" x2="416.903" y2="421.323" gradientUnits="userSpaceOnUse">
<stop stop-color="#D0C5EE"/>
<stop offset="0.97706" stop-color="#9FB5EC"/>
</linearGradient>
<linearGradient id="paint42_linear_9656_7633" x1="412.129" y1="400.019" x2="418.875" y2="410.945" gradientUnits="userSpaceOnUse">
<stop stop-color="#D1C9F2"/>
<stop offset="1" stop-color="#91A8E1"/>
</linearGradient>
<linearGradient id="paint43_linear_9656_7633" x1="421.707" y1="396.82" x2="387.214" y2="410.635" gradientUnits="userSpaceOnUse">
<stop stop-color="#A4B7E8"/>
<stop offset="1" stop-color="#8AB6F0"/>
<stop offset="1" stop-color="#C4DDFE"/>
</linearGradient>
<linearGradient id="paint44_linear_9656_7633" x1="301.114" y1="312.701" x2="238.238" y2="380.404" gradientUnits="userSpaceOnUse">
<stop offset="0.0208333" stop-color="#F7E3E1"/>
<stop offset="0.260417" stop-color="#F3D8F5"/>
<stop offset="1" stop-color="#C0C8F7"/>
</linearGradient>
<linearGradient id="paint45_linear_9656_7633" x1="240.628" y1="343.576" x2="239.852" y2="347.369" gradientUnits="userSpaceOnUse">
<stop stop-color="#B4C6F4"/>
<stop offset="1" stop-color="#A0B7F1"/>
</linearGradient>
<linearGradient id="paint46_linear_9656_7633" x1="185.707" y1="287.086" x2="179.759" y2="316.162" gradientUnits="userSpaceOnUse">
<stop stop-color="#95B9EF"/>
<stop offset="1" stop-color="#96BAEF"/>
</linearGradient>
<linearGradient id="paint47_linear_9656_7633" x1="215.564" y1="315.972" x2="206.384" y2="360.847" gradientUnits="userSpaceOnUse">
<stop stop-color="#A8BDF3"/>
<stop offset="1" stop-color="#9DB6F7"/>
</linearGradient>
<linearGradient id="paint48_linear_9656_7633" x1="266.006" y1="362.569" x2="260.37" y2="390.113" gradientUnits="userSpaceOnUse">
<stop stop-color="#BCCAF1"/>
<stop offset="1" stop-color="#94AEF0"/>
</linearGradient>
<linearGradient id="paint49_linear_9656_7633" x1="287.482" y1="388.377" x2="286.412" y2="393.604" gradientUnits="userSpaceOnUse">
<stop stop-color="#AABEF4"/>
<stop offset="1" stop-color="#A5BCF7"/>
</linearGradient>
<linearGradient id="paint50_linear_9656_7633" x1="182.475" y1="293.626" x2="197.458" y2="298.14" gradientUnits="userSpaceOnUse">
<stop stop-color="#BECDF5"/>
<stop offset="1" stop-color="#93AEF2"/>
</linearGradient>
<linearGradient id="paint51_linear_9656_7633" x1="211.404" y1="319.642" x2="209.981" y2="326.6" gradientUnits="userSpaceOnUse">
<stop stop-color="#A6C0E9"/>
<stop offset="1" stop-color="#88B2EF"/>
</linearGradient>
<linearGradient id="paint52_linear_9656_7633" x1="154.796" y1="272.269" x2="139.502" y2="284.487" gradientUnits="userSpaceOnUse">
<stop offset="0.0208333" stop-color="#EBD5D2"/>
<stop offset="0.432292" stop-color="#D6C2E2"/>
<stop offset="1" stop-color="#BAC7ED"/>
</linearGradient>
<linearGradient id="paint53_linear_9656_7633" x1="143.709" y1="258.615" x2="137.828" y2="287.36" gradientUnits="userSpaceOnUse">
<stop stop-color="#BEC9E6"/>
<stop offset="1" stop-color="#9FB6F0"/>
</linearGradient>
<linearGradient id="paint54_linear_9656_7633" x1="290.215" y1="309.687" x2="232.544" y2="361.454" gradientUnits="userSpaceOnUse">
<stop offset="0.0208333" stop-color="#EBD5D2"/>
<stop offset="0.432292" stop-color="#D6C2E2"/>
<stop offset="1" stop-color="#BAC7ED"/>
</linearGradient>
<linearGradient id="paint55_linear_9656_7633" x1="296.654" y1="311.114" x2="225.212" y2="389.706" gradientUnits="userSpaceOnUse">
<stop stop-color="#FFD9D3"/>
<stop offset="1" stop-color="#6EAAFA"/>
</linearGradient>
<linearGradient id="paint56_linear_9656_7633" x1="296.77" y1="370.4" x2="290.635" y2="374.78" gradientUnits="userSpaceOnUse">
<stop offset="0.03125" stop-color="#E9D1F8"/>
<stop offset="1" stop-color="#CCCCF7"/>
</linearGradient>
<linearGradient id="paint57_linear_9656_7633" x1="293.917" y1="365.888" x2="288.631" y2="371.524" gradientUnits="userSpaceOnUse">
<stop stop-color="#D0C5EE"/>
<stop offset="0.97706" stop-color="#9FB5EC"/>
</linearGradient>
<linearGradient id="paint58_linear_9656_7633" x1="308.812" y1="363.198" x2="295.994" y2="363.95" gradientUnits="userSpaceOnUse">
<stop stop-color="#D1C9F2"/>
<stop offset="1" stop-color="#91A8E1"/>
</linearGradient>
<linearGradient id="paint59_linear_9656_7633" x1="305.931" y1="353.519" x2="314.43" y2="389.691" gradientUnits="userSpaceOnUse">
<stop stop-color="#A4B7E8"/>
<stop offset="1" stop-color="#8AB6F0"/>
<stop offset="1" stop-color="#C4DDFE"/>
</linearGradient>
<linearGradient id="paint60_linear_9656_7633" x1="330.556" y1="443.283" x2="188.628" y2="624.428" gradientUnits="userSpaceOnUse">
<stop stop-color="#4DE9E0"/>
<stop offset="1" stop-color="#4FC9C5" stop-opacity="0"/>
</linearGradient>
<linearGradient id="paint61_linear_9656_7633" x1="358.161" y1="384.436" x2="326.044" y2="438.773" gradientUnits="userSpaceOnUse">
<stop stop-color="#A3A2FF"/>
<stop offset="1" stop-color="#B7CBFF"/>
</linearGradient>
<linearGradient id="paint62_linear_9656_7633" x1="372.986" y1="367.565" x2="363.65" y2="380.822" gradientUnits="userSpaceOnUse">
<stop stop-color="#EFCBC7"/>
<stop offset="1" stop-color="#E5C9EF"/>
</linearGradient>
<linearGradient id="paint63_linear_9656_7633" x1="355.823" y1="367.565" x2="351.518" y2="379.384" gradientUnits="userSpaceOnUse">
<stop stop-color="#E2CBCB"/>
<stop offset="1" stop-color="#AFB7DE"/>
</linearGradient>
<linearGradient id="paint64_linear_9656_7633" x1="368.888" y1="374.881" x2="355.036" y2="406.751" gradientUnits="userSpaceOnUse">
<stop stop-color="#60D2ED"/>
<stop offset="1" stop-color="#CCE0EB"/>
</linearGradient>
<linearGradient id="paint65_linear_9656_7633" x1="397.432" y1="353.492" x2="397.432" y2="372.659" gradientUnits="userSpaceOnUse">
<stop stop-color="#E4CFCF"/>
<stop offset="1" stop-color="#E3B5B5"/>
</linearGradient>
<linearGradient id="paint66_linear_9656_7633" x1="377.542" y1="360.172" x2="358.159" y2="397.633" gradientUnits="userSpaceOnUse">
<stop stop-color="#F0DAE3"/>
<stop offset="0.484375" stop-color="#D2D6EA"/>
<stop offset="1" stop-color="#D3E3F2"/>
</linearGradient>
<linearGradient id="paint67_linear_9656_7633" x1="396.822" y1="363.193" x2="373.461" y2="397.254" gradientUnits="userSpaceOnUse">
<stop stop-color="#E4CDCD"/>
<stop offset="1" stop-color="#99B9E8"/>
</linearGradient>
<linearGradient id="paint68_linear_9656_7633" x1="384.912" y1="333.578" x2="356.995" y2="380.571" gradientUnits="userSpaceOnUse">
<stop stop-color="#6ECADD"/>
<stop offset="0.583333" stop-color="#5CC6DB"/>
<stop offset="0.973958" stop-color="#3CC5E3"/>
</linearGradient>
<linearGradient id="paint69_linear_9656_7633" x1="365.824" y1="377.425" x2="389.171" y2="339.327" gradientUnits="userSpaceOnUse">
<stop stop-color="#6EA6AE"/>
<stop offset="0.520833" stop-color="#D5AEC5"/>
<stop offset="1" stop-color="#EFC3B9"/>
</linearGradient>
<linearGradient id="paint70_linear_9656_7633" x1="357.56" y1="385.139" x2="328.251" y2="434.726" gradientUnits="userSpaceOnUse">
<stop stop-color="#A8B4EF"/>
<stop offset="1" stop-color="#ABC7F2"/>
</linearGradient>
<linearGradient id="paint71_linear_9656_7633" x1="388.331" y1="224.759" x2="335.793" y2="230.972" gradientUnits="userSpaceOnUse">
<stop stop-color="#FBE8E8"/>
<stop offset="0.421875" stop-color="#FFEAF4"/>
<stop offset="1" stop-color="#DFE7FB"/>
</linearGradient>
<linearGradient id="paint72_linear_9656_7633" x1="555.776" y1="267.978" x2="581.195" y2="290.935" gradientUnits="userSpaceOnUse">
<stop stop-color="#FDE9EC"/>
<stop offset="0.421875" stop-color="#FAE9EE"/>
<stop offset="1" stop-color="#DFE9FF"/>
</linearGradient>
<linearGradient id="paint73_linear_9656_7633" x1="499.197" y1="201.596" x2="499.197" y2="261.596" gradientUnits="userSpaceOnUse">
<stop stop-color="#FFE6E6"/>
<stop offset="1" stop-color="#FFCFCF"/>
</linearGradient>
<linearGradient id="paint74_linear_9656_7633" x1="398.29" y1="301.461" x2="394.293" y2="309.343" gradientUnits="userSpaceOnUse">
<stop stop-color="#E5E6EF"/>
<stop offset="1" stop-color="#A9BDE3"/>
</linearGradient>
<linearGradient id="paint75_linear_9656_7633" x1="504.556" y1="287.207" x2="507.428" y2="295.614" gradientUnits="userSpaceOnUse">
<stop stop-color="#ECEAF0"/>
<stop offset="1" stop-color="#B6C8E6"/>
</linearGradient>
<linearGradient id="paint76_linear_9656_7633" x1="485.844" y1="340.607" x2="491.06" y2="348.731" gradientUnits="userSpaceOnUse">
<stop stop-color="#ECEAF0"/>
<stop offset="1" stop-color="#B0C2E3"/>
</linearGradient>
<clipPath id="clip0_9656_7633">
<rect width="888" height="790" rx="8" fill="white"/>
</clipPath>
</defs>
</svg>
